{
.appVersion = "1270";
DisplayStrings = (
"HO1234567890\012H¹²³/foursuperior/fivesuperior/sixsuperior/sevensuperior/eightsuperior/ninesuperior/zerosuperior \012H/oneinferior/twoinferior/threeinferior/fourinferior/fiveinferior/sixinferior/seveninferior/eightinferior/nineinferior/zeroinferior \012½ /uni2153  /uni2154  ¼ ¾ /oneeighth  /threeeighths  /fiveeighths  /seveneighths \012/uni2776/uni2777/uni2778/uni2779/uni277A/uni277B/uni277C/uni277D/uni277E \012/uni2460/uni2461/uni2462/uni2463/uni2464/uni2465/uni2466/uni2467/uni2468 \012",
"OGCS2356/Ze-cy egjcasft \012handglyopvesu",
OHno,
"/debug"
);
copyright = "Copyright 2020 The Liter Project Authors (https://github.com/skugiz/liter)";
customParameters = (
{
name = vendorID;
value = INNO;
},
{
name = fsType;
value = (
);
},
{
name = "Use Typo Metrics";
value = 1;
},
{
name = unicodeRanges;
value = (
0,
1,
2,
3,
4,
5,
6,
29,
31,
33,
35,
37,
38,
42,
45,
47,
60,
62
);
},
{
name = blueShift;
value = 0;
},
{
name = panose;
value = (
2,
0,
0,
0,
0,
0,
0,
0,
0,
0
);
},
{
name = blueScale;
value = 0;
},
{
name = Axes;
value = (
{
Name = Weight;
Tag = wght;
},
{
Name = Slant;
Tag = slnt;
}
);
},
{
name = licenseURL;
value = "http://scripts.sil.org/OFL";
},
{
name = license;
value = "This Font Software is licensed under the SIL Open Font License, Version 1.1. This license is available with a FAQ at: http://scripts.sil.org/OFL";
},
{
name = "Enforce Compatibility Check";
value = 1;
}
);
date = "2020-01-22 15:37:39 +0000";
designer = "Anton Skugarov";
designerURL = "http://www.skugarov.com";
familyName = Liter;
featurePrefixes = (
{
automatic = 1;
code = "languagesystem DFLT dflt;\012\012languagesystem latn dflt;\012languagesystem latn ROM;\012languagesystem latn MOL;\012languagesystem latn KAZ;\012languagesystem latn TAT;\012languagesystem latn TRK;\012languagesystem latn CRT;\012languagesystem latn AZE;\012languagesystem latn CAT;\012\012languagesystem cyrl dflt;\012languagesystem cyrl SRB;\012languagesystem cyrl BGR;\012";

glyphs = (
{
glyphname = A;
lastChange = "2020-04-19 16:55:17 +0000";
layers = (
{
guideLines = (
{
position = "{3884, 713}";
},
{
position = "{-79, 713}";
},
{
position = "{-30, 483}";
},
{
position = "{-62, 495}";
},
{
position = "{-79, 725}";
},
{
position = "{-193, 0}";
},
{
position = "{-79, -12}";
},
{
position = "{-79, 771}";
},
{
position = "{-79, 943}";
},
{
position = "{-79, -230}";
},
{
position = "{-65, -242}";
}
);
layerId = "1C9972D2-AAA2-4EE5-9F28-188B121D2056";
paths = (
{
closed = 1;
nodes = (
"627 0 LINE",
"351 714 LINE",
"268 714 LINE",
"535 0 LINE"
);
},
{
closed = 1;
nodes = (
"90 0 LINE",
"350 714 LINE",
"268 714 LINE",
"0 0 LINE"
);
},
{
closed = 1;
nodes = (
"511 199 LINE",
"489 268 LINE",
"132 268 LINE",
"112 199 LINE"
);
}
);
width = 627;
}
);
leftKerningGroup = A;
note = A;
rightKerningGroup = A;
unicode = 0041;
},
{
glyphname = AE;
lastChange = "2020-04-19 16:54:39 +0000";
layers = (
{
guideLines = (
{
position = "{0, 713}";
},
{
position = "{49.408, 483}";
},
{
position = "{16.594, 495}";
},
{
position = "{0, 725}";
},
{
position = "{0, 0}";
},
{
position = "{0, -12}";
},
{
position = "{0, 771}";
},
{
position = "{0, 943}";
},
{
position = "{0, -230}";
},
{
position = "{14.371, -242}";
}
);
hints = (
{
horizontal = 1;
place = "{80.776, 172.507}";
type = Stem;
}
);
layerId = "1C9972D2-AAA2-4EE5-9F28-188B121D2056";
paths = (
{
closed = 1;
nodes = (
"98.52 -0.25 LINE",
"266.852 252.985 LINE",
"494.959 252.985 LINE",
"494.959 -0.25 LINE",
"978.407 -0.25 LINE",
"978.407 80.325 LINE",
"581.289 80.325 LINE",
"581.289 299.028 LINE",
"943.875 299.028 LINE",
"943.875 379.602 LINE",
"581.289 379.602 LINE",
"581.289 632.837 LINE",
"978.407 632.837 LINE",
"978.407 713.412 LINE",
"474.389 713.412 LINE",
"0 -0.25 LINE"
);
},
{
closed = 1;
nodes = (
"494.959 596.153 LINE",
"494.959 333.56 LINE",
"320.411 333.56 LINE"
);
}
);
width = 1008;
}
);
leftKerningGroup = A;
leftMetricsKey = A;
rightKerningGroup = A;
rightMetricsKey = E;
unicode = 00C6;
},
{
glyphname = B;
lastChange = "2020-04-19 17:01:50 +0000";
layers = (
{
guideLines = (
{
position = "{24, 713}";
},
{
position = "{-54, 483}";
},
{
position = "{-53, 495}";
},
{
position = "{24, 725}";
},
{
position = "{24, 0}";
},
{
position = "{24, -12}";
},
{
position = "{24, 771}";
},
{
position = "{24, 943}";
},
{
position = "{24, -230}";
},
{
position = "{38, -242}";
}
);
layerId = "1C9972D2-AAA2-4EE5-9F28-188B121D2056";
paths = (
{
closed = 1;
nodes = (
"85 -2 LINE",
"85 713 LINE",
"167 713 LINE",
"167 -2 LINE"
);
},
{
closed = 1;
nodes = (
"587 65 OFFCURVE",
"487 -2 OFFCURVE",
"351 -2 CURVE SMOOTH",
"121 -2 LINE",
"121 74 LINE",
"347 74 LINE SMOOTH",
"435 74 OFFCURVE",
"501 113 OFFCURVE",
"501 199 CURVE SMOOTH",
"501 281 OFFCURVE",
"443 330 OFFCURVE",
"346 330 CURVE SMOOTH",
"125 330 LINE",
"125 406 LINE",
"335 406 LINE SMOOTH",
"414 406 OFFCURVE",
"466 450 OFFCURVE",
"466 525 CURVE SMOOTH",
"466 596 OFFCURVE",
"416 637 OFFCURVE",
"330 637 CURVE SMOOTH",
"125 637 LINE",
"125 713 LINE",
"335 713 LINE SMOOTH",
"456 713 OFFCURVE",
"553 651 OFFCURVE",
"553 530 CURVE SMOOTH",
"553 427 OFFCURVE",
"486 363 OFFCURVE",
"371 352 CURVE",
"377 389 LINE",
"503 382 OFFCURVE",
"587 318 OFFCURVE",
"587 199 CURVE SMOOTH"
);
}
);
width = 632;
}
);
leftMetricsKey = H;
unicode = 0042;
},
{
glyphname = C;
lastChange = "2020-04-19 16:54:39 +0000";
layers = (
{
guideLines = (
{
position = "{2, 713}";
},
{
position = "{51, 483}";
},
{
position = "{19, 495}";
},
{
position = "{2, 725}";
},
{
position = "{2, 0}";
},
{
position = "{2, -12}";
},
{
position = "{2, 771}";
},
{
position = "{2, 943}";
},
{
position = "{2, -230}";
},
{
position = "{16, -242}";
}
);
layerId = "1C9972D2-AAA2-4EE5-9F28-188B121D2056";
paths = (
{
closed = 1;
nodes = (
"531 -12 OFFCURVE",
"624 59 OFFCURVE",
"671 125 CURVE",
"686 148 LINE",
"619 194 LINE",
"606 174 LINE",
"566 118 OFFCURVE",
"497 64 OFFCURVE",
"388 64 CURVE",
"211 64 OFFCURVE",
"124 207 OFFCURVE",
"124 357 CURVE",
"124 521 OFFCURVE",
"223 647 OFFCURVE",
"376 648 CURVE",
"471 648 OFFCURVE",
"564 600 OFFCURVE",
"611 534 CURVE",
"621 522 LINE",
"684 568 LINE",
"670 587 LINE",
"616 660 OFFCURVE",
"505 725 OFFCURVE",
"376 724 CURVE",
"173 725 OFFCURVE",
"40 567 OFFCURVE",
"40 356 CURVE",
"40 153 OFFCURVE",
"173 -12 OFFCURVE",
"388 -12 CURVE"
);
}
);
width = 726;
}
);
leftMetricsKey = O;
rightMetricsKey = O;
unicode = 0043;
},
{
glyphname = D;
lastChange = "2020-04-19 16:54:39 +0000";
layers = (
{
guideLines = (
{
position = "{32, 713}";
},
{
position = "{81, 483}";
},
{
position = "{49, 495}";
},
{
position = "{32, 725}";
},
{
position = "{32, 0}";
},
{
position = "{32, -12}";
},
{
position = "{32, 771}";
},
{
position = "{32, 943}";
},
{
position = "{32, -230}";
},
{
position = "{46, -242}";
}
);
layerId = "1C9972D2-AAA2-4EE5-9F28-188B121D2056";
paths = (
{
closed = 1;
nodes = (
"301 0 LINE",
"498 0 OFFCURVE",
"654 133 OFFCURVE",
"654 354 CURVE",
"654 572 OFFCURVE",
"498 713 OFFCURVE",
"301 713 CURVE",
"85 712 LINE",
"85 0 LINE"
);
},
{
closed = 1;
nodes = (
"167 637 LINE",
"302 638 LINE",
"451 638 OFFCURVE",
"569 521 OFFCURVE",
"569 354 CURVE",
"569 183 OFFCURVE",
"451 74 OFFCURVE",
"302 74 CURVE",
"167 75 LINE"
);
}
);
width = 694;
}
);
leftMetricsKey = H;
rightMetricsKey = O;
unicode = 0044;
},
{
glyphname = E;
lastChange = "2020-04-19 16:54:39 +0000";
layers = (
{
guideLines = (
{
position = "{7, 713}";
},
{
position = "{56, 483}";
},
{
position = "{24, 495}";
},
{
position = "{7, 725}";
},
{
position = "{7, 0}";
},
{
position = "{7, -12}";
},
{
position = "{7, 771}";
},
{
position = "{7, 943}";
},
{
position = "{7, -230}";
},
{
position = "{21, -242}";
},
{
position = "{167, 617}";
}
);
layerId = "1C9972D2-AAA2-4EE5-9F28-188B121D2056";
paths = (
{
closed = 1;
nodes = (
"536 0 LINE",
"536 76 LINE",
"167 76 LINE",
"167 335 LINE",
"427 335 LINE",
"427 411 LINE",
"167 411 LINE",
"167 637 LINE",
"527 637 LINE",
"527 713 LINE",
"85 713 LINE",
"85 0 LINE"
);
}
);
width = 566;
}
);
leftMetricsKey = B;
unicode = 0045;
},
{
glyphname = F;
lastChange = "2020-04-19 16:54:39 +0000";
layers = (
{
guideLines = (
{
position = "{1, 713}";
},
{
position = "{50, 483}";
},
{
position = "{18, 495}";
},
{
position = "{1, 725}";
},
{
position = "{1, 0}";
},
{
position = "{1, -12}";
},
{
position = "{1, 771}";
},
{
position = "{1, 943}";
},
{
position = "{1, -230}";
},
{
position = "{15, -242}";
}
);
layerId = "1C9972D2-AAA2-4EE5-9F28-188B121D2056";
paths = (
{
closed = 1;
nodes = (
"167 0 LINE",
"167 321 LINE",
"424 321 LINE",
"424 394 LINE",
"167 394 LINE",
"167 637 LINE",
"525 637 LINE",
"525 713 LINE",
"85 713 LINE",
"85 0 LINE"
);
}
);
width = 555;
}
);
leftMetricsKey = B;
unicode = 0046;
},
{
glyphname = G;
lastChange = "2020-04-19 16:54:39 +0000";
layers = (
{
guideLines = (
{
position = "{0, 713}";
},
{
position = "{49, 483}";
},
{
position = "{17, 495}";
},
{
position = "{0, 725}";
},
{
position = "{0, 0}";
},
{
position = "{0, -12}";
},
{
position = "{0, 771}";
},
{
position = "{0, 943}";
},
{
position = "{0, -230}";
},
{
position = "{14, -242}";
}
);
layerId = "1C9972D2-AAA2-4EE5-9F28-188B121D2056";
paths = (
{
closed = 1;
nodes = (
"567 -12 OFFCURVE",
"741 114 OFFCURVE",
"725 370 CURVE",
"357 370 LINE",
"357 292 LINE",
"640 292 LINE",
"620 164 OFFCURVE",
"541 64 OFFCURVE",
"389 64 CURVE",
"207 64 OFFCURVE",
"122 206 OFFCURVE",
"122 356 CURVE",
"122 505 OFFCURVE",
"211 648 OFFCURVE",
"387 648 CURVE",
"485 648 OFFCURVE",
"556 604 OFFCURVE",
"609 537 CURVE",
"621 521 LINE",
"684 568 LINE",
"670 587 LINE",
"612 656 OFFCURVE",
"524 725 OFFCURVE",
"389 725 CURVE",
"178 725 OFFCURVE",
"40 558 OFFCURVE",
"40 355 CURVE",
"40 152 OFFCURVE",
"185 -12 OFFCURVE",
"389 -12 CURVE"
);
}
);
width = 766;
}
);
leftMetricsKey = O;
rightMetricsKey = O;
unicode = 0047;
},
{
glyphname = H;
lastChange = "2020-06-23 12:31:09 +0000";
layers = (
{
layerId = "1C9972D2-AAA2-4EE5-9F28-188B121D2056";
paths = (
{
closed = 1;
nodes = (
"88 0 LINE",
"176 0 LINE",
"176 700 LINE",
"88 700 LINE"
);
},
{
closed = 1;
nodes = (
"647 700 LINE",
"559 700 LINE",
"559 0 LINE",
"647 0 LINE"
);
},
{
closed = 1;
nodes = (
"161 318 LINE",
"575 318 LINE",
"575 400 LINE",
"161 400 LINE"
);
}
);
width = 735;
}
);
unicode = 0048;
},
{
glyphname = I;
lastChange = "2020-04-19 16:54:39 +0000";
layers = (
{
guideLines = (
{
position = "{5, 713}";
},
{
position = "{54, 483}";
},
{
position = "{22, 495}";
},
{
position = "{5, 725}";
},
{
position = "{5, 0}";
},
{
position = "{5, -12}";
},
{
position = "{5, 771}";
},
{
position = "{5, 943}";
},
{
position = "{5, -230}";
},
{
position = "{19, -242}";
}
);
hints = (
{
horizontal = 1;
place = "{0.1, 21}";
target = up;
type = BottomGhost;
}
);
layerId = "1C9972D2-AAA2-4EE5-9F28-188B121D2056";
paths = (
{
closed = 1;
nodes = (
"167 0 LINE",
"167 713 LINE",
"85 713 LINE",
"85 0 LINE"
);
}
);
width = 252;
}
);
leftMetricsKey = H;
rightMetricsKey = H;
unicode = 0049;
},
{
glyphname = J;
lastChange = "2020-04-19 16:54:39 +0000";
layers = (
{
guideLines = (
{
position = "{-5, 713}";
},
{
position = "{-5, 483}";
},
{
position = "{-5, 495}";
},
{
position = "{-5, 725}";
},
{
position = "{13, 0}";
},
{
angle = 180;
position = "{65, -12}";
},
{
position = "{-5, 771}";
},
{
position = "{127, 943}";
},
{
position = "{127, -230}";
},
{
position = "{141, -242}";
}
);
layerId = "1C9972D2-AAA2-4EE5-9F28-188B121D2056";
paths = (
{
closed = 1;
nodes = (
"442 -12 OFFCURVE",
"565 62 OFFCURVE",
"565 218 CURVE SMOOTH",
"564 713 LINE",
"484 713 LINE",
"484 219 LINE SMOOTH",
"484 89 OFFCURVE",
"396 64 OFFCURVE",
"333 64 CURVE SMOOTH",
"234 64 OFFCURVE",
"167 125 OFFCURVE",
"167 229 CURVE SMOOTH",
"167 328 LINE",
"85 328 LINE",
"85 228 LINE SMOOTH",
"85 62 OFFCURVE",
"224 -12 OFFCURVE",
"333 -12 CURVE SMOOTH"
);
},
{
closed = 1;
nodes = (
"564 639 LINE",
"564 713 LINE",
"224 713 LINE",
"224 639 LINE"
);
}
);
width = 650;
}
);
leftMetricsKey = I;
rightMetricsKey = H;
unicode = 004A;
},
{
glyphname = K;
lastChange = "2020-04-19 16:54:39 +0000";
layers = (
{
guideLines = (
{
position = "{4, 713}";
},
{
position = "{50, 483}";
},
{
position = "{18, 495}";
},
{
position = "{1, 725}";
},
{
position = "{1, 0}";
},
{
position = "{1, -12}";
},
{
position = "{1, 771}";
},
{
position = "{1, 943}";
},
{
position = "{1, -230}";
},
{
position = "{15, -242}";
},
{
position = "{-40, 703}";
},
{
position = "{-10, 10}";
},
{
angle = 270;
position = "{624, 5}";
}
);
layerId = "1C9972D2-AAA2-4EE5-9F28-188B121D2056";
paths = (
{
closed = 1;
nodes = (
"167 0 LINE",
"166 259 LINE",
"260 352 LINE",
"526 0 LINE",
"617 0 LINE",
"617 10 LINE",
"315 408 LINE",
"584 703 LINE",
"584 713 LINE",
"489 713 LINE",
"167 362 LINE",
"167 713 LINE",
"85 713 LINE",
"85 0 LINE"
);
}
);
width = 659;
}
);
unicode = 004B;
},
{
glyphname = L;
lastChange = "2020-04-19 16:54:39 +0000";
layers = (
{
guideLines = (
{
position = "{-55, 713}";
},
{
position = "{-55, 483}";
},
{
position = "{-55, 495}";
},
{
position = "{-55, 725}";
},
{
position = "{-55, 0}";
},
{
position = "{-55, -12}";
},
{
position = "{-55, 771}";
},
{
position = "{-55, 943}";
},
{
position = "{-55, -230}";
},
{
position = "{-55, -242}";
}
);
hints = (
{
horizontal = 1;
place = "{712.637, -20}";
target = down;
type = TopGhost;
}
);
layerId = "1C9972D2-AAA2-4EE5-9F28-188B121D2056";
paths = (
{
closed = 1;
nodes = (
"530 0 LINE",
"530 74 LINE",
"167 74 LINE",
"168 713 LINE",
"85 713 LINE",
"85 0 LINE"
);
}
);
width = 560;
}
);
leftMetricsKey = H;
unicode = 004C;
},
{
glyphname = M;
lastChange = "2020-04-19 16:54:39 +0000";
layers = (
{
guideLines = (
{
position = "{17, 713}";
},
{
position = "{17, 483}";
},
{
position = "{17, 495}";
},
{
position = "{17, 725}";
},
{
position = "{17, 0}";
},
{
position = "{17, -12}";
},
{
position = "{17, 771}";
},
{
position = "{16, 943}";
},
{
position = "{17, -230}";
},
{
position = "{17, -242}";
},
{
position = "{160, 569}";
},
{
angle = 180;
position = "{168, 554}";
}
);
layerId = "1C9972D2-AAA2-4EE5-9F28-188B121D2056";
paths = (
{
closed = 1;
nodes = (
"85 0 LINE",
"85 713 LINE",
"162 713 LINE",
"163 0 LINE"
);
},
{
closed = 1;
nodes = (
"747 0 LINE",
"669 0 LINE",
"669 713 LINE",
"747 713 LINE"
);
},
{
closed = 1;
nodes = (
"436 264 LINE",
"395 264 LINE",
"94 659 LINE",
"122 713 LINE",
"162 713 LINE",
"444 325 LINE",
"389 326 LINE",
"669 713 LINE",
"708 713 LINE",
"735 656 LINE"
);
}
);
width = 832;
}
);
leftMetricsKey = H;
rightMetricsKey = H;
unicode = 004D;
},
{
glyphname = N;
lastChange = "2020-04-19 16:54:39 +0000";
layers = (
{
guideLines = (
{
position = "{-18, 713}";
},
{
position = "{31, 483}";
},
{
position = "{-1, 495}";
},
{
position = "{-18, 725}";
},
{
position = "{-18, 0}";
},
{
position = "{-18, -12}";
},
{
position = "{-18, 771}";
},
{
position = "{-18, 943}";
},
{
position = "{-18, -230}";
},
{
position = "{-4, -242}";
}
);
layerId = "1C9972D2-AAA2-4EE5-9F28-188B121D2056";
paths = (
{
closed = 1;
nodes = (
"601 0 LINE",
"645 18 LINE",
"173 713 LINE",
"138 713 LINE",
"113 669 LINE",
"561 0 LINE"
);
},
{
closed = 1;
nodes = (
"165 0 LINE",
"165 713 LINE",
"85 713 LINE",
"85 0 LINE"
);
},
{
closed = 1;
nodes = (
"654 0 LINE",
"654 713 LINE",
"574 713 LINE",
"574 0 LINE"
);
}
);
width = 739;
}
);
leftMetricsKey = H;
rightMetricsKey = H;
unicode = 004E;
},
{
glyphname = Eng;
lastChange = "2020-04-19 16:54:39 +0000";
layers = (
{
components = (
{
name = N;
}
);
guideLines = (
{
position = "{0, 713}";
},
{
position = "{49.408, 483}";
},
{
position = "{16.594, 495}";
},
{
position = "{0, 725}";
},
{
position = "{0, 0}";
},
{
position = "{0, -12}";
},
{
position = "{0, 771}";
},
{
position = "{0, 943}";
},
{
position = "{0, -230}";
},
{
position = "{14.371, -242}";
}
);
layerId = "1C9972D2-AAA2-4EE5-9F28-188B121D2056";
paths = (
{
closed = 1;
nodes = (
"500 -170 LINE",
"584 -170 OFFCURVE",
"652 -103 OFFCURVE",
"652 -20 CURVE",
"652 73 LINE",
"562 73 LINE",
"565 -19 LINE",
"565 -65 OFFCURVE",
"531 -99 OFFCURVE",
"492 -99 CURVE",
"332 -99 LINE",
"332 -170 LINE"
);
}
);
width = 739;
}
);
leftKerningGroup = N;
leftMetricsKey = N;
rightKerningGroup = N;
rightMetricsKey = N;
unicode = 014A;
},
{
glyphname = O;
lastChange = "2020-06-23 12:40:20 +0000";
layers = (
{
layerId = "1C9972D2-AAA2-4EE5-9F28-188B121D2056";
paths = (
{
closed = 1;
nodes = (
"278 712 OFFCURVE",
"131 620 OFFCURVE",
"52 455 OFFCURVE",
"52 351 QCURVE SMOOTH",
"52 247 OFFCURVE",
"131 82 OFFCURVE",
"278 -12 OFFCURVE",
"375 -12 QCURVE SMOOTH",
"472 -12 OFFCURVE",
"619 82 OFFCURVE",
"698 247 OFFCURVE",
"698 351 QCURVE SMOOTH",
"698 455 OFFCURVE",
"619 620 OFFCURVE",
"472 712 OFFCURVE",
"375 712 QCURVE"
);
},
{
closed = 1;
nodes = (
"304 70 OFFCURVE",
"199 142 OFFCURVE",
"142 269 OFFCURVE",
"142 351 QCURVE SMOOTH",
"142 433 OFFCURVE",
"199 560 OFFCURVE",
"304 630 OFFCURVE",
"375 630 QCURVE SMOOTH",
"446 630 OFFCURVE",
"551 560 OFFCURVE",
"608 433 OFFCURVE",
"608 351 QCURVE SMOOTH",
"608 269 OFFCURVE",
"551 142 OFFCURVE",
"446 70 OFFCURVE",
"375 70 QCURVE"
);
}
);
width = 750;
}
);
leftKerningGroup = at;
rightKerningGroup = at;
unicode = 004F;
},
{
glyphname = P;
lastChange = "2020-04-19 16:54:39 +0000";
layers = (
{
guideLines = (
{
position = "{-45, 713}";
},
{
position = "{-24, 483}";
},
{
position = "{-21, 495}";
},
{
position = "{86, 725}";
},
{
position = "{-45, 0}";
},
{
position = "{86, -12}";
},
{
position = "{86, 771}";
},
{
position = "{86, 943}";
},
{
position = "{86, -230}";
},
{
position = "{100, -242}";
}
);
layerId = "1C9972D2-AAA2-4EE5-9F28-188B121D2056";
paths = (
{
closed = 1;
nodes = (
"169 0 LINE",
"169 280 LINE",
"296 280 LINE",
"466 280 OFFCURVE",
"543 380 OFFCURVE",
"543 495 CURVE",
"543 586 OFFCURVE",
"494 717 OFFCURVE",
"294 717 CURVE",
"85 717 LINE",
"85 0 LINE"
);
},
{
closed = 1;
nodes = (
"169 641 LINE",
"294 641 LINE",
"352 641 OFFCURVE",
"460 631 OFFCURVE",
"460 495 CURVE",
"460 411 OFFCURVE",
"418 354 OFFCURVE",
"310 354 CURVE",
"169 354 LINE"
);
}
);
width = 603;
}
);
leftMetricsKey = H;
rightKerningGroup = P;
unicode = 0050;
},
{
glyphname = Thorn;
lastChange = "2020-04-19 16:54:39 +0000";
layers = (
{
guideLines = (
{
position = "{85, 713}";
},
{
position = "{134, 483}";
},
{
position = "{102, 495}";
},
{
position = "{85, 725}";
},
{
position = "{85, 0}";
},
{
position = "{85, -12}";
},
{
position = "{85, 771}";
},
{
position = "{85, 943}";
},
{
position = "{85, -230}";
},
{
position = "{99, -242}";
}
);
layerId = "1C9972D2-AAA2-4EE5-9F28-188B121D2056";
paths = (
{
closed = 1;
nodes = (
"171 0 LINE",
"171 174 LINE",
"368 174 LINE",
"473 174 OFFCURVE",
"558 258 OFFCURVE",
"558 363 CURVE",
"558 468 OFFCURVE",
"473 553 OFFCURVE",
"368 553 CURVE",
"172 553 LINE",
"173 716 LINE",
"85 713 LINE",
"85 593 LINE",
"85 0 LINE"
);
},
{
closed = 1;
nodes = (
"171 472 LINE",
"366 472 LINE",
"424 472 OFFCURVE",
"472 423 OFFCURVE",
"472 363 CURVE",
"472 303 OFFCURVE",
"424 254 OFFCURVE",
"366 254 CURVE",
"171 254 LINE"
);
}
);
width = 618;
}
);
leftKerningGroup = P;
leftMetricsKey = P;
rightKerningGroup = P;
rightMetricsKey = P;
unicode = 00DE;
},
{
glyphname = Q;
lastChange = "2020-04-19 16:54:39 +0000";
layers = (
{
components = (
{
name = O;
}
);
guideLines = (
{
position = "{0, 713}";
},
{
position = "{49.408, 483}";
},
{
position = "{16.594, 495}";
},
{
position = "{0, 725}";
},
{
position = "{0, 0}";
},
{
position = "{0, -12}";
},
{
position = "{0, 771}";
},
{
position = "{0, 943}";
},
{
position = "{0, -230}";
},
{
position = "{14.371, -242}";
}
);
layerId = "1C9972D2-AAA2-4EE5-9F28-188B121D2056";
paths = (
{
closed = 1;
nodes = (
"735 -53 LINE",
"453 318 LINE",
"394 272 LINE",
"684 -98 LINE"
);
}
);
width = 781;
}
);
leftMetricsKey = O;
rightMetricsKey = O;
unicode = 0051;
},
{
glyphname = R;
lastChange = "2020-04-19 16:54:39 +0000";
layers = (
{
guideLines = (
{
position = "{1, 713}";
},
{
position = "{50, 483}";
},
{
position = "{18, 495}";
},
{
position = "{1, 725}";
},
{
position = "{1, 0}";
},
{
position = "{1, -12}";
},
{
position = "{1, 771}";
},
{
position = "{1, 943}";
},
{
position = "{1, -230}";
},
{
position = "{15, -242}";
}
);
layerId = "1C9972D2-AAA2-4EE5-9F28-188B121D2056";
paths = (
{
closed = 1;
nodes = (
"167 0 LINE",
"167 314 LINE",
"306 314 LINE",
"511 0 LINE",
"595 0 LINE",
"595 14 LINE",
"406 302 LINE",
"391 326 LINE SMOOTH",
"479 348 OFFCURVE",
"544 430 OFFCURVE",
"544 521 CURVE SMOOTH",
"544 634 OFFCURVE",
"446 713 OFFCURVE",
"341 713 CURVE SMOOTH",
"85 713 LINE",
"85 0 LINE"
);
},
{
closed = 1;
nodes = (
"167 637 LINE",
"334 637 LINE SMOOTH",
"412 637 OFFCURVE",
"460 581 OFFCURVE",
"460 521 CURVE SMOOTH",
"460 433 OFFCURVE",
"381 388 OFFCURVE",
"330 388 CURVE SMOOTH",
"167 388 LINE"
);
}
);
width = 635;
}
);
leftMetricsKey = H;
unicode = 0052;
},
{
glyphname = S;
lastChange = "2020-04-19 16:54:39 +0000";
layers = (
{
guideLines = (
{
position = "{-113, 713}";
},
{
position = "{-173, 483}";
},
{
position = "{-181, 495}";
},
{
position = "{-113, 725}";
},
{
position = "{-113, 0}";
},
{
position = "{-113, -12}";
},
{
position = "{-113, 771}";
},
{
position = "{-113, 943}";
},
{
position = "{-113, -230}";
},
{
position = "{-99, -242}";
}
);
layerId = "1C9972D2-AAA2-4EE5-9F28-188B121D2056";
paths = (
{
closed = 1;
nodes = (
"10 71 LINE",
"10 71 OFFCURVE",
"88 -12 OFFCURVE",
"258 -12 CURVE SMOOTH",
"428 -12 OFFCURVE",
"513 74 OFFCURVE",
"513 188 CURVE SMOOTH",
"513 292 OFFCURVE",
"460 355 OFFCURVE",
"281 406 CURVE SMOOTH",
"138 447 OFFCURVE",
"93 478 OFFCURVE",
"93 535 CURVE SMOOTH",
"93 608 OFFCURVE",
"166 649 OFFCURVE",
"261 649 CURVE SMOOTH",
"386 649 OFFCURVE",
"448 587 OFFCURVE",
"448 587 CURVE",
"493 655 LINE",
"493 655 OFFCURVE",
"426 725 OFFCURVE",
"261 725 CURVE SMOOTH",
"106 725 OFFCURVE",
"11 651 OFFCURVE",
"11 535 CURVE SMOOTH",
"11 429 OFFCURVE",
"83 378 OFFCURVE",
"245 329 CURVE SMOOTH",
"391 285 OFFCURVE",
"431 252 OFFCURVE",
"431 187 CURVE SMOOTH",
"431 115 OFFCURVE",
"379 64 OFFCURVE",
"257 64 CURVE SMOOTH",
"125 64 OFFCURVE",
"55 134 OFFCURVE",
"55 134 CURVE"
);
}
);
width = 523;
}
);
unicode = 0053;
},
{
glyphname = Germandbls;
lastChange = "2020-04-19 16:54:39 +0000";
layers = (
{
guideLines = (
{
position = "{143, 713}";
},
{
position = "{154, 483}";
},
{
position = "{124, 495}";
},
{
position = "{145, 725}";
},
{
position = "{25, 0}";
},
{
position = "{23, -12}";
},
{
position = "{153, 771}";
},
{
position = "{181, 943}";
},
{
position = "{-13, -230}";
},
{
position = "{-1, -242}";
}
);
layerId = "1C9972D2-AAA2-4EE5-9F28-188B121D2056";
paths = (
{
closed = 1;
nodes = (
"171 0 LINE",
"171 517 LINE",
"171 581 OFFCURVE",
"223 632 OFFCURVE",
"286 632 CURVE",
"522 632 LINE",
"326 402 LINE",
"326 322 LINE",
"456 322 LINE",
"521 322 OFFCURVE",
"574 268 OFFCURVE",
"574 201 CURVE",
"574 134 OFFCURVE",
"521 80 OFFCURVE",
"456 80 CURVE",
"280 80 LINE",
"280 0 LINE",
"459 0 LINE",
"570 0 OFFCURVE",
"660 90 OFFCURVE",
"660 201 CURVE",
"660 312 OFFCURVE",
"570 402 OFFCURVE",
"459 402 CURVE",
"441 402 LINE",
"441 414 LINE",
"637 632 LINE",
"637 713 LINE",
"280 713 LINE",
"173 713 OFFCURVE",
"85 625 OFFCURVE",
"85 517 CURVE",
"85 0 LINE"
);
}
);
width = 745;
}
);
leftKerningGroup = b;
leftMetricsKey = B;
rightKerningGroup = b;
rightMetricsKey = N;
unicode = 1E9E;
},
{
glyphname = uni018F;
lastChange = "2020-04-19 16:54:39 +0000";
layers = (
{
guideLines = (
{
position = "{0, 713}";
},
{
position = "{49.408, 483}";
},
{
position = "{16.594, 495}";
},
{
position = "{0, 725}";
},
{
position = "{0, 0}";
},
{
position = "{0, -12}";
},
{
position = "{0, 771}";
},
{
position = "{0, 943}";
},
{
position = "{0, -230}";
},
{
position = "{14.371, -242}";
}
);
layerId = "1C9972D2-AAA2-4EE5-9F28-188B121D2056";
paths = (
{
closed = 1;
nodes = (
"608.39 -12 OFFCURVE",
"752.28 151.88 OFFCURVE",
"752.28 354.923 CURVE",
"752.28 557.955 OFFCURVE",
"605.874 723.248 OFFCURVE",
"395.639 723.248 CURVE",
"249.692 723.248 OFFCURVE",
"138.876 644.83 OFFCURVE",
"74.473 527.948 CURVE",
"74.473 517 LINE",
"166.689 516.448 LINE",
"210.425 590.996 OFFCURVE",
"287.776 642.831 OFFCURVE",
"395.42 642.831 CURVE",
"570.961 642.831 OFFCURVE",
"665.946 504.972 OFFCURVE",
"665.946 355.624 CURVE",
"665.946 206.277 OFFCURVE",
"569.881 68.418 OFFCURVE",
"395.42 68.418 CURVE",
"239.054 68.418 OFFCURVE",
"145.666 179.165 OFFCURVE",
"127.974 309.66 CURVE",
"701.442 309.671 LINE",
"701.442 390.089 LINE",
"40.985 390.089 LINE",
"25.338 134.292 OFFCURVE",
"198.948 -12 OFFCURVE",
"395.639 -12 CURVE"
);
}
);
width = 792.28;
}
);
leftMetricsKey = O;
note = uni018F;
rightMetricsKey = O;
unicode = 018F;
},
{
glyphname = T;
lastChange = "2020-04-19 16:54:39 +0000";
layers = (
{
guideLines = (
{
position = "{-18, 713}";
},
{
position = "{31, 483}";
},
{
position = "{-1, 495}";
},
{
position = "{-18, 725}";
},
{
position = "{-18, 0}";
},
{
position = "{-18, -12}";
},
{
position = "{-18, 771}";
},
{
position = "{-18, 943}";
},
{
position = "{-18, -230}";
},
{
position = "{-4, -242}";
}
);
layerId = "1C9972D2-AAA2-4EE5-9F28-188B121D2056";
paths = (
{
closed = 1;
nodes = (
"323 0 LINE",
"323 637 LINE",
"532 637 LINE",
"532 713 LINE",
"20 713 LINE",
"20 637 LINE",
"241 637 LINE",
"241 0 LINE"
);
}
);
width = 552;
}
);
unicode = 0054;
},
{
glyphname = U;
lastChange = "2020-04-19 16:54:39 +0000";
layers = (
{
guideLines = (
{
position = "{1, 713}";
},
{
position = "{50, 483}";
},
{
position = "{18, 495}";
},
{
position = "{1, 725}";
},
{
position = "{1, 0}";
},
{
position = "{1, -12}";
},
{
position = "{1, 771}";
},
{
position = "{1, 943}";
},
{
position = "{1, -230}";
},
{
position = "{15, -242}";
}
);
layerId = "1C9972D2-AAA2-4EE5-9F28-188B121D2056";
paths = (
{
closed = 1;
nodes = (
"551 -12 OFFCURVE",
"618 129 OFFCURVE",
"618 265 CURVE",
"618 713 LINE",
"537 713 LINE",
"537 275 LINE",
"537 154 OFFCURVE",
"490 64 OFFCURVE",
"347 64 CURVE",
"189 64 OFFCURVE",
"157 167 OFFCURVE",
"157 275 CURVE",
"157 713 LINE",
"75 713 LINE",
"75 255 LINE",
"75 125 OFFCURVE",
"145 -12 OFFCURVE",
"347 -12 CURVE"
);
}
);
width = 693;
}
);
unicode = 0055;
},
{
glyphname = V;
lastChange = "2020-04-19 16:54:39 +0000";
layers = (
{
guideLines = (
{
position = "{-43, 713}";
},
{
position = "{20, 483}";
},
{
position = "{-12, 495}";
},
{
position = "{-29, 725}";
},
{
position = "{-29, 0}";
},
{
position = "{-29, -12}";
},
{
position = "{-29, 771}";
},
{
position = "{-29, 943}";
},
{
position = "{-29, -230}";
},
{
position = "{-15, -242}";
}
);
layerId = "1C9972D2-AAA2-4EE5-9F28-188B121D2056";
paths = (
{
closed = 1;
nodes = (
"5 713 LINE",
"90 713 LINE",
"366 0 LINE",
"275 0 LINE"
);
},
{
closed = 1;
nodes = (
"556 713 LINE",
"640 713 LINE",
"368 0 LINE",
"279 0 LINE"
);
}
);
width = 645;
}
);
unicode = 0056;
},
{
glyphname = W;
lastChange = "2020-04-19 16:54:39 +0000";
layers = (
{
guideLines = (
{
position = "{-199, 713}";
},
{
position = "{-150, 483}";
},
{
position = "{-182, 495}";
},
{
position = "{-199, 725}";
},
{
position = "{-149, 0}";
},
{
position = "{-199, -12}";
},
{
position = "{-199, 771}";
},
{
position = "{-199, 943}";
},
{
position = "{-199, -230}";
},
{
position = "{-185, -242}";
},
{
angle = 270;
position = "{482, -20}";
},
{
angle = 180;
position = "{223, 62}";
},
{
position = "{-29, 703}";
}
);
layerId = "1C9972D2-AAA2-4EE5-9F28-188B121D2056";
paths = (
{
closed = 1;
nodes = (
"99 713 LINE",
"311 0 LINE",
"229 0 LINE",
"15 713 LINE"
);
},
{
closed = 1;
nodes = (
"894 713 LINE",
"976 713 LINE",
"767 0 LINE",
"690 0 LINE"
);
},
{
closed = 1;
nodes = (
"459 713 LINE",
"532 713 LINE",
"766 0 LINE",
"679 0 LINE",
"478 631 LINE",
"512 631 LINE",
"310 0 LINE",
"233 0 LINE"
);
}
);
width = 991;
}
);
unicode = 0057;
},
{
glyphname = X;
lastChange = "2020-04-19 16:54:39 +0000";
layers = (
{
guideLines = (
{
position = "{-42, 713}";
},
{
position = "{7, 483}";
},
{
position = "{-25, 495}";
},
{
position = "{-42, 725}";
},
{
position = "{-42, 0}";
},
{
position = "{-42, -12}";
},
{
position = "{-42, 771}";
},
{
position = "{-42, 943}";
},
{
position = "{-42, -230}";
},
{
position = "{-28, -242}";
},
{
position = "{-58, 703}";
},
{
position = "{-28, 10}";
},
{
angle = 90;
position = "{301, 304}";
},
{
angle = 180;
position = "{251, 294}";
}
);
layerId = "1C9972D2-AAA2-4EE5-9F28-188B121D2056";
paths = (
{
closed = 1;
nodes = (
"119 713 LINE",
"604 0 LINE",
"506 0 LINE",
"22 713 LINE"
);
},
{
closed = 1;
nodes = (
"264 380 LINE",
"329 342 LINE",
"98 0 LINE",
"10 0 LINE"
);
},
{
closed = 1;
nodes = (
"591 713 LINE",
"338 344 LINE",
"281 383 LINE",
"501 713 LINE"
);
}
);
width = 619;
}
);
unicode = 0058;
},
{
glyphname = Y;
lastChange = "2020-04-19 16:54:39 +0000";
layers = (
{
guideLines = (
{
position = "{-7, 713}";
},
{
position = "{33, 483}";
},
{
position = "{1, 495}";
},
{
position = "{-16, 725}";
},
{
position = "{-16, 0}";
},
{
position = "{-16, -12}";
},
{
position = "{-16, 771}";
},
{
position = "{-16, 943}";
},
{
position = "{-16, -230}";
},
{
position = "{-2, -242}";
},
{
angle = 180;
position = "{273, 294}";
}
);
layerId = "1C9972D2-AAA2-4EE5-9F28-188B121D2056";
paths = (
{
closed = 1;
nodes = (
"526 713 LINE",
"614 713 LINE",
"344 293 LINE",
"261 293 LINE",
"-10 713 LINE",
"85 713 LINE",
"306 360 LINE"
);
},
{
closed = 1;
nodes = (
"261 0 LINE",
"261 326 LINE",
"344 326 LINE",
"343 0 LINE"
);
}
);
width = 604;
}
);
unicode = 0059;
},
{
glyphname = Z;
lastChange = "2020-04-19 16:54:39 +0000";
layers = (
{
guideLines = (
{
position = "{-11, 713}";
},
{
position = "{38, 483}";
},
{
position = "{6, 495}";
},
{
position = "{-11, 0}";
},
{
position = "{-11, -12}";
},
{
position = "{-11, 771}";
},
{
position = "{-11, 943}";
},
{
position = "{-11, -230}";
},
{
position = "{3, -242}";
},
{
angle = 270;
position = "{73, 675}";
},
{
angle = 90;
position = "{620, 706}";
},
{
position = "{-39, 703}";
},
{
position = "{-9, 10}";
},
{
position = "{-121, 725}";
}
);
layerId = "1C9972D2-AAA2-4EE5-9F28-188B121D2056";
paths = (
{
closed = 1;
nodes = (
"606 637 LINE",
"131 76 LINE",
"590 76 LINE",
"590 0 LINE",
"35 0 LINE",
"35 76 LINE",
"507 637 LINE",
"44 637 LINE",
"44 713 LINE",
"606 713 LINE"
);
}
);
width = 641;
}
);
unicode = 005A;
},
{
glyphname = a;
lastChange = "2020-04-19 16:53:07 +0000";
layers = (
{
guideLines = (
{
position = "{-75, 541}";
},
{
position = "{-55, 483}";
},
{
position = "{-65, 495}";
},
{
position = "{68, 725}";
},
{
position = "{68, 713}";
},
{
position = "{-116, 0}";
},
{
position = "{-129, -12}";
},
{
position = "{67, -230}";
},
{
position = "{66, -242}";
},
{
angle = 180;
position = "{-46, 430}";
},
{
position = "{-98, 54}";
}
);
layerId = "1C9972D2-AAA2-4EE5-9F28-188B121D2056";
paths = (
{
closed = 1;
nodes = (
"279 -12 OFFCURVE",
"337 17 OFFCURVE",
"372 75 CURVE",
"373 0 LINE",
"444 0 LINE",
"445 309 LINE",
"445 415 OFFCURVE",
"364 494 OFFCURVE",
"253 494 CURVE",
"193 494 OFFCURVE",
"132 471 OFFCURVE",
"64 425 CURVE",
"98 361 LINE",
"165 409 OFFCURVE",
"214 422 OFFCURVE",
"254 422 CURVE",
"328 422 OFFCURVE",
"372 365 OFFCURVE",
"372 319 CURVE",
"172 265 LINE",
"93 243 OFFCURVE",
"40 210 OFFCURVE",
"40 136 CURVE SMOOTH",
"40 58 OFFCURVE",
"99 -12 OFFCURVE",
"208 -12 CURVE"
);
},
{
closed = 1;
nodes = (
"157 60 OFFCURVE",
"119 85 OFFCURVE",
"119 130 CURVE SMOOTH",
"119 160 OFFCURVE",
"136 183 OFFCURVE",
"196 203 CURVE",
"373 254 LINE",
"373 216 LINE",
"373 129 OFFCURVE",
"294 60 OFFCURVE",
"209 60 CURVE SMOOTH"
);
}
);
width = 510;
}
);
rightKerningGroup = a;
unicode = 0061;
},
{
glyphname = b;
lastChange = "2020-04-19 16:54:39 +0000";
layers = (
{
guideLines = (
{
position = "{-546, 413}";
},
{
position = "{41, 541}";
},
{
position = "{-25, 483}";
},
{
position = "{-25, 495}";
},
{
position = "{42, 725}";
},
{
position = "{42, 713}";
},
{
position = "{-25, 0}";
},
{
position = "{-25, -12}";
},
{
position = "{-25, -230}";
},
{
position = "{-25, -242}";
},
{
angle = 180;
position = "{-25, 430}";
},
{
position = "{-130, 54}";
}
);
layerId = "1C9972D2-AAA2-4EE5-9F28-188B121D2056";
paths = (
{
closed = 1;
nodes = (
"448 -12 OFFCURVE",
"549 98 OFFCURVE",
"549 243 CURVE SMOOTH",
"549 388 OFFCURVE",
"450 496 OFFCURVE",
"311 496 CURVE SMOOTH",
"176 496 OFFCURVE",
"78 379 OFFCURVE",
"78 243 CURVE SMOOTH",
"78 110 OFFCURVE",
"176 -12 OFFCURVE",
"311 -12 CURVE SMOOTH"
);
},
{
closed = 1;
nodes = (
"135 -5 LINE",
"135 160 LINE",
"135 713 LINE",
"61 713 LINE",
"61 -5 LINE"
);
},
{
closed = 1;
nodes = (
"206 59 OFFCURVE",
"135 135 OFFCURVE",
"135 243 CURVE SMOOTH",
"135 351 OFFCURVE",
"204 425 OFFCURVE",
"303 425 CURVE SMOOTH",
"401 425 OFFCURVE",
"471 351 OFFCURVE",
"471 243 CURVE SMOOTH",
"471 136 OFFCURVE",
"399 59 OFFCURVE",
"303 59 CURVE SMOOTH"
);
}
);
width = 599;
}
);
leftKerningGroup = b;
rightKerningGroup = b;
unicode = 0062;
},
{
glyphname = c;
lastChange = "2020-04-19 16:54:39 +0000";
layers = (
{
guideLines = (
{
position = "{44, 541}";
},
{
position = "{45, 483}";
},
{
position = "{66, 495}";
},
{
position = "{45, 725}";
},
{
position = "{45, 713}";
},
{
position = "{36, 0}";
},
{
position = "{62, -12}";
},
{
position = "{44, -230}";
},
{
position = "{43, -242}";
}
);
layerId = "1C9972D2-AAA2-4EE5-9F28-188B121D2056";
paths = (
{
closed = 1;
nodes = (
"327 -12 OFFCURVE",
"395 0 OFFCURVE",
"480 55 CURVE",
"448 118 LINE",
"397 81 OFFCURVE",
"338 60 OFFCURVE",
"287 60 CURVE",
"183 60 OFFCURVE",
"123 147 OFFCURVE",
"123 241 CURVE",
"123 334 OFFCURVE",
"182 423 OFFCURVE",
"287 423 CURVE",
"337 423 OFFCURVE",
"387 403 OFFCURVE",
"443 362 CURVE",
"476 426 LINE",
"412 475 OFFCURVE",
"346 495 OFFCURVE",
"287 495 CURVE",
"151 495 OFFCURVE",
"45 387 OFFCURVE",
"45 241 CURVE",
"45 97 OFFCURVE",
"149 -12 OFFCURVE",
"283 -12 CURVE"
);
}
);
width = 525;
}
);
leftKerningGroup = c;
leftMetricsKey = o;
rightKerningGroup = c;
rightMetricsKey = o;
unicode = 0063;
},
{
glyphname = d;
lastChange = "2020-04-19 16:54:39 +0000";
layers = (
{
guideLines = (
{
position = "{-2255, 1012}";
},
{
position = "{44.809, 541}";
},
{
position = "{46.352, 483}";
},
{
position = "{67.451, 495}";
},
{
position = "{45.521, 725}";
},
{
position = "{45.521, 713}";
},
{
position = "{37.417, 0}";
},
{
position = "{62.578, -12}";
},
{
position = "{44.516, -230}";
},
{
position = "{44.138, -242}";
},
{
angle = 180;
position = "{-53, 430}";
},
{
position = "{-105, 54}";
}
);
layerId = "1C9972D2-AAA2-4EE5-9F28-188B121D2056";
paths = (
{
closed = 1;
nodes = (
"421 -12 OFFCURVE",
"519 110 OFFCURVE",
"519 243 CURVE SMOOTH",
"519 379 OFFCURVE",
"421 496 OFFCURVE",
"286 496 CURVE SMOOTH",
"147 496 OFFCURVE",
"48 388 OFFCURVE",
"48 243 CURVE SMOOTH",
"48 98 OFFCURVE",
"149 -12 OFFCURVE",
"286 -12 CURVE SMOOTH"
);
},
{
closed = 1;
nodes = (
"198 59 OFFCURVE",
"126 136 OFFCURVE",
"126 243 CURVE SMOOTH",
"126 351 OFFCURVE",
"196 425 OFFCURVE",
"294 425 CURVE SMOOTH",
"393 425 OFFCURVE",
"462 351 OFFCURVE",
"462 243 CURVE SMOOTH",
"462 135 OFFCURVE",
"391 59 OFFCURVE",
"294 59 CURVE SMOOTH"
);
},
{
closed = 1;
nodes = (
"536 -5 LINE",
"536 713 LINE",
"462 713 LINE",
"462 160 LINE",
"462 -5 LINE"
);
}
);
width = 599;
}
);
unicode = 0064;
},
{
glyphname = eth;
lastChange = "2020-04-19 16:54:39 +0000";
layers = (
{
guideLines = (
{
position = "{158, 541}";
},
{
position = "{149, 483}";
},
{
position = "{172, 495}";
},
{
position = "{189, 725}";
},
{
position = "{187, 713}";
},
{
position = "{60, 0}";
},
{
position = "{84, -12}";
},
{
position = "{30, -230}";
},
{
position = "{27, -242}";
}
);
layerId = "1C9972D2-AAA2-4EE5-9F28-188B121D2056";
paths = (
{
closed = 1;
nodes = (
"441 -12 OFFCURVE",
"554 101 OFFCURVE",
"554 241 CURVE",
"554 269 OFFCURVE",
"550 296 OFFCURVE",
"541 322 CURVE",
"529 359 OFFCURVE",
"508 399 OFFCURVE",
"478 441 CURVE",
"394 552 LINE",
"474 552 LINE",
"474 632 LINE",
"331 632 LINE",
"267 713 LINE",
"172 713 LINE",
"172 701 LINE",
"223 632 LINE",
"140 632 LINE",
"140 552 LINE",
"282 552 LINE",
"325 494 LINE",
"325 482 LINE",
"284 486 OFFCURVE",
"247 483 OFFCURVE",
"214 473 CURVE SMOOTH",
"110 441 OFFCURVE",
"48 347 OFFCURVE",
"48 241 CURVE",
"48 101 OFFCURVE",
"161 -12 OFFCURVE",
"301 -12 CURVE"
);
},
{
closed = 1;
nodes = (
"209 69 OFFCURVE",
"134 146 OFFCURVE",
"134 241 CURVE",
"134 336 OFFCURVE",
"209 414 OFFCURVE",
"301 414 CURVE",
"393 414 OFFCURVE",
"468 336 OFFCURVE",
"468 241 CURVE",
"468 146 OFFCURVE",
"393 69 OFFCURVE",
"301 69 CURVE"
);
}
);
width = 604;
}
);
leftKerningGroup = d;
leftMetricsKey = d;
rightKerningGroup = b;
rightMetricsKey = b;
unicode = 00F0;
},
{
glyphname = e;
lastChange = "2020-04-19 16:54:39 +0000";
layers = (
{
guideLines = (
{
position = "{-511, 541}";
},
{
position = "{-510, 483}";
},
{
position = "{-489, 495}";
},
{
position = "{-510, 725}";
},
{
position = "{-510, 713}";
},
{
position = "{-519, 0}";
},
{
position = "{-493, -12}";
},
{
position = "{-511, -230}";
},
{
position = "{-512, -242}";
}
);
layerId = "1C9972D2-AAA2-4EE5-9F28-188B121D2056";
paths = (
{
closed = 1;
nodes = (
"504 390 OFFCURVE",
"419 494 OFFCURVE",
"277 494 CURVE SMOOTH",
"133 494 OFFCURVE",
"45 387 OFFCURVE",
"45 241 CURVE SMOOTH",
"45 113 OFFCURVE",
"114 -11 OFFCURVE",
"290 -11 CURVE SMOOTH",
"378 -11 OFFCURVE",
"445 20 OFFCURVE",
"491 55 CURVE",
"458 118 LINE",
"414 86 OFFCURVE",
"354 61 OFFCURVE",
"292 61 CURVE SMOOTH",
"202 61 OFFCURVE",
"138 114 OFFCURVE",
"124 206 CURVE",
"501 206 LINE",
"504 248 LINE"
);
},
{
closed = 1;
nodes = (
"124 277 LINE",
"137 359 OFFCURVE",
"198 423 OFFCURVE",
"277 422 CURVE SMOOTH",
"351 421 OFFCURVE",
"416 362 OFFCURVE",
"421 277 CURVE"
);
}
);
width = 549;
}
);
leftKerningGroup = c;
leftMetricsKey = o;
rightKerningGroup = b;
rightMetricsKey = o;
unicode = 0065;
},
{
glyphname = f;
lastChange = "2020-04-19 16:54:39 +0000";
layers = (
{
guideLines = (
{
position = "{23, 541}";
},
{
position = "{25, 483}";
},
{
position = "{46, 495}";
},
{
position = "{24, 725}";
},
{
position = "{24, 713}";
},
{
position = "{16, 0}";
},
{
position = "{41, -12}";
},
{
position = "{23, -230}";
},
{
position = "{23, -242}";
}
);
layerId = "1C9972D2-AAA2-4EE5-9F28-188B121D2056";
paths = (
{
closed = 1;
nodes = (
"315 641 OFFCURVE",
"336 636 OFFCURVE",
"362 626 CURVE",
"386 690 LINE",
"355 706 OFFCURVE",
"323 713 OFFCURVE",
"288 713 CURVE SMOOTH",
"189 713 OFFCURVE",
"124 655 OFFCURVE",
"124 552 CURVE SMOOTH",
"124 483 LINE",
"48 483 LINE",
"48 416 LINE",
"124 416 LINE",
"124 0 LINE",
"202 0 LINE",
"202 416 LINE",
"347 416 LINE",
"347 483 LINE",
"202 483 LINE",
"202 550 LINE SMOOTH",
"202 611 OFFCURVE",
"235 641 OFFCURVE",
"297 641 CURVE SMOOTH"
);
}
);
width = 366;
}
);
leftKerningGroup = f;
rightKerningGroup = f;
unicode = 0066;
},
{
glyphname = g;
lastChange = "2020-04-19 16:53:55 +0000";
layers = (
{
guideLines = (
{
position = "{-534, 541}";
},
{
position = "{-533, 483}";
},
{
position = "{-514, 495}";
},
{
position = "{-533, 725}";
},
{
position = "{-533, 713}";
},
{
position = "{-542, 0}";
},
{
position = "{-516, -12}";
},
{
position = "{-534, -230}";
},
{
position = "{-535, -242}";
},
{
angle = 180;
position = "{-632, 430}";
},
{
position = "{-684, 54}";
}
);
layerId = "1C9972D2-AAA2-4EE5-9F28-188B121D2056";
paths = (
{
closed = 1;
nodes = (
"464 405 LINE",
"422 465 OFFCURVE",
"352 495 OFFCURVE",
"285 495 CURVE SMOOTH",
"146 495 OFFCURVE",
"45 383 OFFCURVE",
"45 243 CURVE SMOOTH",
"45 103 OFFCURVE",
"134 -12 OFFCURVE",
"280 -12 CURVE SMOOTH",
"348 -12 OFFCURVE",
"420 12 OFFCURVE",
"464 74 CURVE",
"464 27 LINE SMOOTH",
"464 -24 OFFCURVE",
"452 -64 OFFCURVE",
"417 -95 CURVE SMOOTH",
"383 -125 OFFCURVE",
"338 -143 OFFCURVE",
"286 -143 CURVE SMOOTH",
"227 -143 OFFCURVE",
"165 -120 OFFCURVE",
"111 -81 CURVE",
"72 -146 LINE",
"134 -192 OFFCURVE",
"204 -215 OFFCURVE",
"286 -215 CURVE SMOOTH",
"367 -215 OFFCURVE",
"428 -192 OFFCURVE",
"476 -145 CURVE SMOOTH",
"524 -98 OFFCURVE",
"542 -36 OFFCURVE",
"542 41 CURVE SMOOTH",
"542 483 LINE",
"464 483 LINE"
);
},
{
closed = 1;
nodes = (
"127 138 OFFCURVE",
"127 242 CURVE SMOOTH",
"127 343 OFFCURVE",
"197 424 OFFCURVE",
"293 424 CURVE SMOOTH",
"390 424 OFFCURVE",
"465 345 OFFCURVE",
"465 242 CURVE SMOOTH",
"465 140 OFFCURVE",
"394 60 OFFCURVE",
"297 60 CURVE SMOOTH",
"203 60 OFFCURVE"
);
}
);
width = 617;
}
);
leftKerningGroup = c;
unicode = 0067;
},
{
glyphname = h;
lastChange = "2020-04-19 16:54:39 +0000";
layers = (
{
guideLines = (
{
position = "{14, 541}";
},
{
position = "{15, 483}";
},
{
position = "{36, 495}";
},
{
position = "{15, 725}";
},
{
position = "{13, 713}";
},
{
position = "{16, 0}";
},
{
position = "{14, -12}";
},
{
position = "{14, -230}";
},
{
position = "{15, -242}";
},
{
angle = 180;
position = "{15, 430}";
},
{
position = "{-90, 54}";
}
);
hints = (
{
horizontal = 1;
place = "{0, 21}";
target = up;
type = BottomGhost;
}
);
layerId = "1C9972D2-AAA2-4EE5-9F28-188B121D2056";
paths = (
{
closed = 1;
nodes = (
"513 0 LINE",
"513 282 LINE SMOOTH",
"513 413 OFFCURVE",
"437 494 OFFCURVE",
"313 494 CURVE SMOOTH",
"213 494 OFFCURVE",
"135 431 OFFCURVE",
"116 335 CURVE",
"140 254 LINE",
"156 256 LINE",
"156 357 OFFCURVE",
"214 422 OFFCURVE",
"304 422 CURVE SMOOTH",
"388 422 OFFCURVE",
"437 370 OFFCURVE",
"437 280 CURVE SMOOTH",
"437 0 LINE"
);
},
{
closed = 1;
nodes = (
"156 0 LINE",
"156 343 LINE",
"156 713 LINE",
"80 713 LINE",
"80 0 LINE"
);
}
);
width = 583;
}
);
leftKerningGroup = b;
rightKerningGroup = h;
unicode = 0068;
},
{
glyphname = i;
lastChange = "2020-04-19 16:54:39 +0000";
layers = (
{
guideLines = (
{
position = "{10, 541}";
},
{
position = "{12, 483}";
},
{
position = "{33, 495}";
},
{
position = "{11, 725}";
},
{
position = "{11, 713}";
},
{
position = "{3, 0}";
},
{
position = "{28, -12}";
},
{
position = "{10, -230}";
},
{
position = "{10, -242}";
}
);
layerId = "1C9972D2-AAA2-4EE5-9F28-188B121D2056";
paths = (
{
closed = 1;
nodes = (
"149 0 LINE",
"149 483 LINE",
"71 483 LINE",
"71 0 LINE"
);
},
{
closed = 1;
nodes = (
"140 575 OFFCURVE",
"165 600 OFFCURVE",
"165 631 CURVE SMOOTH",
"165 660 OFFCURVE",
"140 685 OFFCURVE",
"111 685 CURVE SMOOTH",
"80 685 OFFCURVE",
"55 660 OFFCURVE",
"55 631 CURVE SMOOTH",
"55 600 OFFCURVE",
"80 575 OFFCURVE",
"111 575 CURVE SMOOTH"
);
}
);
width = 220;
}
);
leftKerningGroup = i;
rightKerningGroup = i;
unicode = 0069;
},
{
glyphname = idotless;
lastChange = "2020-04-19 16:54:39 +0000";
layers = (
{
guideLines = (
{
position = "{-6, 541}";
},
{
position = "{-4, 483}";
},
{
position = "{17, 495}";
},
{
position = "{-5, 725}";
},
{
position = "{-5, 713}";
},
{
position = "{-13, 0}";
},
{
position = "{12, -12}";
},
{
position = "{-6, -230}";
},
{
position = "{-6, -242}";
},
{
position = "{55, 575}";
}
);
layerId = "1C9972D2-AAA2-4EE5-9F28-188B121D2056";
paths = (
{
closed = 1;
nodes = (
"133 0 LINE",
"133 483 LINE",
"55 483 LINE",
"55 0 LINE"
);
}
);
width = 188;
}
);
leftMetricsKey = i;
rightMetricsKey = i;
unicode = 0131;
},
{
glyphname = j;
lastChange = "2020-04-19 16:54:39 +0000";
layers = (
{
layerId = "1C9972D2-AAA2-4EE5-9F28-188B121D2056";
paths = (
{
closed = 1;
nodes = (
"-19 -200 LINE",
"107 -225 OFFCURVE",
"166 -147 OFFCURVE",
"166 -66 CURVE",
"166 483 LINE",
"88 483 LINE",
"88 -40 LINE",
"88 -110 OFFCURVE",
"70 -143 OFFCURVE",
"-11 -131 CURVE",
"-29 -127 LINE",
"-45 -192 LINE"
);
},
{
closed = 1;
nodes = (
"155 574 OFFCURVE",
"180 599 OFFCURVE",
"180 630 CURVE SMOOTH",
"180 659 OFFCURVE",
"155 684 OFFCURVE",
"126 684 CURVE SMOOTH",
"95 684 OFFCURVE",
"70 659 OFFCURVE",
"70 630 CURVE SMOOTH",
"70 599 OFFCURVE",
"95 574 OFFCURVE",
"126 574 CURVE SMOOTH"
);
}
);
width = 235;
}
);
unicode = 006A;
},
{
glyphname = uni0237;
lastChange = "2020-04-19 16:54:39 +0000";
layers = (
{
guideLines = (
{
position = "{-46, 541}";
},
{
position = "{-45, 483}";
},
{
position = "{-24, 495}";
},
{
position = "{-46, 725}";
},
{
position = "{-46, 713}";
},
{
position = "{-54, 0}";
},
{
position = "{-29, -12}";
},
{
position = "{-47, -230}";
},
{
position = "{-47, -242}";
}
);
layerId = "1C9972D2-AAA2-4EE5-9F28-188B121D2056";
paths = (
{
closed = 1;
nodes = (
"-20 -227 LINE",
"106 -252 OFFCURVE",
"165 -174 OFFCURVE",
"165 -93 CURVE",
"165 483 LINE",
"87 483 LINE",
"87 -67 LINE",
"87 -137 OFFCURVE",
"69 -170 OFFCURVE",
"-12 -158 CURVE",
"-28 -153 LINE",
"-45 -219 LINE"
);
}
);
width = 220;
}
);
leftKerningGroup = j;
leftMetricsKey = j;
note = uni0237;
rightKerningGroup = j;
rightMetricsKey = j;
unicode = 0237;
},
{
glyphname = k;
lastChange = "2020-04-19 16:54:39 +0000";
layers = (
{
guideLines = (
{
position = "{-16, 541}";
},
{
position = "{-14, 483}";
},
{
position = "{7, 495}";
},
{
position = "{-15, 725}";
},
{
position = "{-15, 713}";
},
{
position = "{-23, 0}";
},
{
position = "{2, -12}";
},
{
position = "{-16, -230}";
},
{
position = "{-16, -242}";
}
);
layerId = "1C9972D2-AAA2-4EE5-9F28-188B121D2056";
paths = (
{
closed = 1;
nodes = (
"153 0 LINE",
"153 133 LINE",
"243 226 LINE",
"418 -1 LINE",
"510 0 LINE",
"295 279 LINE",
"480 483 LINE",
"387 483 LINE",
"153 231 LINE",
"153 713 LINE",
"75 713 LINE",
"75 0 LINE"
);
}
);
width = 515;
}
);
leftKerningGroup = b;
rightKerningGroup = k;
unicode = 006B;
},
{
glyphname = l;
lastChange = "2020-04-19 16:54:39 +0000";
layers = (
{
guideLines = (
{
position = "{70, 541}";
},
{
position = "{71, 483}";
},
{
position = "{92, 495}";
},
{
position = "{71, 725}";
},
{
position = "{-29, 713}";
},
{
position = "{62, 0}";
},
{
position = "{88, -12}";
},
{
position = "{70, -230}";
},
{
position = "{69, -242}";
}
);
layerId = "1C9972D2-AAA2-4EE5-9F28-188B121D2056";
paths = (
{
closed = 1;
nodes = (
"154 0 LINE",
"154 713 LINE",
"75 713 LINE",
"76 0 LINE"
);
}
);
width = 228;
}
);
leftKerningGroup = b;
rightKerningGroup = d;
unicode = 006C;
},
{
glyphname = m;
lastChange = "2020-04-19 16:54:39 +0000";
layers = (
{
guideLines = (
{
position = "{65, 541}";
},
{
position = "{-41, 483}";
},
{
position = "{87, 495}";
},
{
position = "{66, 725}";
},
{
position = "{66, 713}";
},
{
position = "{-89, 0}";
},
{
position = "{-54, -12}";
},
{
position = "{65, -230}";
},
{
position = "{64, -242}";
},
{
angle = 180;
position = "{-62, 430}";
},
{
position = "{-114, 54}";
}
);
layerId = "1C9972D2-AAA2-4EE5-9F28-188B121D2056";
paths = (
{
closed = 1;
nodes = (
"75 0 LINE",
"75 483 LINE",
"154 483 LINE",
"154 358 LINE",
"154 0 LINE"
);
},
{
closed = 1;
nodes = (
"404 0 LINE",
"404 292 LINE SMOOTH",
"404 373 OFFCURVE",
"366 424 OFFCURVE",
"289 424 CURVE SMOOTH",
"242 424 OFFCURVE",
"195 403 OFFCURVE",
"172 357 CURVE SMOOTH",
"161 335 OFFCURVE",
"154 308 OFFCURVE",
"154 277 CURVE",
"125 355 LINE",
"146 436 OFFCURVE",
"208 496 OFFCURVE",
"298 496 CURVE SMOOTH",
"413 496 OFFCURVE",
"482 402 OFFCURVE",
"482 292 CURVE SMOOTH",
"482 0 LINE"
);
},
{
closed = 1;
nodes = (
"730 0 LINE",
"730 290 LINE SMOOTH",
"730 373 OFFCURVE",
"682 423 OFFCURVE",
"604 423 CURVE SMOOTH",
"517 423 OFFCURVE",
"482 363 OFFCURVE",
"482 296 CURVE",
"434 361 LINE",
"458 441 OFFCURVE",
"521 496 OFFCURVE",
"612 496 CURVE SMOOTH",
"720 496 OFFCURVE",
"808 423 OFFCURVE",
"808 298 CURVE SMOOTH",
"808 0 LINE"
);
}
);
width = 878;
}
);
leftKerningGroup = m;
rightKerningGroup = h;
unicode = 006D;
},
{
glyphname = n;
lastChange = "2020-06-23 12:40:32 +0000";
layers = (
{
layerId = "1C9972D2-AAA2-4EE5-9F28-188B121D2056";
paths = (
{
closed = 1;
nodes = (
"499 0 LINE",
"500 331 LINE SMOOTH",
"500 455 OFFCURVE",
"431 531 OFFCURVE",
"310 531 CURVE SMOOTH",
"208 531 OFFCURVE",
"142 470 OFFCURVE",
"113 366 CURVE",
"139 271 LINE",
"162 308 LINE",
"160 419 OFFCURVE",
"234 452 OFFCURVE",
"296 453 CURVE SMOOTH",
"370 454 OFFCURVE",
"414 405 OFFCURVE",
"414 327 CURVE SMOOTH",
"413 0 LINE"
);
},
{
closed = 1;
nodes = (
"162 0 LINE",
"162 324 LINE",
"159 520 LINE",
"76 520 LINE",
"76 0 LINE"
);
}
);
width = 572;
}
);
leftKerningGroup = m;
rightKerningGroup = h;
unicode = 006E;
},
{
glyphname = o;
lastChange = "2020-06-23 12:26:06 +0000";
layers = (
{
layerId = "1C9972D2-AAA2-4EE5-9F28-188B121D2056";
paths = (
{
closed = 1;
nodes = (
"118 -12 OFFCURVE",
"48 118 OFFCURVE",
"48 261 CURVE SMOOTH",
"48 408 OFFCURVE",
"121 533 OFFCURVE",
"290 533 CURVE SMOOTH",
"462 533 OFFCURVE",
"533 404 OFFCURVE",
"533 260 CURVE SMOOTH",
"533 106 OFFCURVE",
"454 -12 OFFCURVE",
"290 -12 CURVE SMOOTH"
);
},
{
closed = 1;
nodes = (
"414 63 OFFCURVE",
"446 171 OFFCURVE",
"446 260 CURVE SMOOTH",
"446 350 OFFCURVE",
"413 457 OFFCURVE",
"290 457 CURVE SMOOTH",
"164 457 OFFCURVE",
"135 347 OFFCURVE",
"135 260 CURVE SMOOTH",
"135 168 OFFCURVE",
"168 63 OFFCURVE",
"290 63 CURVE SMOOTH"
);
}
);
width = 581;
}
);
unicode = 006F;
},
{
glyphname = p;
lastChange = "2020-04-19 16:54:39 +0000";
layers = (
{
guideLines = (
{
position = "{66, 541}";
},
{
position = "{27, 483}";
},
{
position = "{88, 495}";
},
{
position = "{67, 725}";
},
{
position = "{67, 713}";
},
{
position = "{58, 0}";
},
{
position = "{84, -12}";
},
{
position = "{36, -230}";
},
{
position = "{65, -242}";
},
{
angle = 180;
position = "{-62, 430}";
},
{
position = "{-114, 54}";
},
{
angle = 180;
position = "{-77, 411}";
}
);
layerId = "1C9972D2-AAA2-4EE5-9F28-188B121D2056";
paths = (
{
closed = 1;
nodes = (
"178 494 OFFCURVE",
"80 372 OFFCURVE",
"80 239 CURVE SMOOTH",
"80 103 OFFCURVE",
"178 -14 OFFCURVE",
"313 -14 CURVE SMOOTH",
"452 -14 OFFCURVE",
"551 94 OFFCURVE",
"551 239 CURVE SMOOTH",
"551 384 OFFCURVE",
"450 494 OFFCURVE",
"313 494 CURVE SMOOTH"
);
},
{
closed = 1;
nodes = (
"63 -231 LINE",
"137 -231 LINE",
"137 322 LINE",
"137 487 LINE",
"63 487 LINE"
);
},
{
closed = 1;
nodes = (
"401 423 OFFCURVE",
"473 346 OFFCURVE",
"473 239 CURVE SMOOTH",
"473 131 OFFCURVE",
"403 57 OFFCURVE",
"305 57 CURVE SMOOTH",
"206 57 OFFCURVE",
"137 131 OFFCURVE",
"137 239 CURVE SMOOTH",
"137 347 OFFCURVE",
"208 423 OFFCURVE",
"305 423 CURVE SMOOTH"
);
}
);
width = 599;
}
);
unicode = 0070;
},
{
glyphname = thorn;
lastChange = "2020-04-19 16:54:39 +0000";
layers = (
{
components = (
{
name = p;
}
);
guideLines = (
{
position = "{-0.191, 541}";
},
{
position = "{1.352, 483}";
},
{
position = "{22.451, 495}";
},
{
position = "{0.521, 725}";
},
{
position = "{0.521, 713}";
},
{
position = "{-7.583, 0}";
},
{
position = "{17.578, -12}";
},
{
position = "{-0.484, -230}";
},
{
position = "{-0.862, -242}";
}
);
layerId = "1C9972D2-AAA2-4EE5-9F28-188B121D2056";
paths = (
{
closed = 1;
nodes = (
"63 446 LINE",
"137 446 LINE",
"137 713 LINE",
"63 713 LINE"
);
}
);
width = 599;
}
);
leftKerningGroup = p;
leftMetricsKey = p;
rightKerningGroup = p;
rightMetricsKey = p;
unicode = 00FE;
},
{
glyphname = q;
lastChange = "2020-04-19 16:54:39 +0000";
layers = (
{
guideLines = (
{
position = "{-0.191, 541}";
},
{
position = "{1.352, 483}";
},
{
position = "{22.451, 495}";
},
{
position = "{0.521, 725}";
},
{
position = "{0.521, 713}";
},
{
position = "{-7.583, 0}";
},
{
position = "{17.578, -12}";
},
{
position = "{-0.484, -230}";
},
{
position = "{-0.862, -242}";
},
{
angle = 180;
position = "{-53, 430}";
},
{
position = "{-105, 54}";
}
);
layerId = "1C9972D2-AAA2-4EE5-9F28-188B121D2056";
paths = (
{
closed = 1;
nodes = (
"150 494 OFFCURVE",
"49 384 OFFCURVE",
"49 239 CURVE SMOOTH",
"49 94 OFFCURVE",
"148 -14 OFFCURVE",
"287 -14 CURVE SMOOTH",
"422 -14 OFFCURVE",
"520 103 OFFCURVE",
"520 239 CURVE SMOOTH",
"520 372 OFFCURVE",
"422 494 OFFCURVE",
"287 494 CURVE SMOOTH"
);
},
{
closed = 1;
nodes = (
"463 487 LINE",
"463 322 LINE",
"463 -231 LINE",
"537 -231 LINE",
"537 487 LINE"
);
},
{
closed = 1;
nodes = (
"392 423 OFFCURVE",
"463 347 OFFCURVE",
"463 239 CURVE SMOOTH",
"463 131 OFFCURVE",
"394 57 OFFCURVE",
"295 57 CURVE SMOOTH",
"197 57 OFFCURVE",
"127 131 OFFCURVE",
"127 239 CURVE SMOOTH",
"127 346 OFFCURVE",
"199 423 OFFCURVE",
"295 423 CURVE SMOOTH"
);
}
);
width = 599;
}
);
unicode = 0071;
},
{
glyphname = r;
lastChange = "2020-04-19 16:54:39 +0000";
layers = (
{
guideLines = (
{
position = "{72, 541}";
},
{
position = "{-14, 483}";
},
{
position = "{94, 495}";
},
{
position = "{73, 725}";
},
{
position = "{73, 713}";
},
{
position = "{64, 0}";
},
{
position = "{90, -12}";
},
{
position = "{72, -230}";
},
{
position = "{71, -242}";
},
{
angle = 180;
position = "{-56, 430}";
},
{
position = "{-108, 54}";
}
);
layerId = "1C9972D2-AAA2-4EE5-9F28-188B121D2056";
paths = (
{
closed = 1;
nodes = (
"335 483 LINE",
"280 483 LINE SMOOTH",
"219 483 OFFCURVE",
"169 454 OFFCURVE",
"147 402 CURVE",
"147 484 LINE",
"80 483 LINE",
"80 0 LINE",
"158 0 LINE",
"158 284 LINE SMOOTH",
"158 356 OFFCURVE",
"214 411 OFFCURVE",
"281 411 CURVE SMOOTH",
"335 411 LINE"
);
}
);
width = 400;
}
);
unicode = 0072;
},
{
glyphname = s;
lastChange = "2020-04-19 16:54:39 +0000";
layers = (
{
guideLines = (
{
position = "{-11, 541}";
},
{
position = "{-9, 483}";
},
{
position = "{12, 495}";
},
{
position = "{-10, 725}";
},
{
position = "{-10, 713}";
},
{
position = "{-18, 0}";
},
{
position = "{7, -12}";
},
{
position = "{-11, -230}";
},
{
position = "{-11, -242}";
}
);
layerId = "1C9972D2-AAA2-4EE5-9F28-188B121D2056";
paths = (
{
closed = 1;
nodes = (
"35 54 LINE",
"67 25 OFFCURVE",
"135 -12 OFFCURVE",
"230 -12 CURVE SMOOTH",
"346 -12 OFFCURVE",
"416 45 OFFCURVE",
"416 133 CURVE SMOOTH",
"416 240 OFFCURVE",
"312 267 OFFCURVE",
"229 288 CURVE SMOOTH",
"164 305 OFFCURVE",
"114 314 OFFCURVE",
"114 360 CURVE SMOOTH",
"114 397 OFFCURVE",
"147 422 OFFCURVE",
"218 422 CURVE SMOOTH",
"284 422 OFFCURVE",
"339 400 OFFCURVE",
"369 381 CURVE",
"401 451 LINE",
"359 476 OFFCURVE",
"283 494 OFFCURVE",
"217 494 CURVE SMOOTH",
"102 494 OFFCURVE",
"35 441 OFFCURVE",
"35 358 CURVE SMOOTH",
"35 256 OFFCURVE",
"134 233 OFFCURVE",
"217 210 CURVE SMOOTH",
"282 192 OFFCURVE",
"336 177 OFFCURVE",
"336 129 CURVE SMOOTH",
"336 91 OFFCURVE",
"301 60 OFFCURVE",
"235 60 CURVE SMOOTH",
"174 60 OFFCURVE",
"115 86 OFFCURVE",
"73 113 CURVE"
);
}
);
width = 451;
}
);
unicode = 0073;
},
{
glyphname = germandbls;
lastChange = "2020-04-19 16:54:39 +0000";
layers = (
{
guideLines = (
{
position = "{61, 541}";
},
{
position = "{62, 483}";
},
{
position = "{83, 495}";
},
{
position = "{62, 725}";
},
{
position = "{62, 713}";
},
{
position = "{53, 0}";
},
{
position = "{79, -12}";
},
{
position = "{61, -230}";
},
{
position = "{60, -242}";
}
);
layerId = "1C9972D2-AAA2-4EE5-9F28-188B121D2056";
paths = (
{
closed = 1;
nodes = (
"150 0 LINE",
"150 516 LINE",
"152 601 OFFCURVE",
"202 644 OFFCURVE",
"280 644 CURVE",
"357 644 OFFCURVE",
"413 611 OFFCURVE",
"413 534 CURVE",
"413 457 OFFCURVE",
"361 426 OFFCURVE",
"287 426 CURVE",
"239 426 LINE",
"240 344 LINE",
"306 344 LINE",
"402 343 OFFCURVE",
"458 296 OFFCURVE",
"458 212 CURVE",
"458 127 OFFCURVE",
"400 81 OFFCURVE",
"302 81 CURVE",
"240 81 LINE",
"240 0 LINE",
"323 0 LINE",
"464 2 OFFCURVE",
"544 86 OFFCURVE",
"544 212 CURVE",
"544 306 OFFCURVE",
"484 372 OFFCURVE",
"409 391 CURVE",
"409 394 LINE",
"454 407 OFFCURVE",
"501 454 OFFCURVE",
"501 536 CURVE",
"501 654 OFFCURVE",
"415 725 OFFCURVE",
"280 725 CURVE",
"143 725 OFFCURVE",
"61 650 OFFCURVE",
"61 518 CURVE",
"61 0 LINE"
);
}
);
width = 609;
}
);
leftKerningGroup = b;
leftMetricsKey = b;
rightKerningGroup = b;
rightMetricsKey = n;
unicode = 00DF;
},
{
glyphname = longs;
lastChange = "2020-04-19 16:54:39 +0000";
layers = (
{
layerId = "1C9972D2-AAA2-4EE5-9F28-188B121D2056";
paths = (
{
closed = 1;
nodes = (
"247.384 0.077 LINE",
"247.373 402.302 LINE",
"247.373 482.747 LINE",
"247.384 586.176 LINE",
"247.384 611.563 OFFCURVE",
"267.967 632.145 OFFCURVE",
"293.353 632.145 CURVE",
"419.766 632.145 LINE",
"419.766 712.59 LINE",
"293.353 712.59 LINE",
"223.538 712.59 OFFCURVE",
"160.871 655.991 OFFCURVE",
"160.871 586.176 CURVE",
"160.871 482.747 LINE",
"75.002 482.747 LINE",
"75.002 402.302 LINE",
"160.871 402.302 LINE",
"160.871 0.077 LINE"
);
}
);
width = 424.77;
}
);
leftKerningGroup = f;
note = longs;
rightKerningGroup = longs;
unicode = 017F;
},
{
glyphname = t;
lastChange = "2020-04-19 16:54:39 +0000";
layers = (
{
guideLines = (
{
position = "{-55, 541}";
},
{
position = "{-53, 483}";
},
{
position = "{-32, 495}";
},
{
position = "{-54, 725}";
},
{
position = "{-54, 713}";
},
{
position = "{-62, 0}";
},
{
position = "{-37, -12}";
},
{
position = "{-55, -230}";
},
{
position = "{-55, -242}";
},
{
angle = 180;
position = "{-52, 430}";
},
{
position = "{-104, 54}";
}
);
layerId = "1C9972D2-AAA2-4EE5-9F28-188B121D2056";
paths = (
{
closed = 1;
nodes = (
"375 11 LINE",
"358 80 LINE",
"310 68 LINE SMOOTH",
"262 56 OFFCURVE",
"197 61 OFFCURVE",
"197 147 CURVE SMOOTH",
"197 411 LINE",
"359 411 LINE",
"359 483 LINE",
"198 483 LINE",
"198 626 LINE",
"118 626 LINE",
"118 483 LINE",
"20 483 LINE",
"20 411 LINE",
"119 411 LINE",
"118 137 LINE SMOOTH",
"118 24 OFFCURVE",
"193 -30 OFFCURVE",
"315 -8 CURVE"
);
}
);
width = 415;
}
);
leftKerningGroup = t;
rightKerningGroup = t;
unicode = 0074;
},
{
glyphname = v;
lastChange = "2020-04-19 16:54:39 +0000";
layers = (
{
guideLines = (
{
position = "{7, 541}";
},
{
position = "{8, 483}";
},
{
position = "{29, 495}";
},
{
position = "{8, 725}";
},
{
position = "{8, 713}";
},
{
position = "{-1, 0}";
},
{
position = "{25, -12}";
},
{
position = "{7, -230}";
},
{
position = "{6, -242}";
}
);
layerId = "1C9972D2-AAA2-4EE5-9F28-188B121D2056";
paths = (
{
closed = 1;
nodes = (
"205 0 LINE",
"10 483 LINE",
"94 483 LINE",
"262 52 LINE",
"235 52 LINE",
"408 483 LINE",
"490 483 LINE",
"289 0 LINE"
);
}
);
width = 500;
}
);
leftKerningGroup = v;
rightKerningGroup = v;
unicode = 0076;
},
{
glyphname = w;
lastChange = "2020-04-19 16:54:39 +0000";
layers = (
{
guideLines = (
{
position = "{-26, 541}";
},
{
position = "{-54, 483}";
},
{
position = "{-3, 495}";
},
{
position = "{-25, 725}";
},
{
position = "{-25, 713}";
},
{
position = "{-33, 0}";
},
{
position = "{-8, -12}";
},
{
position = "{-26, -230}";
},
{
position = "{-26, -242}";
},
{
position = "{219, 34}";
}
);
layerId = "1C9972D2-AAA2-4EE5-9F28-188B121D2056";
paths = (
{
closed = 1;
nodes = (
"15 483 LINE",
"93 483 LINE",
"233 34 LINE",
"204 34 LINE",
"336 483 LINE",
"405 483 LINE",
"533 34 LINE",
"505 34 LINE",
"644 483 LINE",
"721 483 LINE",
"564 0 LINE",
"477 0 LINE",
"343 440 LINE",
"395 440 LINE",
"261 0 LINE",
"175 0 LINE"
);
}
);
width = 736;
}
);
leftKerningGroup = w;
rightKerningGroup = w;
unicode = 0077;
},
{
glyphname = x;
lastChange = "2020-04-19 16:54:39 +0000";
layers = (
{
guideLines = (
{
position = "{-7, 541}";
},
{
position = "{-33, 483}";
},
{
position = "{15, 495}";
},
{
position = "{-6, 725}";
},
{
position = "{-6, 713}";
},
{
position = "{-15, 0}";
},
{
position = "{11, -12}";
},
{
position = "{-7, -230}";
},
{
position = "{-8, -242}";
},
{
position = "{-5, 473}";
}
);
layerId = "1C9972D2-AAA2-4EE5-9F28-188B121D2056";
paths = (
{
closed = 1;
nodes = (
"105 483 LINE",
"456 0 LINE",
"365 0 LINE",
"17 483 LINE"
);
},
{
closed = 1;
nodes = (
"265 231 LINE",
"202 260 LINE",
"355 483 LINE",
"441 482 LINE"
);
},
{
closed = 1;
nodes = (
"195 269 LINE",
"262 246 LINE",
"98 0 LINE",
"14 0 LINE"
);
}
);
width = 471;
}
);
unicode = 0078;
},
{
glyphname = y;
lastChange = "2020-04-19 16:54:39 +0000";
layers = (
{
guideLines = (
{
position = "{-205, 541}";
},
{
position = "{-204, 483}";
},
{
position = "{-182, 495}";
},
{
position = "{-204, 725}";
},
{
position = "{-204, 713}";
},
{
position = "{-212, 0}";
},
{
position = "{-187, -12}";
},
{
position = "{-205, -230}";
},
{
position = "{-206, -242}";
}
);
layerId = "1C9972D2-AAA2-4EE5-9F28-188B121D2056";
paths = (
{
closed = 1;
nodes = (
"10 483 LINE",
"95 483 LINE",
"282 55 LINE",
"233 -21 LINE"
);
},
{
closed = 1;
nodes = (
"426 483 LINE",
"508 483 LINE",
"204 -230 LINE",
"126 -230 LINE",
"239 30 LINE",
"253 60 LINE"
);
}
);
width = 518;
}
);
leftKerningGroup = v;
rightKerningGroup = y;
unicode = 0079;
},
{
glyphname = z;
lastChange = "2020-04-19 16:54:39 +0000";
layers = (
{
guideLines = (
{
position = "{-37, 541}";
},
{
position = "{-36, 483}";
},
{
position = "{-14, 495}";
},
{
position = "{-36, 725}";
},
{
position = "{-36, 713}";
},
{
position = "{-45, 0}";
},
{
position = "{-19, -12}";
},
{
position = "{-37, -230}";
},
{
position = "{-38, -242}";
}
);
layerId = "1C9972D2-AAA2-4EE5-9F28-188B121D2056";
paths = (
{
closed = 1;
nodes = (
"38 416 LINE",
"38 483 LINE",
"417 483 LINE",
"372 416 LINE"
);
},
{
closed = 1;
nodes = (
"433 70 LINE",
"433 0 LINE",
"41 0 LINE",
"90 70 LINE"
);
},
{
closed = 1;
nodes = (
"53 0 LINE",
"25 0 LINE",
"25 70 LINE",
"405 483 LINE",
"441 483 LINE",
"440 416 LINE"
);
}
);
width = 476;
}
);
unicode = 007A;
},
{
glyphname = a.ss03;
lastChange = "2020-04-19 16:54:39 +0000";
layers = (
{
layerId = "1C9972D2-AAA2-4EE5-9F28-188B121D2056";
paths = (
{
closed = 1;
nodes = (
"356 187 LINE",
"356 145 OFFCURVE",
"316 60 OFFCURVE",
"211 60 CURVE SMOOTH",
"115 60 OFFCURVE",
"100 125 OFFCURVE",
"100 148 CURVE SMOOTH",
"100 171 OFFCURVE",
"119 246 OFFCURVE",
"245 241 CURVE",
"312 238 OFFCURVE",
"329 229 OFFCURVE",
"357 217 CURVE"
);
},
{
closed = 1;
nodes = (
"127 374 OFFCURVE",
"169 429 OFFCURVE",
"249 422 CURVE SMOOTH",
"347 413 OFFCURVE",
"362 344 OFFCURVE",
"356 291 CURVE",
"313 308 OFFCURVE",
"272 312 OFFCURVE",
"234 313 CURVE SMOOTH",
"116 315 OFFCURVE",
"20 241 OFFCURVE",
"18 149 CURVE SMOOTH",
"15 0 OFFCURVE",
"161 -13 OFFCURVE",
"203 -12 CURVE SMOOTH",
"236 -11 OFFCURVE",
"313 3 OFFCURVE",
"363 77 CURVE",
"363 0 LINE",
"432 0 LINE",
"432 310 LINE",
"432 406 OFFCURVE",
"373 493 OFFCURVE",
"235 494 CURVE SMOOTH",
"132 495 OFFCURVE",
"74 425 OFFCURVE",
"53 401 CURVE",
"102 351 LINE"
);
}
);
width = 501;
}
);
},
{
glyphname = T_i;
lastChange = "2020-04-19 16:54:39 +0000";
layers = (
{
components = (
{
alignment = -1;
name = T;
}
);
layerId = "1C9972D2-AAA2-4EE5-9F28-188B121D2056";
paths = (
{
closed = 1;
nodes = (
"563 0 LINE",
"641 0 LINE",
"641 483 LINE",
"563 483 LINE"
);
}
);
width = 696;
}
);
leftMetricsKey = T;
rightMetricsKey = i;
},
{
glyphname = f_f_i;
lastChange = "2020-04-19 16:54:39 +0000";
layers = (
{
components = (
{
name = f;
},
{
alignment = -1;
name = f;
transform = "{1, 0, 0, 1, 281, 0}";
}
);
layerId = "1C9972D2-AAA2-4EE5-9F28-188B121D2056";
paths = (
{
closed = 1;
nodes = (
"692 0 LINE",
"774 0 LINE",
"774 483 LINE",
"692 483 LINE"
);
},
{
closed = 1;
nodes = (
"522 415 LINE",
"774 415 LINE",
"774 483 LINE",
"522 483 LINE"
);
}
);
width = 829;
}
);
leftMetricsKey = f;
rightMetricsKey = i;
},
{
glyphname = fl;
lastChange = "2020-04-19 16:54:39 +0000";
layers = (
{
components = (
{
name = f;
},
{
name = l;
transform = "{1, 0, 0, 1, 384, 0}";
}
);
layerId = "1C9972D2-AAA2-4EE5-9F28-188B121D2056";
paths = (
{
closed = 1;
nodes = (
"328 415 LINE",
"487 415 LINE",
"487 483 LINE",
"328 483 LINE"
);
}
);
width = 612;
}
);
leftKerningGroup = f;
leftMetricsKey = f;
rightKerningGroup = l;
rightMetricsKey = l;
unicode = FB02;
},
{
glyphname = ordmasculine;
lastChange = "2020-04-19 16:54:39 +0000";
layers = (
{
guideLines = (
{
angle = 180;
position = "{181, 650}";
},
{
angle = 270;
position = "{89, 550}";
},
{
angle = 270;
position = "{253, 550}";
},
{
position = "{169, 472}";
}
);
layerId = "1C9972D2-AAA2-4EE5-9F28-188B121D2056";
paths = (
{
closed = 1;
nodes = (
"5 470 OFFCURVE",
"79 396 OFFCURVE",
"170 396 CURVE SMOOTH",
"261 396 OFFCURVE",
"335 470 OFFCURVE",
"335 562 CURVE SMOOTH",
"335 652 OFFCURVE",
"261 726 OFFCURVE",
"170 726 CURVE SMOOTH",
"79 726 OFFCURVE",
"5 652 OFFCURVE",
"5 562 CURVE SMOOTH"
);
},
{
closed = 1;
nodes = (
"84 611 OFFCURVE",
"122 651 OFFCURVE",
"167 651 CURVE SMOOTH",
"214 651 OFFCURVE",
"251 611 OFFCURVE",
"251 563 CURVE SMOOTH",
"251 514 OFFCURVE",
"214 474 OFFCURVE",
"167 474 CURVE SMOOTH",
"122 474 OFFCURVE",
"84 514 OFFCURVE",
"84 563 CURVE SMOOTH"
);
}
);
width = 340;
}
);
note = ordmasculine;
unicode = 00BA;
},
{
glyphname = "Be-cy";
lastChange = "2020-04-19 16:54:39 +0000";
layers = (
{
layerId = "1C9972D2-AAA2-4EE5-9F28-188B121D2056";
paths = (
{
closed = 1;
nodes = (
"356 0 LINE SMOOTH",
"370 0 OFFCURVE",
"384 1 OFFCURVE",
"402 3 CURVE SMOOTH",
"538 18 OFFCURVE",
"590 113 OFFCURVE",
"591 221 CURVE SMOOTH",
"592 332 OFFCURVE",
"503 425 OFFCURVE",
"399 431 CURVE SMOOTH",
"381 432 OFFCURVE",
"370 433 OFFCURVE",
"356 433 CURVE SMOOTH",
"167 433 LINE",
"167 637 LINE",
"522 637 LINE",
"522 713 LINE",
"85 713 LINE",
"85 0 LINE"
);
},
{
closed = 1;
nodes = (
"167 360 LINE",
"356 360 LINE SMOOTH",
"367 360 OFFCURVE",
"384 359 OFFCURVE",
"400 356 CURVE SMOOTH",
"451 346 OFFCURVE",
"511 302 OFFCURVE",
"511 221 CURVE SMOOTH",
"511 140 OFFCURVE",
"478 92 OFFCURVE",
"395 76 CURVE SMOOTH",
"379 73 OFFCURVE",
"362 73 OFFCURVE",
"351 73 CURVE SMOOTH",
"167 73 LINE"
);
}
);
width = 631;
}
);
leftKerningGroup = N;
leftMetricsKey = B;
rightKerningGroup = P;
unicode = 0411;
},
{
glyphname = "Ge-cy";
lastChange = "2020-04-19 16:54:39 +0000";
layers = (
{
layerId = "1C9972D2-AAA2-4EE5-9F28-188B121D2056";
paths = (
{
closed = 1;
nodes = (
"167 0 LINE",
"167 637 LINE",
"509 637 LINE",
"509 713 LINE",
"85 713 LINE",
"85 0 LINE"
);
}
);
width = 529;
}
);
leftKerningGroup = B;
leftMetricsKey = B;
rightKerningGroup = T;
rightMetricsKey = T;
unicode = 0413;
},
{
glyphname = "Gheupturn-cy";
lastChange = "2020-04-19 16:54:39 +0000";
layers = (
{
components = (
{
name = "Ge-cy";
}
);
layerId = "1C9972D2-AAA2-4EE5-9F28-188B121D2056";
paths = (
{
closed = 1;
nodes = (
"443 637 LINE",
"525 637 LINE",
"525 847 LINE",
"443 847 LINE"
);
}
);
width = 609;
}
);
leftKerningGroup = B;
rightKerningGroup = T;
unicode = 0490;
},
{
glyphname = "De-cy";
lastChange = "2020-04-19 16:54:39 +0000";
layers = (
{
layerId = "1C9972D2-AAA2-4EE5-9F28-188B121D2056";
paths = (
{
closed = 1;
nodes = (
"110 -182 LINE",
"110 0 LINE",
"649 0 LINE",
"649 -182 LINE",
"725 -182 LINE",
"725 76 LINE",
"637 76 LINE",
"637 713 LINE",
"188 713 LINE",
"180 549 OFFCURVE",
"186 437 OFFCURVE",
"170 298 CURVE SMOOTH",
"156 178 OFFCURVE",
"139 131 OFFCURVE",
"94 76 CURVE",
"30 76 LINE",
"30 -182 LINE"
);
},
{
closed = 1;
nodes = (
"209 127 OFFCURVE",
"234 170 OFFCURVE",
"246 290 CURVE SMOOTH",
"260 426 OFFCURVE",
"262 497 OFFCURVE",
"264 637 CURVE",
"555 637 LINE",
"555 76 LINE",
"176 77 LINE"
);
}
);
width = 755;
}
);
leftKerningGroup = A;
rightKerningGroup = N;
unicode = 0414;
},
{
glyphname = "Zhe-cy";
lastChange = "2020-04-19 16:54:39 +0000";
layers = (
{
layerId = "1C9972D2-AAA2-4EE5-9F28-188B121D2056";
paths = (
{
closed = 1;
nodes = (
"359 351 LINE",
"108 0 LINE",
"15 0 LINE",
"314 420 LINE",
"316 359 LINE",
"297 353 LINE",
"22 713 LINE",
"116 713 LINE",
"358 398 LINE"
);
},
{
closed = 1;
nodes = (
"588 352 LINE",
"591 398 LINE",
"831 713 LINE",
"927 713 LINE",
"650 353 LINE",
"632 360 LINE",
"640 417 LINE",
"933 0 LINE",
"837 0 LINE"
);
},
{
closed = 1;
nodes = (
"515 713 LINE",
"515 0 LINE",
"434 0 LINE",
"434 713 LINE"
);
},
{
closed = 1;
nodes = (
"309 336 LINE",
"309 411 LINE",
"634 411 LINE",
"634 336 LINE"
);
}
);
width = 948;
}
);
leftKerningGroup = X;
leftMetricsKey = W;
rightKerningGroup = K;
rightMetricsKey = W;
unicode = 0416;
},
{
glyphname = "Ze-cy";
lastChange = "2020-04-19 16:54:39 +0000";
layers = (
{
layerId = "1C9972D2-AAA2-4EE5-9F28-188B121D2056";
paths = (
{
closed = 1;
nodes = (
"404 -7 OFFCURVE",
"520 78 OFFCURVE",
"520 199 CURVE SMOOTH",
"520 294 OFFCURVE",
"469 348 OFFCURVE",
"390 379 CURVE",
"447 404 OFFCURVE",
"497 452 OFFCURVE",
"497 538 CURVE SMOOTH",
"497 663 OFFCURVE",
"385 724 OFFCURVE",
"273 724 CURVE SMOOTH",
"177 724 OFFCURVE",
"111 679 OFFCURVE",
"74 640 CURVE",
"54 619 LINE",
"104 567 LINE",
"124 587 LINE",
"161 623 OFFCURVE",
"221 648 OFFCURVE",
"270 648 CURVE SMOOTH",
"367 648 OFFCURVE",
"420 598 OFFCURVE",
"420 536 CURVE SMOOTH",
"420 458 OFFCURVE",
"354 423 OFFCURVE",
"295 418 CURVE",
"195 418 LINE",
"195 341 LINE",
"295 340 LINE",
"378 336 OFFCURVE",
"443 281 OFFCURVE",
"443 201 CURVE SMOOTH",
"443 98 OFFCURVE",
"327 69 OFFCURVE",
"278 69 CURVE SMOOTH",
"196 69 OFFCURVE",
"133 107 OFFCURVE",
"96 145 CURVE",
"81 161 LINE",
"30 107 LINE",
"39 95 LINE",
"106 17 OFFCURVE",
"204 -7 OFFCURVE",
"277 -7 CURVE SMOOTH"
);
}
);
width = 560;
}
);
leftKerningGroup = O;
rightKerningGroup = B;
rightMetricsKey = O;
unicode = 0417;
},
{
glyphname = "Ii-cy";
lastChange = "2020-04-19 16:54:39 +0000";
layers = (
{
layerId = "1C9972D2-AAA2-4EE5-9F28-188B121D2056";
paths = (
{
closed = 1;
nodes = (
"626 669 LINE",
"601 713 LINE",
"566 713 LINE",
"94 18 LINE",
"138 0 LINE",
"178 0 LINE"
);
},
{
closed = 1;
nodes = (
"654 713 LINE",
"574 713 LINE",
"574 0 LINE",
"654 0 LINE"
);
},
{
closed = 1;
nodes = (
"165 713 LINE",
"85 713 LINE",
"85 0 LINE",
"165 0 LINE"
);
}
);
width = 739;
}
);
leftKerningGroup = N;
rightKerningGroup = N;
unicode = 0418;
},
{
glyphname = "Ka-cy";
lastChange = "2020-04-19 16:54:39 +0000";
layers = (
{
layerId = "1C9972D2-AAA2-4EE5-9F28-188B121D2056";
paths = (
{
closed = 1;
nodes = (
"250 347 LINE",
"250 398 LINE",
"522 713 LINE",
"614 713 LINE",
"308 347 LINE",
"308 402 LINE",
"621 0 LINE",
"527 0 LINE"
);
},
{
closed = 1;
nodes = (
"295 411 LINE",
"295 335 LINE",
"167 335 LINE",
"167 0 LINE",
"85 0 LINE",
"85 713 LINE",
"167 713 LINE",
"167 411 LINE"
);
}
);
width = 663;
}
);
leftKerningGroup = K;
leftMetricsKey = K;
rightKerningGroup = K;
rightMetricsKey = K;
unicode = 041A;
},
{
glyphname = "El-cy";
lastChange = "2020-04-19 16:54:39 +0000";
layers = (
{
layerId = "1C9972D2-AAA2-4EE5-9F28-188B121D2056";
paths = (
{
closed = 1;
nodes = (
"165 -45 OFFCURVE",
"204 70 OFFCURVE",
"221 184 CURVE SMOOTH",
"248 365 OFFCURVE",
"245 467 OFFCURVE",
"251 637 CURVE",
"527 637 LINE",
"527 0 LINE",
"609 0 LINE",
"609 713 LINE",
"172 713 LINE",
"167 550 OFFCURVE",
"169 407 OFFCURVE",
"151 247 CURVE SMOOTH",
"133 86 OFFCURVE",
"107 55 OFFCURVE",
"27 64 CURVE",
"15 -3 LINE"
);
}
);
width = 694;
}
);
leftKerningGroup = A;
rightKerningGroup = H;
rightMetricsKey = H;
unicode = 041B;
},
{
glyphname = "Pe-cy";
lastChange = "2020-04-19 16:54:39 +0000";
layers = (
{
layerId = "1C9972D2-AAA2-4EE5-9F28-188B121D2056";
paths = (
{
closed = 1;
nodes = (
"167 0 LINE",
"167 637 LINE",
"547 637 LINE",
"547 0 LINE",
"629 0 LINE",
"629 713 LINE",
"85 713 LINE",
"85 0 LINE"
);
}
);
width = 714;
}
);
leftKerningGroup = H;
leftMetricsKey = H;
rightKerningGroup = H;
rightMetricsKey = H;
unicode = 041F;
},
{
glyphname = "U-cy";
lastChange = "2020-04-19 16:54:39 +0000";
layers = (
{
layerId = "1C9972D2-AAA2-4EE5-9F28-188B121D2056";
paths = (
{
closed = 1;
nodes = (
"91 0 LINE",
"96 -2 OFFCURVE",
"103 -4 OFFCURVE",
"110 -5 CURVE SMOOTH",
"123 -7 OFFCURVE",
"139 -10 OFFCURVE",
"156 -10 CURVE SMOOTH",
"256 -10 OFFCURVE",
"308 41 OFFCURVE",
"364 155 CURVE",
"629 713 LINE",
"545 714 LINE",
"330 268 LINE",
"104 713 LINE",
"10 713 LINE",
"288 180 LINE",
"281 155 LINE SMOOTH",
"265 98 OFFCURVE",
"215 64 OFFCURVE",
"151 64 CURVE SMOOTH",
"134 64 OFFCURVE",
"119 66 OFFCURVE",
"108 68 CURVE SMOOTH",
"101 69 OFFCURVE",
"96 71 OFFCURVE",
"91 72 CURVE"
);
}
);
width = 639;
}
);
leftKerningGroup = X;
leftMetricsKey = y;
rightKerningGroup = Y;
rightMetricsKey = y;
unicode = 0423;
},
{
glyphname = "Ef-cy";
lastChange = "2020-04-19 16:54:39 +0000";
layers = (
{
layerId = "1C9972D2-AAA2-4EE5-9F28-188B121D2056";
paths = (
{
closed = 1;
nodes = (
"455 0 LINE",
"456 65 LINE",
"621 60 OFFCURVE",
"791 157 OFFCURVE",
"791 363 CURVE SMOOTH",
"791 559 OFFCURVE",
"631 658 OFFCURVE",
"456 658 CURVE",
"456 734 LINE",
"375 734 LINE",
"375 658 LINE",
"182 651 OFFCURVE",
"40 550 OFFCURVE",
"40 360 CURVE SMOOTH",
"40 160 OFFCURVE",
"211 60 OFFCURVE",
"375 64 CURVE",
"375 0 LINE"
);
},
{
closed = 1;
nodes = (
"209 131 OFFCURVE",
"121 244 OFFCURVE",
"121 360 CURVE SMOOTH",
"121 505 OFFCURVE",
"224 584 OFFCURVE",
"375 584 CURVE",
"375 137 LINE"
);
},
{
closed = 1;
nodes = (
"457 584 LINE",
"609 584 OFFCURVE",
"711 501 OFFCURVE",
"711 363 CURVE SMOOTH",
"711 288 OFFCURVE",
"679 143 OFFCURVE",
"457 136 CURVE"
);
}
);
width = 831;
}
);
leftKerningGroup = O;
leftMetricsKey = O;
rightKerningGroup = O;
rightMetricsKey = O;
unicode = 0424;
},
{
glyphname = "Che-cy";
lastChange = "2020-04-19 16:54:39 +0000";
layers = (
{
background = {
paths = (
{
closed = 1;
nodes = (
"627 0 LINE",
"627 720 LINE",
"490 720 LINE",
"490 359 LINE",
"505 420 LINE",
"480 387 OFFCURVE",
"428 360 OFFCURVE",
"352 360 CURVE SMOOTH",
"316 360 OFFCURVE",
"275 366 OFFCURVE",
"249 402 CURVE SMOOTH",
"219 444 OFFCURVE",
"219 514 OFFCURVE",
"219 554 CURVE SMOOTH",
"219 720 LINE",
"81 720 LINE",
"81 523 LINE SMOOTH",
"81 468 OFFCURVE",
"81 383 OFFCURVE",
"133 314 CURVE SMOOTH",
"181 251 OFFCURVE",
"249 232 OFFCURVE",
"325 232 CURVE SMOOTH",
"398 232 OFFCURVE",
"472 250 OFFCURVE",
"509 283 CURVE",
"490 314 LINE",
"490 0 LINE"
);
}
);
};
layerId = "1C9972D2-AAA2-4EE5-9F28-188B121D2056";
paths = (
{
closed = 1;
nodes = (
"515 0 LINE",
"597 0 LINE",
"598 713 LINE",
"515 713 LINE",
"515 390 LINE",
"502 376 OFFCURVE",
"486 363 OFFCURVE",
"468 352 CURVE SMOOTH",
"437 333 OFFCURVE",
"392 315 OFFCURVE",
"335 315 CURVE SMOOTH",
"224 315 OFFCURVE",
"167 377 OFFCURVE",
"167 490 CURVE SMOOTH",
"167 713 LINE",
"85 713 LINE",
"85 490 LINE SMOOTH",
"85 338 OFFCURVE",
"178 235 OFFCURVE",
"325 235 CURVE SMOOTH",
"382 235 OFFCURVE",
"430 250 OFFCURVE",
"463 265 CURVE SMOOTH",
"482 274 OFFCURVE",
"500 284 OFFCURVE",
"515 295 CURVE"
);
}
);
width = 683;
}
);
leftKerningGroup = M;
leftMetricsKey = M;
rightKerningGroup = N;
rightMetricsKey = M;
unicode = 0427;
},
{
glyphname = "Tse-cy";
lastChange = "2020-04-19 16:54:39 +0000";
layers = (
{
layerId = "1C9972D2-AAA2-4EE5-9F28-188B121D2056";
paths = (
{
closed = 1;
nodes = (
"696 -175 LINE",
"696 76 LINE",
"614 76 LINE",
"614 713 LINE",
"533 713 LINE",
"532 76 LINE",
"167 76 LINE",
"166 720 LINE",
"85 720 LINE",
"85 0 LINE",
"618 0 LINE",
"622 -175 LINE"
);
}
);
width = 726;
}
);
leftKerningGroup = H;
leftMetricsKey = H;
rightKerningGroup = "tse-cy";
rightMetricsKey = "tse-cy";
unicode = 0426;
},
{
glyphname = "Sha-cy";
lastChange = "2020-04-19 16:54:39 +0000";
layers = (
{
layerId = "1C9972D2-AAA2-4EE5-9F28-188B121D2056";
paths = (
{
closed = 1;
nodes = (
"892 0 LINE",
"892 713 LINE",
"810 713 LINE",
"810 74 LINE",
"511 74 LINE",
"511 713 LINE",
"429 713 LINE",
"429 74 LINE",
"167 74 LINE",
"167 713 LINE",
"85 713 LINE",
"85 0 LINE"
);
}
);
width = 977;
}
);
leftKerningGroup = H;
leftMetricsKey = H;
rightKerningGroup = H;
rightMetricsKey = H;
unicode = 0428;
},
{
glyphname = "Shcha-cy";
lastChange = "2020-04-19 16:54:39 +0000";
layers = (
{
components = (
{
name = "Sha-cy";
}
);
layerId = "1C9972D2-AAA2-4EE5-9F28-188B121D2056";
paths = (
{
closed = 1;
nodes = (
"963 -174 LINE",
"963 73 LINE",
"733 73 LINE",
"733 0 LINE",
"885 0 LINE",
"888 -174 LINE"
);
}
);
width = 1023;
}
);
leftKerningGroup = H;
leftMetricsKey = H;
rightKerningGroup = "tse-cy";
unicode = 0429;
},
{
glyphname = "Dzhe-cy";
lastChange = "2020-04-19 16:54:39 +0000";
layers = (
{
layerId = "1C9972D2-AAA2-4EE5-9F28-188B121D2056";
paths = (
{
closed = 1;
nodes = (
"419 -120 LINE",
"419 0 LINE",
"671 0 LINE",
"671 713 LINE",
"589 713 LINE",
"589 76 LINE",
"167 76 LINE",
"167 713 LINE",
"85 713 LINE",
"85 0 LINE",
"337 0 LINE",
"337 -120 LINE"
);
}
);
width = 756;
}
);
leftKerningGroup = "Sha-cy";
leftMetricsKey = "Sha-cy";
rightKerningGroup = "Sha-cy";
rightMetricsKey = "Sha-cy";
unicode = 040F;
},
{
glyphname = "Softsign-cy";
lastChange = "2020-04-19 16:54:39 +0000";
layers = (
{
layerId = "1C9972D2-AAA2-4EE5-9F28-188B121D2056";
paths = (
{
closed = 1;
nodes = (
"303 0 LINE SMOOTH",
"317 0 OFFCURVE",
"342 0 OFFCURVE",
"361 4 CURVE SMOOTH",
"489 31 OFFCURVE",
"552 114 OFFCURVE",
"552 235 CURVE SMOOTH",
"552 356 OFFCURVE",
"477 437 OFFCURVE",
"373 459 CURVE SMOOTH",
"354 463 OFFCURVE",
"326 464 OFFCURVE",
"313 464 CURVE SMOOTH",
"165 464 LINE",
"165 713 LINE",
"85 713 LINE",
"85 0 LINE"
);
},
{
closed = 1;
nodes = (
"165 388 LINE",
"307 388 LINE SMOOTH",
"321 388 OFFCURVE",
"340 388 OFFCURVE",
"354 384 CURVE SMOOTH",
"409 368 OFFCURVE",
"470 329 OFFCURVE",
"470 237 CURVE SMOOTH",
"470 124 OFFCURVE",
"409 97 OFFCURVE",
"354 81 CURVE SMOOTH",
"340 77 OFFCURVE",
"321 77 OFFCURVE",
"307 77 CURVE SMOOTH",
"165 76 LINE"
);
}
);
width = 602;
}
);
leftKerningGroup = H;
leftMetricsKey = H;
rightKerningGroup = B;
rightMetricsKey = b;
unicode = 042C;
},
{
glyphname = "Hardsign-cy";
lastChange = "2020-04-19 16:54:39 +0000";
layers = (
{
layerId = "1C9972D2-AAA2-4EE5-9F28-188B121D2056";
paths = (
{
closed = 1;
nodes = (
"389 0 LINE SMOOTH",
"403 0 OFFCURVE",
"428 0 OFFCURVE",
"447 4 CURVE SMOOTH",
"575 31 OFFCURVE",
"638 114 OFFCURVE",
"638 235 CURVE SMOOTH",
"638 356 OFFCURVE",
"563 437 OFFCURVE",
"459 459 CURVE SMOOTH",
"440 463 OFFCURVE",
"412 464 OFFCURVE",
"399 464 CURVE SMOOTH",
"251 464 LINE",
"251 713 LINE",
"15 713 LINE",
"15 637 LINE",
"169 637 LINE",
"169 0 LINE"
);
},
{
closed = 1;
nodes = (
"251 388 LINE",
"393 388 LINE SMOOTH",
"407 388 OFFCURVE",
"426 388 OFFCURVE",
"440 384 CURVE SMOOTH",
"495 368 OFFCURVE",
"556 329 OFFCURVE",
"556 237 CURVE SMOOTH",
"556 124 OFFCURVE",
"495 97 OFFCURVE",
"440 81 CURVE SMOOTH",
"426 77 OFFCURVE",
"407 76 OFFCURVE",
"393 76 CURVE SMOOTH",
"251 76 LINE"
);
}
);
width = 673;
}
);
leftKerningGroup = T;
rightKerningGroup = B;
unicode = 042A;
},
{
glyphname = "Nje-cy";
lastChange = "2020-04-19 16:54:39 +0000";
layers = (
{
components = (
{
alignment = -1;
name = "Softsign-cy";
transform = "{1, 0, 0, 1, 461, 0}";
}
);
layerId = "1C9972D2-AAA2-4EE5-9F28-188B121D2056";
paths = (
{
closed = 1;
nodes = (
"167 0 LINE",
"167 381 LINE",
"593 381 LINE",
"593 457 LINE",
"167 457 LINE",
"167 720 LINE",
"85 720 LINE",
"85 0 LINE"
);
}
);
width = 1063;
}
);
leftKerningGroup = "En-cy";
leftMetricsKey = "En-cy";
rightKerningGroup = "Softsign-cy";
rightMetricsKey = "Softsign-cy";
unicode = 040A;
},
{
glyphname = "Ereversed-cy";
lastChange = "2020-04-19 16:54:39 +0000";
layers = (
{
layerId = "1C9972D2-AAA2-4EE5-9F28-188B121D2056";
paths = (
{
closed = 1;
nodes = (
"558 -6 OFFCURVE",
"705 164 OFFCURVE",
"705 360 CURVE SMOOTH",
"705 564 OFFCURVE",
"544 726 OFFCURVE",
"335 726 CURVE SMOOTH",
"173 726 OFFCURVE",
"84 628 OFFCURVE",
"47 574 CURVE",
"99 526 LINE",
"159 595 OFFCURVE",
"214 649 OFFCURVE",
"342 649 CURVE SMOOTH",
"499 649 OFFCURVE",
"605 533 OFFCURVE",
"623 402 CURVE",
"278 401 LINE",
"277 324 LINE",
"622 325 LINE",
"615 251 OFFCURVE",
"583 205 OFFCURVE",
"552 163 CURVE SMOOTH",
"517 116 OFFCURVE",
"438 67 OFFCURVE",
"332 68 CURVE SMOOTH",
"244 69 OFFCURVE",
"157 104 OFFCURVE",
"94 191 CURVE",
"40 141 LINE",
"78 91 OFFCURVE",
"180 -11 OFFCURVE",
"335 -9 CURVE SMOOTH"
);
}
);
width = 745;
}
);
leftKerningGroup = X;
leftMetricsKey = O;
rightKerningGroup = O;
rightMetricsKey = O;
unicode = 042D;
},
{
glyphname = "Tshe-cy";
lastChange = "2020-04-19 16:54:39 +0000";
layers = (
{
components = (
{
name = "Shha-cy";
}
);
layerId = "1C9972D2-AAA2-4EE5-9F28-188B121D2056";
paths = (
{
closed = 1;
nodes = (
"360 637 LINE",
"360 713 LINE",
"0 713 LINE",
"0 637 LINE"
);
}
);
width = 683;
}
);
leftKerningGroup = V;
rightKerningGroup = B;
rightMetricsKey = "Shha-cy";
unicode = 040B;
},
{
glyphname = "Iu-cy";
lastChange = "2020-04-19 16:54:39 +0000";
layers = (
{
components = (
{
name = O;
transform = "{1, 0, 0, 1, 261, 3}";
}
);
layerId = "1C9972D2-AAA2-4EE5-9F28-188B121D2056";
paths = (
{
closed = 1;
nodes = (
"169 0 LINE",
"169 342 LINE",
"355 342 LINE",
"355 415 LINE",
"169 415 LINE",
"169 713 LINE",
"85 713 LINE",
"85 0 LINE"
);
}
);
width = 1042;
}
);
leftKerningGroup = H;
leftMetricsKey = H;
rightKerningGroup = O;
rightMetricsKey = O;
unicode = 042E;
},
{
glyphname = "Ia-cy";
lastChange = "2020-04-19 16:54:39 +0000";
layers = (
{
layerId = "1C9972D2-AAA2-4EE5-9F28-188B121D2056";
paths = (
{
closed = 1;
nodes = (
"590 713 LINE",
"294 713 LINE SMOOTH",
"189 713 OFFCURVE",
"91 634 OFFCURVE",
"91 521 CURVE SMOOTH",
"91 430 OFFCURVE",
"156 348 OFFCURVE",
"244 326 CURVE",
"229 302 LINE",
"40 14 LINE",
"40 0 LINE",
"124 0 LINE",
"329 314 LINE",
"508 314 LINE",
"508 0 LINE",
"590 0 LINE"
);
},
{
closed = 1;
nodes = (
"305 388 LINE SMOOTH",
"254 388 OFFCURVE",
"175 433 OFFCURVE",
"175 521 CURVE SMOOTH",
"175 581 OFFCURVE",
"223 637 OFFCURVE",
"301 637 CURVE SMOOTH",
"508 637 LINE",
"508 388 LINE"
);
}
);
width = 675;
}
);
leftKerningGroup = N;
rightKerningGroup = N;
unicode = 042F;
},
{
glyphname = "Dje-cy";
lastChange = "2020-04-19 16:54:39 +0000";
layers = (
{
layerId = "1C9972D2-AAA2-4EE5-9F28-188B121D2056";
paths = (
{
closed = 1;
nodes = (
"189 0 LINE",
"189 221 LINE SMOOTH",
"189 256 OFFCURVE",
"193 289 OFFCURVE",
"200 311 CURVE SMOOTH",
"221 376 OFFCURVE",
"283 414 OFFCURVE",
"367 414 CURVE SMOOTH",
"475 414 OFFCURVE",
"536 351 OFFCURVE",
"536 240 CURVE SMOOTH",
"536 142 OFFCURVE",
"489 84 OFFCURVE",
"401 74 CURVE",
"401 -10 LINE",
"546 0 OFFCURVE",
"618 84 OFFCURVE",
"618 241 CURVE SMOOTH",
"618 404 OFFCURVE",
"539 491 OFFCURVE",
"387 491 CURVE SMOOTH",
"296 491 OFFCURVE",
"237 457 OFFCURVE",
"196 396 CURVE",
"182 396 LINE",
"182 637 LINE",
"332 637 LINE",
"332 713 LINE",
"28 713 LINE",
"28 637 LINE",
"107 637 LINE",
"107 0 LINE"
);
}
);
width = 668;
}
);
leftKerningGroup = T;
rightKerningGroup = b;
rightMetricsKey = b;
unicode = 0402;
},
{
glyphname = "Obarred-cy";
lastChange = "2020-04-19 16:54:39 +0000";
layers = (
{
components = (
{
name = O;
}
);
layerId = "1C9972D2-AAA2-4EE5-9F28-188B121D2056";
paths = (
{
closed = 1;
nodes = (
"695 311 LINE",
"695 387 LINE",
"85 387 LINE",
"85 311 LINE"
);
}
);
width = 781;
}
);
leftKerningGroup = O;
leftMetricsKey = O;
rightKerningGroup = O;
rightMetricsKey = O;
unicode = 04E8;
},
{
glyphname = "be-cy";
lastChange = "2020-04-19 16:54:39 +0000";
layers = (
{
layerId = "1C9972D2-AAA2-4EE5-9F28-188B121D2056";
paths = (
{
closed = 1;
nodes = (
"408 -11 OFFCURVE",
"540 78 OFFCURVE",
"540 237 CURVE SMOOTH",
"540 360 OFFCURVE",
"445 482 OFFCURVE",
"298 482 CURVE SMOOTH",
"238 482 OFFCURVE",
"171 458 OFFCURVE",
"123 392 CURVE",
"131 495 OFFCURVE",
"164 533 OFFCURVE",
"204 570 CURVE SMOOTH",
"275 634 OFFCURVE",
"409 627 OFFCURVE",
"509 695 CURVE",
"469 757 LINE",
"380 694 OFFCURVE",
"261 706 OFFCURVE",
"169 638 CURVE SMOOTH",
"131 610 OFFCURVE",
"101 568 OFFCURVE",
"79 522 CURVE SMOOTH",
"45 448 OFFCURVE",
"40 340 OFFCURVE",
"48 255 CURVE SMOOTH",
"64 91 OFFCURVE",
"145 -11 OFFCURVE",
"298 -11 CURVE SMOOTH"
);
},
{
closed = 1;
nodes = (
"184 61 OFFCURVE",
"123 143 OFFCURVE",
"123 240 CURVE SMOOTH",
"123 333 OFFCURVE",
"196 411 OFFCURVE",
"295 410 CURVE SMOOTH",
"396 409 OFFCURVE",
"462 322 OFFCURVE",
"462 238 CURVE SMOOTH",
"462 153 OFFCURVE",
"397 63 OFFCURVE",
"299 62 CURVE SMOOTH"
);
}
);
width = 590;
}
);
leftKerningGroup = "be-cy";
leftMetricsKey = o;
rightKerningGroup = o;
rightMetricsKey = b;
unicode = 0431;
},
{
glyphname = "ve-cy";
lastChange = "2020-04-19 16:54:39 +0000";
layers = (
{
layerId = "1C9972D2-AAA2-4EE5-9F28-188B121D2056";
paths = (
{
closed = 1;
nodes = (
"274 0 LINE SMOOTH",
"309 0 OFFCURVE",
"345 -1 OFFCURVE",
"369 6 CURVE SMOOTH",
"439 26 OFFCURVE",
"473 75 OFFCURVE",
"474 137 CURVE SMOOTH",
"475 193 OFFCURVE",
"442 240 OFFCURVE",
"379 250 CURVE",
"415 259 OFFCURVE",
"450 308 OFFCURVE",
"452 355 CURVE SMOOTH",
"455 425 OFFCURVE",
"408 463 OFFCURVE",
"359 478 CURVE SMOOTH",
"339 484 OFFCURVE",
"317 483 OFFCURVE",
"276 483 CURVE SMOOTH",
"75 483 LINE",
"75 0 LINE"
);
},
{
closed = 1;
nodes = (
"153 211 LINE",
"314 211 LINE SMOOTH",
"363 211 OFFCURVE",
"394 187 OFFCURVE",
"394 140 CURVE SMOOTH",
"394 96 OFFCURVE",
"357 70 OFFCURVE",
"314 70 CURVE SMOOTH",
"153 70 LINE"
);
},
{
closed = 1;
nodes = (
"153 413 LINE",
"283 413 LINE SMOOTH",
"329 413 OFFCURVE",
"377 405 OFFCURVE",
"377 352 CURVE SMOOTH",
"377 300 OFFCURVE",
"341 283 OFFCURVE",
"289 283 CURVE SMOOTH",
"153 283 LINE"
);
}
);
width = 539;
},
{
associatedMasterId = "1C9972D2-AAA2-4EE5-9F28-188B121D2056";
layerId = "A2873047-0ED6-4C67-9B4D-3870B51BD5C6";
name = "new Layer";
width = 600;
}
);
leftKerningGroup = n;
rightKerningGroup = ve;
unicode = 0432;
},
{
glyphname = "ge-cy";
lastChange = "2020-04-19 16:54:39 +0000";
layers = (
{
layerId = "1C9972D2-AAA2-4EE5-9F28-188B121D2056";
paths = (
{
closed = 1;
nodes = (
"158 0 LINE",
"158 411 LINE",
"418 411 LINE",
"418 483 LINE",
"80 483 LINE",
"80 0 LINE"
);
}
);
width = 483;
}
);
leftKerningGroup = r;
leftMetricsKey = r;
rightKerningGroup = r;
rightMetricsKey = r;
unicode = 0433;
},
{
glyphname = "gheupturn-cy";
lastChange = "2020-04-19 16:54:39 +0000";
layers = (
{
components = (
{
name = "ge-cy";
}
);
layerId = "1C9972D2-AAA2-4EE5-9F28-188B121D2056";
paths = (
{
closed = 1;
nodes = (
"323 411 LINE",
"401 411 LINE",
"401 591 LINE",
"323 591 LINE"
);
}
);
width = 428;
}
);
leftKerningGroup = r;
rightKerningGroup = r;
unicode = 0491;
},
{
glyphname = "de-cy";
lastChange = "2020-04-19 16:54:39 +0000";
layers = (
{
layerId = "1C9972D2-AAA2-4EE5-9F28-188B121D2056";
paths = (
{
closed = 1;
nodes = (
"90 -156 LINE",
"90 0 LINE",
"486 0 LINE",
"486 -155 LINE",
"558 -155 LINE",
"558 66 LINE",
"492 66 LINE",
"492 483 LINE",
"127 483 LINE",
"122 378 OFFCURVE",
"122 285 OFFCURVE",
"111 199 CURVE SMOOTH",
"98 97 OFFCURVE",
"71 65 OFFCURVE",
"52 65 CURVE",
"15 65 LINE",
"15 -156 LINE"
);
},
{
closed = 1;
nodes = (
"171 113 OFFCURVE",
"174 154 OFFCURVE",
"183 212 CURVE SMOOTH",
"192 271 OFFCURVE",
"190 338 OFFCURVE",
"195 411 CURVE",
"414 411 LINE",
"414 66 LINE",
"141 65 LINE"
);
}
);
width = 597;
}
);
leftKerningGroup = o;
rightKerningGroup = v;
unicode = 0434;
},
{
glyphname = "zhe-cy";
lastChange = "2020-04-19 16:54:39 +0000";
layers = (
{
layerId = "1C9972D2-AAA2-4EE5-9F28-188B121D2056";
paths = (
{
closed = 1;
nodes = (
"668 0 LINE",
"468 284 LINE",
"468 223 LINE",
"657 483 LINE",
"570 483 LINE",
"418 276 LINE",
"418 230 LINE",
"581 0 LINE"
);
},
{
closed = 1;
nodes = (
"102 0 LINE",
"265 230 LINE",
"265 276 LINE",
"116 483 LINE",
"26 483 LINE",
"215 226 LINE",
"215 282 LINE",
"15 0 LINE"
);
},
{
closed = 1;
nodes = (
"379 0 LINE",
"379 483 LINE",
"303 483 LINE",
"303 0 LINE"
);
},
{
closed = 1;
nodes = (
"460 218 LINE",
"460 290 LINE",
"222 290 LINE",
"222 218 LINE"
);
}
);
width = 683;
}
);
leftKerningGroup = x;
leftMetricsKey = w;
rightKerningGroup = x;
rightMetricsKey = w;
unicode = 0436;
},
{
glyphname = "ze-cy";
lastChange = "2020-04-19 16:54:39 +0000";
layers = (
{
background = {
paths = (
{
closed = 1;
nodes = (
"100 377 LINE",
"117 389 OFFCURVE",
"137 401 OFFCURVE",
"153 408 CURVE SMOOTH",
"177 419 OFFCURVE",
"211 429 OFFCURVE",
"241 429 CURVE SMOOTH",
"258 429 OFFCURVE",
"273 426 OFFCURVE",
"284 420 CURVE SMOOTH",
"302 410 OFFCURVE",
"307 395 OFFCURVE",
"307 379 CURVE SMOOTH",
"307 360 OFFCURVE",
"299 339 OFFCURVE",
"261 334 CURVE SMOOTH",
"246 332 OFFCURVE",
"222 331 OFFCURVE",
"206 331 CURVE SMOOTH",
"174 331 LINE",
"174 225 LINE",
"206 225 LINE SMOOTH",
"224 225 OFFCURVE",
"255 226 OFFCURVE",
"271 225 CURVE SMOOTH",
"301 223 OFFCURVE",
"326 205 OFFCURVE",
"326 174 CURVE SMOOTH",
"326 155 OFFCURVE",
"316 136 OFFCURVE",
"295 124 CURVE SMOOTH",
"281 116 OFFCURVE",
"266 112 OFFCURVE",
"244 112 CURVE SMOOTH",
"220 112 OFFCURVE",
"184 117 OFFCURVE",
"155 135 CURVE SMOOTH",
"142 143 OFFCURVE",
"120 161 OFFCURVE",
"107 174 CURVE",
"0 102 LINE",
"18 75 OFFCURVE",
"59 38 OFFCURVE",
"94 19 CURVE SMOOTH",
"131 -1 OFFCURVE",
"181 -15 OFFCURVE",
"241 -15 CURVE SMOOTH",
"283 -15 OFFCURVE",
"338 -8 OFFCURVE",
"386 22 CURVE SMOOTH",
"440 56 OFFCURVE",
"465 105 OFFCURVE",
"465 162 CURVE SMOOTH",
"465 214 OFFCURVE",
"444 256 OFFCURVE",
"409 284 CURVE",
"436 319 OFFCURVE",
"447 355 OFFCURVE",
"447 392 CURVE SMOOTH",
"447 446 OFFCURVE",
"423 490 OFFCURVE",
"382 517 CURVE SMOOTH",
"341 545 OFFCURVE",
"281 555 OFFCURVE",
"240 555 CURVE SMOOTH",
"197 555 OFFCURVE",
"156 544 OFFCURVE",
"121 529 CURVE SMOOTH",
"80 511 OFFCURVE",
"54 494 OFFCURVE",
"25 470 CURVE"
);
}
);
};
layerId = "1C9972D2-AAA2-4EE5-9F28-188B121D2056";
paths = (
{
closed = 1;
nodes = (
"346 -12 OFFCURVE",
"444 33 OFFCURVE",
"444 140 CURVE SMOOTH",
"444 220 OFFCURVE",
"365 258 OFFCURVE",
"302 258 CURVE",
"301 240 LINE",
"397 250 OFFCURVE",
"423 310 OFFCURVE",
"423 356 CURVE SMOOTH",
"423 427 OFFCURVE",
"352 494 OFFCURVE",
"241 494 CURVE SMOOTH",
"154 494 OFFCURVE",
"98 460 OFFCURVE",
"55 421 CURVE",
"114 367 LINE",
"158 411 OFFCURVE",
"202 423 OFFCURVE",
"245 423 CURVE SMOOTH",
"285 423 OFFCURVE",
"340 411 OFFCURVE",
"340 356 CURVE SMOOTH",
"340 312 OFFCURVE",
"294 284 OFFCURVE",
"252 284 CURVE SMOOTH",
"180 284 LINE",
"180 213 LINE",
"252 213 LINE SMOOTH",
"299 213 OFFCURVE",
"362 193 OFFCURVE",
"362 135 CURVE SMOOTH",
"362 71 OFFCURVE",
"292 58 OFFCURVE",
"235 58 CURVE SMOOTH",
"188 58 OFFCURVE",
"136 82 OFFCURVE",
"96 125 CURVE",
"45 76 LINE",
"60 49 OFFCURVE",
"132 -12 OFFCURVE",
"239 -12 CURVE SMOOTH"
);
}
);
width = 489;
}
);
leftKerningGroup = x;
leftMetricsKey = o;
rightKerningGroup = "ze-cy";
rightMetricsKey = o;
unicode = 0437;
},
{
glyphname = "ii-cy";
lastChange = "2020-04-19 16:54:59 +0000";
layers = (
{
layerId = "1C9972D2-AAA2-4EE5-9F28-188B121D2056";
paths = (
{
closed = 1;
nodes = (
"424 483 LINE",
"150 118 LINE",
"150 483 LINE",
"75 483 LINE",
"75 0 LINE",
"149 0 LINE",
"424 373 LINE",
"424 0 LINE",
"499 0 LINE",
"499 483 LINE"
);
}
);
width = 574;
}
);
leftKerningGroup = n;
leftMetricsKey = n;
rightKerningGroup = u;
rightMetricsKey = u;
unicode = 0438;
},
{
glyphname = "ka-cy";
lastChange = "2020-04-19 16:54:59 +0000";
layers = (
{
layerId = "1C9972D2-AAA2-4EE5-9F28-188B121D2056";
paths = (
{
closed = 1;
nodes = (
"75 483 LINE",
"153 483 LINE",
"153 288 LINE",
"233 288 LINE",
"233 216 LINE",
"153 216 LINE",
"153 0 LINE",
"75 0 LINE"
);
},
{
closed = 1;
nodes = (
"380 483 LINE",
"470 483 LINE",
"240 226 LINE",
"240 281 LINE",
"488 0 LINE",
"395 0 LINE",
"196 227 LINE",
"196 275 LINE"
);
}
);
width = 493;
}
);
leftKerningGroup = k;
leftMetricsKey = k;
rightKerningGroup = k;
rightMetricsKey = k;
unicode = 043A;
},
{
glyphname = "el-cy";
lastChange = "2020-04-19 16:54:59 +0000";
layers = (
{
layerId = "1C9972D2-AAA2-4EE5-9F28-188B121D2056";
paths = (
{
closed = 1;
nodes = (
"130 -32 OFFCURVE",
"171 26 OFFCURVE",
"195 172 CURVE SMOOTH",
"206 239 OFFCURVE",
"210 351 OFFCURVE",
"214 411 CURVE",
"416 411 LINE",
"416 0 LINE",
"494 0 LINE",
"494 483 LINE",
"140 483 LINE",
"134 356 OFFCURVE",
"135 240 OFFCURVE",
"119 154 CURVE SMOOTH",
"107 89 OFFCURVE",
"89 47 OFFCURVE",
"30 58 CURVE",
"20 -9 LINE"
);
}
);
width = 569;
}
);
leftKerningGroup = o;
rightKerningGroup = u;
rightMetricsKey = u;
unicode = 043B;
},
{
glyphname = "em-cy";
lastChange = "2020-04-19 16:54:59 +0000";
layers = (
{
layerId = "1C9972D2-AAA2-4EE5-9F28-188B121D2056";
paths = (
{
closed = 1;
nodes = (
"151 0 LINE",
"151 377 LINE",
"318 162 LINE",
"348 162 LINE",
"516 380 LINE",
"516 0 LINE",
"592 0 LINE",
"592 483 LINE",
"509 483 LINE",
"333 257 LINE",
"159 483 LINE",
"75 483 LINE",
"75 0 LINE"
);
}
);
width = 667;
}
);
leftKerningGroup = m;
leftMetricsKey = m;
rightKerningGroup = u;
rightMetricsKey = u;
unicode = 043C;
},
{
glyphname = "en-cy";
lastChange = "2020-04-19 16:54:59 +0000";
layers = (
{
layerId = "1C9972D2-AAA2-4EE5-9F28-188B121D2056";
paths = (
{
closed = 1;
nodes = (
"153 0 LINE",
"153 216 LINE",
"412 216 LINE",
"412 0 LINE",
"490 0 LINE",
"490 483 LINE",
"413 483 LINE",
"412 288 LINE",
"153 288 LINE",
"153 483 LINE",
"75 483 LINE",
"75 0 LINE"
);
}
);
width = 565;
}
);
leftKerningGroup = n;
leftMetricsKey = m;
rightKerningGroup = u;
rightMetricsKey = u;
unicode = 043D;
},
{
glyphname = "pe-cy";
lastChange = "2020-04-19 16:54:59 +0000";
layers = (
{
layerId = "1C9972D2-AAA2-4EE5-9F28-188B121D2056";
paths = (
{
closed = 1;
nodes = (
"153 0 LINE",
"153 411 LINE",
"411 411 LINE",
"411 0 LINE",
"489 0 LINE",
"489 483 LINE",
"75 483 LINE",
"75 0 LINE"
);
}
);
width = 564;
}
);
leftKerningGroup = n;
leftMetricsKey = n;
rightKerningGroup = u;
rightMetricsKey = u;
unicode = 043F;
},
{
glyphname = "te-cy";
lastChange = "2020-04-19 16:54:59 +0000";
layers = (
{
layerId = "1C9972D2-AAA2-4EE5-9F28-188B121D2056";
paths = (
{
closed = 1;
nodes = (
"268 0 LINE",
"268 412 LINE",
"440 411 LINE",
"440 483 LINE",
"20 483 LINE",
"20 411 LINE",
"190 411 LINE",
"190 0 LINE"
);
}
);
width = 460;
}
);
leftKerningGroup = te;
rightKerningGroup = r;
unicode = 0442;
},
{
glyphname = "ef-cy";
lastChange = "2020-04-19 16:54:59 +0000";
layers = (
{
layerId = "1C9972D2-AAA2-4EE5-9F28-188B121D2056";
paths = (
{
closed = 1;
nodes = (
"384 -230 LINE",
"384 -9 LINE",
"529 -5 OFFCURVE",
"643 82 OFFCURVE",
"643 239 CURVE SMOOTH",
"643 343 OFFCURVE",
"581 473 OFFCURVE",
"385 483 CURVE",
"385 713 LINE",
"309 713 LINE",
"309 483 LINE",
"130 483 OFFCURVE",
"45 355 OFFCURVE",
"45 243 CURVE SMOOTH",
"45 43 OFFCURVE",
"201 0 OFFCURVE",
"307 -9 CURVE",
"307 -230 LINE"
);
},
{
closed = 1;
nodes = (
"195 52 OFFCURVE",
"125 136 OFFCURVE",
"125 239 CURVE SMOOTH",
"125 342 OFFCURVE",
"186 417 OFFCURVE",
"307 417 CURVE",
"307 60 LINE"
);
},
{
closed = 1;
nodes = (
"384 417 LINE",
"492 417 OFFCURVE",
"563 345 OFFCURVE",
"563 239 CURVE SMOOTH",
"563 133 OFFCURVE",
"496 55 OFFCURVE",
"384 60 CURVE"
);
}
);
width = 688;
}
);
leftKerningGroup = o;
leftMetricsKey = o;
rightKerningGroup = o;
rightMetricsKey = o;
unicode = 0444;
},
{
glyphname = "che-cy";
lastChange = "2020-04-19 16:54:59 +0000";
layers = (
{
layerId = "1C9972D2-AAA2-4EE5-9F28-188B121D2056";
paths = (
{
closed = 1;
nodes = (
"364 0 LINE",
"442 0 LINE",
"442 483 LINE",
"364 483 LINE",
"364 274 LINE",
"353 265 OFFCURVE",
"342 258 OFFCURVE",
"329 251 CURVE SMOOTH",
"307 239 OFFCURVE",
"273 228 OFFCURVE",
"233 228 CURVE SMOOTH",
"162 228 OFFCURVE",
"124 278 OFFCURVE",
"124 349 CURVE SMOOTH",
"124 483 LINE",
"48 483 LINE",
"48 342 LINE SMOOTH",
"48 232 OFFCURVE",
"118 156 OFFCURVE",
"228 156 CURVE SMOOTH",
"268 156 OFFCURVE",
"302 166 OFFCURVE",
"326 176 CURVE SMOOTH",
"340 182 OFFCURVE",
"353 189 OFFCURVE",
"364 196 CURVE"
);
}
);
width = 517;
}
);
leftKerningGroup = n;
leftMetricsKey = d;
rightKerningGroup = u;
rightMetricsKey = u;
unicode = 0447;
},
{
glyphname = "tse-cy";
lastChange = "2020-04-19 16:54:59 +0000";
layers = (
{
layerId = "1C9972D2-AAA2-4EE5-9F28-188B121D2056";
paths = (
{
closed = 1;
nodes = (
"549 -153 LINE",
"549 72 LINE",
"479 72 LINE",
"479 483 LINE",
"401 483 LINE",
"401 71 LINE",
"153 71 LINE",
"153 483 LINE",
"75 483 LINE",
"75 0 LINE",
"475 0 LINE",
"475 -154 LINE"
);
}
);
width = 579;
}
);
leftKerningGroup = n;
leftMetricsKey = n;
rightKerningGroup = "tse-cy";
unicode = 0446;
},
{
glyphname = "sha-cy";
lastChange = "2020-04-19 16:54:59 +0000";
layers = (
{
layerId = "1C9972D2-AAA2-4EE5-9F28-188B121D2056";
paths = (
{
closed = 1;
nodes = (
"701 0 LINE",
"701 483 LINE",
"623 483 LINE",
"623 72 LINE",
"426 72 LINE",
"426 483 LINE",
"347 483 LINE",
"347 72 LINE",
"153 72 LINE",
"152 483 LINE",
"75 483 LINE",
"75 0 LINE"
);
}
);
width = 776;
}
);
leftKerningGroup = n;
leftMetricsKey = m;
rightKerningGroup = u;
rightMetricsKey = u;
unicode = 0448;
},
{
glyphname = "shcha-cy";
lastChange = "2020-04-19 16:54:59 +0000";
layers = (
{
components = (
{
name = "sha-cy";
}
);
layerId = "1C9972D2-AAA2-4EE5-9F28-188B121D2056";
paths = (
{
closed = 1;
nodes = (
"784 -154 LINE",
"784 72 LINE",
"639 72 LINE",
"638 0 LINE",
"711 0 LINE",
"710 -154 LINE"
);
}
);
width = 814;
}
);
leftKerningGroup = n;
leftMetricsKey = n;
rightKerningGroup = "tse-cy";
rightMetricsKey = "tse-cy";
unicode = 0449;
},
{
glyphname = "dzhe-cy";
lastChange = "2020-04-19 16:54:59 +0000";
layers = (
{
layerId = "1C9972D2-AAA2-4EE5-9F28-188B121D2056";
paths = (
{
closed = 1;
nodes = (
"332 -120 LINE",
"332 0 LINE",
"499 0 LINE",
"499 483 LINE",
"421 483 LINE",
"421 72 LINE",
"153 72 LINE",
"153 483 LINE",
"75 483 LINE",
"75 0 LINE",
"254 0 LINE",
"254 -120 LINE"
);
}
);
width = 574;
}
);
leftKerningGroup = "sha-cy";
leftMetricsKey = "sha-cy";
rightKerningGroup = "sha-cy";
rightMetricsKey = "sha-cy";
unicode = 045F;
},
{
glyphname = "softsign-cy";
lastChange = "2020-04-19 16:54:59 +0000";
layers = (
{
layerId = "1C9972D2-AAA2-4EE5-9F28-188B121D2056";
paths = (
{
closed = 1;
nodes = (
"202 0 LINE SMOOTH",
"232 0 OFFCURVE",
"268 2 OFFCURVE",
"294 2 CURVE SMOOTH",
"367 2 OFFCURVE",
"450 59 OFFCURVE",
"450 166 CURVE SMOOTH",
"450 242 OFFCURVE",
"404 315 OFFCURVE",
"315 329 CURVE SMOOTH",
"289 333 OFFCURVE",
"269 333 OFFCURVE",
"238 333 CURVE SMOOTH",
"155 333 LINE",
"155 483 LINE",
"75 483 LINE",
"75 0 LINE"
);
},
{
closed = 1;
nodes = (
"155 261 LINE",
"247 261 LINE SMOOTH",
"258 261 OFFCURVE",
"282 260 OFFCURVE",
"296 256 CURVE SMOOTH",
"325 248 OFFCURVE",
"369 238 OFFCURVE",
"369 166 CURVE SMOOTH",
"369 128 OFFCURVE",
"358 94 OFFCURVE",
"312 78 CURVE SMOOTH",
"298 73 OFFCURVE",
"272 72 OFFCURVE",
"259 72 CURVE SMOOTH",
"155 72 LINE"
);
}
);
width = 500;
}
);
leftKerningGroup = n;
leftMetricsKey = n;
rightKerningGroup = b;
rightMetricsKey = b;
unicode = 044C;
},
{
glyphname = "hardsign-cy";
lastChange = "2020-04-19 16:54:59 +0000";
layers = (
{
layerId = "1C9972D2-AAA2-4EE5-9F28-188B121D2056";
paths = (
{
closed = 1;
nodes = (
"221 0 LINE SMOOTH",
"251 0 OFFCURVE",
"330 2 OFFCURVE",
"356 2 CURVE SMOOTH",
"429 2 OFFCURVE",
"512 59 OFFCURVE",
"512 166 CURVE SMOOTH",
"512 242 OFFCURVE",
"466 315 OFFCURVE",
"377 329 CURVE SMOOTH",
"351 333 OFFCURVE",
"331 333 OFFCURVE",
"300 333 CURVE SMOOTH",
"217 333 LINE",
"217 483 LINE",
"10 483 LINE",
"10 411 LINE",
"139 411 LINE",
"139 0 LINE"
);
},
{
closed = 1;
nodes = (
"217 261 LINE",
"309 261 LINE SMOOTH",
"320 261 OFFCURVE",
"344 262 OFFCURVE",
"358 258 CURVE SMOOTH",
"387 250 OFFCURVE",
"431 238 OFFCURVE",
"431 166 CURVE SMOOTH",
"431 128 OFFCURVE",
"420 96 OFFCURVE",
"374 80 CURVE SMOOTH",
"360 75 OFFCURVE",
"334 72 OFFCURVE",
"321 72 CURVE SMOOTH",
"217 72 LINE"
);
}
);
width = 562;
}
);
rightKerningGroup = b;
rightMetricsKey = b;
unicode = 044A;
},
{
glyphname = "ereversed-cy";
lastChange = "2020-04-19 16:54:59 +0000";
layers = (
{
layerId = "1C9972D2-AAA2-4EE5-9F28-188B121D2056";
paths = (
{
closed = 1;
nodes = (
"369 -12 OFFCURVE",
"496 82 OFFCURVE",
"496 243 CURVE SMOOTH",
"496 375 OFFCURVE",
"398 500 OFFCURVE",
"254 500 CURVE SMOOTH",
"127 500 OFFCURVE",
"68 419 OFFCURVE",
"49 401 CURVE",
"105 345 LINE",
"139 399 OFFCURVE",
"197 429 OFFCURVE",
"251 429 CURVE SMOOTH",
"316 429 OFFCURVE",
"398 382 OFFCURVE",
"416 287 CURVE",
"177 287 LINE",
"177 217 LINE",
"420 216 LINE",
"402 110 OFFCURVE",
"315 60 OFFCURVE",
"249 60 CURVE SMOOTH",
"188 60 OFFCURVE",
"139 93 OFFCURVE",
"100 143 CURVE",
"45 93 LINE",
"67 68 OFFCURVE",
"139 -12 OFFCURVE",
"250 -12 CURVE SMOOTH"
);
}
);
width = 541;
}
);
leftKerningGroup = o;
leftMetricsKey = o;
rightKerningGroup = o;
rightMetricsKey = o;
unicode = 044D;
},
{
glyphname = "iu-cy";
lastChange = "2020-04-19 16:54:59 +0000";
layers = (
{
components = (
{
name = o;
transform = "{1, 0, 0, 1, 194, 0}";
}
);
layerId = "1C9972D2-AAA2-4EE5-9F28-188B121D2056";
paths = (
{
closed = 1;
nodes = (
"281 289 LINE",
"154 289 LINE",
"154 483 LINE",
"75 483 LINE",
"76 0 LINE",
"154 0 LINE",
"154 217 LINE",
"281 217 LINE"
);
}
);
width = 791;
}
);
leftKerningGroup = n;
leftMetricsKey = n;
rightKerningGroup = o;
rightMetricsKey = o;
unicode = 044E;
},
{
glyphname = "ia-cy";
lastChange = "2020-04-19 16:54:59 +0000";
layers = (
{
layerId = "1C9972D2-AAA2-4EE5-9F28-188B121D2056";
paths = (
{
closed = 1;
nodes = (
"413 0 LINE",
"413 483 LINE",
"213 483 LINE SMOOTH",
"189 483 OFFCURVE",
"159 482 OFFCURVE",
"138 476 CURVE SMOOTH",
"50 451 OFFCURVE",
"28 377 OFFCURVE",
"28 322 CURVE SMOOTH",
"28 269 OFFCURVE",
"59 206 OFFCURVE",
"132 186 CURVE SMOOTH",
"165 177 OFFCURVE",
"181 176 OFFCURVE",
"204 176 CURVE SMOOTH",
"335 175 LINE",
"335 0 LINE"
);
},
{
closed = 1;
nodes = (
"101 0 LINE",
"260 205 LINE",
"177 206 LINE",
"15 0 LINE"
);
},
{
closed = 1;
nodes = (
"209 246 OFFCURVE",
"180 246 OFFCURVE",
"166 249 CURVE SMOOTH",
"129 257 OFFCURVE",
"106 284 OFFCURVE",
"106 322 CURVE SMOOTH",
"106 364 OFFCURVE",
"123 387 OFFCURVE",
"148 399 CURVE SMOOTH",
"172 411 OFFCURVE",
"199 411 OFFCURVE",
"211 411 CURVE SMOOTH",
"335 411 LINE",
"335 247 LINE",
"220 246 LINE SMOOTH"
);
}
);
width = 488;
}
);
leftKerningGroup = a;
rightKerningGroup = u;
rightMetricsKey = u;
unicode = 044F;
},
{
glyphname = "dje-cy";
lastChange = "2020-04-19 16:54:59 +0000";
layers = (
{
components = (
{
name = hbar;
transform = "{1, 0, 0, 1, 23, 0}";
}
);
layerId = "1C9972D2-AAA2-4EE5-9F28-188B121D2056";
paths = (
{
closed = 1;
nodes = (
"507 -221 OFFCURVE",
"534 -181 OFFCURVE",
"534 -116 CURVE SMOOTH",
"534 275 LINE SMOOTH",
"534 422 OFFCURVE",
"454 276 OFFCURVE",
"454 227 CURVE SMOOTH",
"454 -94 LINE SMOOTH",
"454 -181 OFFCURVE",
"403 -194 OFFCURVE",
"364 -194 CURVE",
"364 -233 LINE",
"395 -238 OFFCURVE",
"427 -239 OFFCURVE",
"453 -233 CURVE SMOOTH"
);
}
);
width = 606;
}
);
leftKerningGroup = h;
rightKerningGroup = h;
rightMetricsKey = h;
unicode = 0452;
},
{
glyphname = "ustrait-cy";
lastChange = "2020-04-19 16:54:59 +0000";
layers = (
{
layerId = "1C9972D2-AAA2-4EE5-9F28-188B121D2056";
paths = (
{
closed = 1;
nodes = (
"277 -156 LINE",
"277 4 LINE",
"466 483 LINE",
"384 483 LINE",
"238 107 LINE",
"92 483 LINE",
"10 483 LINE",
"195 4 LINE",
"195 -156 LINE"
);
}
);
width = 476;
}
);
leftKerningGroup = v;
leftMetricsKey = v;
rightKerningGroup = v;
rightMetricsKey = v;
unicode = 04AF;
},
{
glyphname = "obarred-cy";
lastChange = "2020-04-19 16:54:59 +0000";
layers = (
{
components = (
{
name = o;
}
);
layerId = "1C9972D2-AAA2-4EE5-9F28-188B121D2056";
paths = (
{
closed = 1;
nodes = (
"518 207 LINE",
"518 279 LINE",
"92 279 LINE",
"92 207 LINE"
);
}
);
width = 627;
}
);
leftKerningGroup = o;
rightKerningGroup = o;
unicode = 04E9;
},
{
glyphname = "ve-cy.loclBGR";
lastChange = "2020-04-19 16:54:59 +0000";
layers = (
{
layerId = "1C9972D2-AAA2-4EE5-9F28-188B121D2056";
paths = (
{
closed = 1;
nodes = (
"431 -12 OFFCURVE",
"520 62 OFFCURVE",
"520 186 CURVE SMOOTH",
"520 287 OFFCURVE",
"480 331 OFFCURVE",
"376 365 CURVE",
"432 391 OFFCURVE",
"462 439 OFFCURVE",
"462 500 CURVE SMOOTH",
"462 604 OFFCURVE",
"376 683 OFFCURVE",
"257 683 CURVE SMOOTH",
"162 683 OFFCURVE",
"90 634 OFFCURVE",
"68 560 CURVE SMOOTH",
"61 537 OFFCURVE",
"61 519 OFFCURVE",
"61 504 CURVE SMOOTH",
"61 209 LINE SMOOTH",
"61 179 OFFCURVE",
"61 151 OFFCURVE",
"70 118 CURVE SMOOTH",
"93 32 OFFCURVE",
"166 -12 OFFCURVE",
"282 -12 CURVE SMOOTH"
);
},
{
closed = 1;
nodes = (
"219 60 OFFCURVE",
"167 84 OFFCURVE",
"148 130 CURVE SMOOTH",
"138 154 OFFCURVE",
"139 189 OFFCURVE",
"139 199 CURVE SMOOTH",
"140 467 LINE SMOOTH",
"140 480 OFFCURVE",
"140 521 OFFCURVE",
"157 553 CURVE SMOOTH",
"176 589 OFFCURVE",
"213 611 OFFCURVE",
"260 611 CURVE SMOOTH",
"332 611 OFFCURVE",
"384 563 OFFCURVE",
"384 497 CURVE SMOOTH",
"384 441 OFFCURVE",
"350 401 OFFCURVE",
"291 389 CURVE",
"291 325 LINE",
"387 316 OFFCURVE",
"442 268 OFFCURVE",
"442 192 CURVE SMOOTH",
"442 111 OFFCURVE",
"380 60 OFFCURVE",
"288 60 CURVE SMOOTH"
);
}
);
width = 565;
}
);
leftKerningGroup = b;
leftMetricsKey = b;
rightKerningGroup = B;
rightMetricsKey = B;
},
{
glyphname = "zhe-cy.loclBGR";
lastChange = "2020-04-19 16:54:59 +0000";
layers = (
{
components = (
{
name = "zhe-cy";
}
);
layerId = "1C9972D2-AAA2-4EE5-9F28-188B121D2056";
paths = (
{
closed = 1;
nodes = (
"303 323 LINE",
"379 323 LINE",
"379 589 LINE",
"303 589 LINE"
);
}
);
width = 683;
}
);
leftKerningGroup = x;
leftMetricsKey = w;
rightKerningGroup = x;
rightMetricsKey = w;
},
{
glyphname = "tse-cy.loclBGR";
lastChange = "2020-04-19 16:54:59 +0000";
layers = (
{
components = (
{
name = u;
}
);
layerId = "1C9972D2-AAA2-4EE5-9F28-188B121D2056";
paths = (
{
closed = 1;
nodes = (
"494 0 LINE",
"494 -90 LINE",
"572 -90 LINE",
"572 78 LINE",
"424 78 LINE",
"424 0 LINE"
);
}
);
width = 602;
}
);
leftKerningGroup = u;
rightKerningGroup = "tse-cy";
rightMetricsKey = "tse-cy";
},
{
glyphname = "shcha-cy.loclBGR";
lastChange = "2020-04-19 16:54:59 +0000";
layers = (
{
components = (
{
name = m;
transform = "{-1, 0, 0, -1, 873, 483}";
}
);
layerId = "1C9972D2-AAA2-4EE5-9F28-188B121D2056";
paths = (
{
closed = 1;
nodes = (
"790 0 LINE",
"790 -90 LINE",
"868 -90 LINE",
"868 78 LINE",
"720 78 LINE",
"720 0 LINE"
);
}
);
width = 898;
}
);
leftKerningGroup = u;
leftMetricsKey = u;
rightKerningGroup = "tse-cy";
rightMetricsKey = "tse-cy";
},
{
glyphname = "iu-cy.loclBGR";
lastChange = "2020-04-19 16:54:59 +0000";
layers = (
{
components = (
{
name = "iu-cy";
}
);
layerId = "1C9972D2-AAA2-4EE5-9F28-188B121D2056";
paths = (
{
closed = 1;
nodes = (
"154 0 LINE",
"154 720 LINE",
"76 720 LINE",
"76 0 LINE"
);
}
);
width = 867;
}
);
leftKerningGroup = n;
rightKerningGroup = u;
},
{
glyphname = uni03A9;
lastChange = "2020-04-19 16:54:59 +0000";
layers = (
{
layerId = "1C9972D2-AAA2-4EE5-9F28-188B121D2056";
paths = (
{
closed = 1;
nodes = (
"146 363 LINE SMOOTH",
"146 510 OFFCURVE",
"230 649 OFFCURVE",
"413 649 CURVE SMOOTH",
"594 649 OFFCURVE",
"688 518 OFFCURVE",
"688 366 CURVE SMOOTH",
"688 358 LINE SMOOTH",
"688 183 OFFCURVE",
"587 100 OFFCURVE",
"478 40 CURVE",
"478 0 LINE",
"765 0 LINE",
"766 76 LINE",
"622 76 LINE",
"695 119 OFFCURVE",
"770 207 OFFCURVE",
"770 358 CURVE SMOOTH",
"770 366 LINE SMOOTH",
"770 586 OFFCURVE",
"618 725 OFFCURVE",
"413 725 CURVE SMOOTH",
"206 725 OFFCURVE",
"64 564 OFFCURVE",
"64 363 CURVE SMOOTH",
"64 355 LINE SMOOTH",
"64 230 OFFCURVE",
"129 127 OFFCURVE",
"199 76 CURVE",
"60 76 LINE",
"62 0 LINE",
"355 0 LINE",
"355 40 LINE",
"286 72 OFFCURVE",
"146 179 OFFCURVE",
"146 355 CURVE SMOOTH"
);
}
);
width = 830;
}
);
note = uni03A9;
unicode = 03A9;
},
{
glyphname = zero;
lastChange = "2020-04-19 16:54:59 +0000";
layers = (
{
layerId = "1C9972D2-AAA2-4EE5-9F28-188B121D2056";
paths = (
{
closed = 1;
nodes = (
"546 -12 OFFCURVE",
"652 154 OFFCURVE",
"652 356 CURVE SMOOTH",
"652 560 OFFCURVE",
"546 725 OFFCURVE",
"356 725 CURVE SMOOTH",
"169 725 OFFCURVE",
"60 560 OFFCURVE",
"60 356 CURVE SMOOTH",
"60 154 OFFCURVE",
"169 -12 OFFCURVE",
"356 -12 CURVE SMOOTH"
);
},
{
closed = 1;
nodes = (
"218 67 OFFCURVE",
"143 197 OFFCURVE",
"143 356 CURVE SMOOTH",
"143 517 OFFCURVE",
"218 647 OFFCURVE",
"356 647 CURVE SMOOTH",
"495 647 OFFCURVE",
"569 517 OFFCURVE",
"569 356 CURVE SMOOTH",
"569 197 OFFCURVE",
"495 67 OFFCURVE",
"356 67 CURVE SMOOTH"
);
}
);
width = 712;
}
);
unicode = 0030;
},
{
glyphname = one;
lastChange = "2020-04-19 16:53:55 +0000";
layers = (
{
layerId = "1C9972D2-AAA2-4EE5-9F28-188B121D2056";
paths = (
{
closed = 1;
nodes = (
"337 0 LINE",
"255 0 LINE",
"255 627 LINE",
"100 566 LINE",
"100 652 LINE",
"255 713 LINE",
"337 713 LINE"
);
}
);
width = 437;
}
);
note = one;
unicode = 0031;
},
{
glyphname = two;
lastChange = "2020-04-19 16:53:55 +0000";
layers = (
{
layerId = "1C9972D2-AAA2-4EE5-9F28-188B121D2056";
paths = (
{
closed = 1;
nodes = (
"402 720 OFFCURVE",
"502 643 OFFCURVE",
"502 513 CURVE SMOOTH",
"502 422 OFFCURVE",
"452 358 OFFCURVE",
"404 309 CURVE SMOOTH",
"179 76 LINE",
"527 76 LINE",
"527 0 LINE",
"51 0 LINE",
"50 56 LINE",
"319 335 LINE SMOOTH",
"385 404 OFFCURVE",
"419 431 OFFCURVE",
"420 513 CURVE SMOOTH",
"421 581 OFFCURVE",
"376 645 OFFCURVE",
"273 645 CURVE SMOOTH",
"192 645 OFFCURVE",
"140 607 OFFCURVE",
"116 587 CURVE",
"72 646 LINE",
"115 684 OFFCURVE",
"194 722 OFFCURVE",
"280 721 CURVE SMOOTH"
);
}
);
width = 577;
}
);
note = two;
unicode = 0032;
},
{
glyphname = three;
lastChange = "2020-04-19 16:54:59 +0000";
layers = (
{
layerId = "1C9972D2-AAA2-4EE5-9F28-188B121D2056";
paths = (
{
closed = 1;
nodes = (
"434 -12 OFFCURVE",
"534 81 OFFCURVE",
"534 198 CURVE SMOOTH",
"534 290 OFFCURVE",
"472 339 OFFCURVE",
"390 366 CURVE",
"472 399 OFFCURVE",
"515 455 OFFCURVE",
"515 531 CURVE SMOOTH",
"515 646 OFFCURVE",
"418 724 OFFCURVE",
"281 724 CURVE SMOOTH",
"185 724 OFFCURVE",
"115 686 OFFCURVE",
"61 623 CURVE",
"114 574 LINE",
"157 620 OFFCURVE",
"213 648 OFFCURVE",
"280 648 CURVE SMOOTH",
"374 648 OFFCURVE",
"433 599 OFFCURVE",
"433 526 CURVE SMOOTH",
"433 452 OFFCURVE",
"372 400 OFFCURVE",
"264 400 CURVE SMOOTH",
"201 400 LINE",
"201 325 LINE",
"262 325 LINE SMOOTH",
"383 325 OFFCURVE",
"452 280 OFFCURVE",
"452 199 CURVE SMOOTH",
"452 118 OFFCURVE",
"388 64 OFFCURVE",
"289 64 CURVE SMOOTH",
"210 64 OFFCURVE",
"146 99 OFFCURVE",
"97 154 CURVE",
"40 96 LINE",
"100 33 OFFCURVE",
"186 -12 OFFCURVE",
"288 -12 CURVE SMOOTH"
);
}
);
width = 594;
}
);
note = three;
unicode = 0033;
},
{
glyphname = four;
lastChange = "2020-04-19 16:54:59 +0000";
layers = (
{
layerId = "1C9972D2-AAA2-4EE5-9F28-188B121D2056";
paths = (
{
closed = 1;
nodes = (
"409 708 LINE",
"470 708 LINE",
"469 253 LINE",
"588 253 LINE",
"588 177 LINE",
"469 177 LINE",
"469 0 LINE",
"387 0 LINE",
"387 177 LINE",
"20 177 LINE",
"20 238 LINE",
"409 708 LINE",
"455 647 LINE",
"131 252 LINE",
"388 252 LINE",
"390 668 LINE"
);
}
);
width = 588;
}
);
leftKerningGroup = A;
note = four;
rightKerningGroup = o;
unicode = 0034;
},
{
glyphname = five;
lastChange = "2020-04-19 16:54:59 +0000";
layers = (
{
layerId = "1C9972D2-AAA2-4EE5-9F28-188B121D2056";
paths = (
{
closed = 1;
nodes = (
"83 343 LINE",
"99 328 LINE",
"154 350 OFFCURVE",
"198 358 OFFCURVE",
"250 358 CURVE SMOOTH",
"378 358 OFFCURVE",
"430 307 OFFCURVE",
"430 224 CURVE SMOOTH",
"430 132 OFFCURVE",
"369 64 OFFCURVE",
"264 64 CURVE SMOOTH",
"185 64 OFFCURVE",
"118 103 OFFCURVE",
"88 142 CURVE",
"40 89 LINE",
"67 48 OFFCURVE",
"142 -12 OFFCURVE",
"263 -12 CURVE SMOOTH",
"399 -12 OFFCURVE",
"512 64 OFFCURVE",
"512 218 CURVE SMOOTH",
"512 360 OFFCURVE",
"417 435 OFFCURVE",
"246 435 CURVE SMOOTH",
"217 435 OFFCURVE",
"192 434 OFFCURVE",
"158 420 CURVE",
"174 639 LINE",
"480 637 LINE",
"480 713 LINE",
"109 713 LINE"
);
}
);
width = 562;
}
);
note = five;
rightKerningGroup = fove;
unicode = 0035;
},
{
glyphname = six;
lastChange = "2020-04-19 16:53:55 +0000";
layers = (
{
layerId = "1C9972D2-AAA2-4EE5-9F28-188B121D2056";
paths = (
{
closed = 1;
nodes = (
"164 350 LINE SMOOTH",
"164 563 OFFCURVE",
"248 642 OFFCURVE",
"366 642 CURVE SMOOTH",
"468 642 OFFCURVE",
"520 561 OFFCURVE",
"520 561 CURVE",
"570 621 LINE",
"570 621 OFFCURVE",
"515 719 OFFCURVE",
"366 719 CURVE SMOOTH",
"201 719 OFFCURVE",
"80 597 OFFCURVE",
"80 350 CURVE SMOOTH",
"80 85 OFFCURVE",
"200 -10 OFFCURVE",
"348 -10 CURVE SMOOTH",
"493 -10 OFFCURVE",
"592 95 OFFCURVE",
"592 220 CURVE SMOOTH",
"592 339 OFFCURVE",
"496 438 OFFCURVE",
"354 438 CURVE SMOOTH",
"270 438 OFFCURVE",
"203 403 OFFCURVE",
"164 347 CURVE"
);
},
{
closed = 1;
nodes = (
"446 361 OFFCURVE",
"509 302 OFFCURVE",
"509 220 CURVE SMOOTH",
"509 136 OFFCURVE",
"441 67 OFFCURVE",
"348 67 CURVE SMOOTH",
"271 67 OFFCURVE",
"201 108 OFFCURVE",
"176 218 CURVE",
"191 305 OFFCURVE",
"259 361 OFFCURVE",
"353 361 CURVE SMOOTH"
);
}
);
width = 627;
}
);
note = six;
unicode = 0036;
},
{
glyphname = seven;
lastChange = "2020-04-19 16:54:59 +0000";
layers = (
{
layerId = "1C9972D2-AAA2-4EE5-9F28-188B121D2056";
paths = (
{
closed = 1;
nodes = (
"541 651 LINE",
"199 0 LINE",
"113 0 LINE",
"444 637 LINE",
"40 637 LINE",
"40 713 LINE",
"541 713 LINE"
);
}
);
width = 571;
}
);
leftKerningGroup = seven;
note = seven;
unicode = 0037;
},
{
glyphname = eight;
lastChange = "2020-04-19 16:54:59 +0000";
layers = (
{
layerId = "1C9972D2-AAA2-4EE5-9F28-188B121D2056";
paths = (
{
closed = 1;
nodes = (
"461 -14 OFFCURVE",
"549 85 OFFCURVE",
"549 200 CURVE SMOOTH",
"549 278 OFFCURVE",
"512 341 OFFCURVE",
"444 375 CURVE",
"502 408 OFFCURVE",
"531 465 OFFCURVE",
"531 529 CURVE SMOOTH",
"531 641 OFFCURVE",
"449 725 OFFCURVE",
"302 725 CURVE SMOOTH",
"155 725 OFFCURVE",
"69 641 OFFCURVE",
"69 529 CURVE SMOOTH",
"69 465 OFFCURVE",
"100 408 OFFCURVE",
"159 375 CURVE",
"90 341 OFFCURVE",
"50 278 OFFCURVE",
"50 200 CURVE SMOOTH",
"50 85 OFFCURVE",
"141 -14 OFFCURVE",
"302 -14 CURVE SMOOTH"
);
},
{
closed = 1;
nodes = (
"467 123 OFFCURVE",
"402 62 OFFCURVE",
"302 62 CURVE SMOOTH",
"200 62 OFFCURVE",
"133 123 OFFCURVE",
"133 200 CURVE SMOOTH",
"133 277 OFFCURVE",
"200 336 OFFCURVE",
"302 336 CURVE SMOOTH",
"402 336 OFFCURVE",
"467 277 OFFCURVE",
"467 200 CURVE SMOOTH"
);
},
{
closed = 1;
nodes = (
"202 408 OFFCURVE",
"151 462 OFFCURVE",
"151 530 CURVE SMOOTH",
"151 594 OFFCURVE",
"202 649 OFFCURVE",
"302 649 CURVE SMOOTH",
"400 649 OFFCURVE",
"449 594 OFFCURVE",
"449 530 CURVE SMOOTH",
"449 462 OFFCURVE",
"400 408 OFFCURVE",
"302 408 CURVE SMOOTH"
);
}
);
width = 599;
}
);
note = eight;
unicode = 0038;
},
{
glyphname = uni2776;
lastChange = "2020-04-19 16:54:59 +0000";
layers = (
{
components = (
{
name = onesuperior;
transform = "{1, 0, 0, 1, 266, -303}";
}
);
guideLines = (
{
angle = 180;
position = "{-99, 181}";
},
{
angle = 180;
position = "{-45, 538}";
}
);
layerId = "1C9972D2-AAA2-4EE5-9F28-188B121D2056";
paths = (
{
closed = 1;
nodes = (
"611 724 OFFCURVE",
"774 560 OFFCURVE",
"774 355 CURVE",
"774 155 OFFCURVE",
"611 -12 OFFCURVE",
"406 -12 CURVE",
"205 -12 OFFCURVE",
"40 155 OFFCURVE",
"40 355 CURVE",
"40 560 OFFCURVE",
"205 724 OFFCURVE",
"406 724 CURVE"
);
}
);
width = 814;
}
);
leftKerningGroup = at;
note = uni2776;
rightKerningGroup = at;
unicode = 2776;
},
{
glyphname = uni2777;
lastChange = "2020-04-19 16:54:59 +0000";
layers = (
{
components = (
{
name = twosuperior;
transform = "{1, 0, 0, 1, 245, -301}";
}
);
guideLines = (
{
angle = 180;
position = "{-6, 181}";
},
{
angle = 180;
position = "{-3, 538}";
}
);
layerId = "1C9972D2-AAA2-4EE5-9F28-188B121D2056";
paths = (
{
closed = 1;
nodes = (
"40 153 OFFCURVE",
"205 -12 OFFCURVE",
"409 -12 CURVE SMOOTH",
"612 -12 OFFCURVE",
"777 153 OFFCURVE",
"777 357 CURVE SMOOTH",
"777 560 OFFCURVE",
"612 725 OFFCURVE",
"409 725 CURVE SMOOTH",
"205 725 OFFCURVE",
"40 560 OFFCURVE",
"40 357 CURVE SMOOTH"
);
}
);
width = 816;
}
);
leftKerningGroup = at;
note = uni2777;
rightKerningGroup = at;
unicode = 2777;
},
{
glyphname = uni2778;
lastChange = "2020-04-19 16:54:59 +0000";
layers = (
{
components = (
{
name = threesuperior;
transform = "{1, 0, 0, 1, 237, -308}";
}
);
guideLines = (
{
angle = 180;
position = "{-6, 181}";
},
{
angle = 180;
position = "{-3, 538}";
}
);
layerId = "1C9972D2-AAA2-4EE5-9F28-188B121D2056";
paths = (
{
closed = 1;
nodes = (
"611 724 OFFCURVE",
"774 560 OFFCURVE",
"774 355 CURVE SMOOTH",
"774 155 OFFCURVE",
"611 -12 OFFCURVE",
"406 -12 CURVE SMOOTH",
"205 -12 OFFCURVE",
"40 155 OFFCURVE",
"40 355 CURVE SMOOTH",
"40 560 OFFCURVE",
"205 724 OFFCURVE",
"406 724 CURVE SMOOTH"
);
}
);
width = 814;
}
);
leftKerningGroup = at;
note = uni2778;
rightKerningGroup = at;
unicode = 2778;
},
{
glyphname = uni2779;
lastChange = "2020-04-19 16:54:59 +0000";
layers = (
{
components = (
{
name = foursuperior;
transform = "{1, 0, 0, 1, 210, -301}";
}
);
guideLines = (
{
angle = 180;
position = "{-6, 181}";
},
{
angle = 180;
position = "{-3, 538}";
}
);
layerId = "1C9972D2-AAA2-4EE5-9F28-188B121D2056";
paths = (
{
closed = 1;
nodes = (
"611 724 OFFCURVE",
"774 560 OFFCURVE",
"774 355 CURVE SMOOTH",
"774 155 OFFCURVE",
"611 -12 OFFCURVE",
"406 -12 CURVE SMOOTH",
"205 -12 OFFCURVE",
"40 155 OFFCURVE",
"40 355 CURVE SMOOTH",
"40 560 OFFCURVE",
"205 724 OFFCURVE",
"406 724 CURVE SMOOTH"
);
}
);
width = 814;
}
);
leftKerningGroup = at;
note = uni2779;
rightKerningGroup = at;
unicode = 2779;
},
{
glyphname = uni277A;
lastChange = "2020-04-19 16:54:59 +0000";
layers = (
{
components = (
{
name = fivesuperior;
transform = "{1, 0, 0, 1, 230, -302}";
}
);
guideLines = (
{
angle = 180;
position = "{-6, 181}";
},
{
angle = 180;
position = "{-3, 538}";
}
);
layerId = "1C9972D2-AAA2-4EE5-9F28-188B121D2056";
paths = (
{
closed = 1;
nodes = (
"611 724 OFFCURVE",
"774 560 OFFCURVE",
"774 355 CURVE SMOOTH",
"774 155 OFFCURVE",
"611 -12 OFFCURVE",
"406 -12 CURVE SMOOTH",
"205 -12 OFFCURVE",
"40 155 OFFCURVE",
"40 355 CURVE SMOOTH",
"40 560 OFFCURVE",
"205 724 OFFCURVE",
"406 724 CURVE SMOOTH"
);
}
);
width = 814;
}
);
leftKerningGroup = at;
note = uni277A;
rightKerningGroup = at;
unicode = 277A;
},
{
glyphname = uni277B;
lastChange = "2020-04-19 16:54:59 +0000";
layers = (
{
components = (
{
name = sixsuperior;
transform = "{1, 0, 0, 1, 235, -304}";
}
);
guideLines = (
{
angle = 180;
position = "{-6, 181}";
},
{
angle = 180;
position = "{-3, 538}";
}
);
layerId = "1C9972D2-AAA2-4EE5-9F28-188B121D2056";
paths = (
{
closed = 1;
nodes = (
"611 724 OFFCURVE",
"774 560 OFFCURVE",
"774 355 CURVE SMOOTH",
"774 155 OFFCURVE",
"611 -12 OFFCURVE",
"406 -12 CURVE SMOOTH",
"205 -12 OFFCURVE",
"40 155 OFFCURVE",
"40 355 CURVE SMOOTH",
"40 560 OFFCURVE",
"205 724 OFFCURVE",
"406 724 CURVE SMOOTH"
);
}
);
width = 814;
}
);
leftKerningGroup = at;
note = uni277B;
rightKerningGroup = at;
unicode = 277B;
},
{
glyphname = uni277C;
lastChange = "2020-04-19 16:54:59 +0000";
layers = (
{
components = (
{
name = sevensuperior;
transform = "{1, 0, 0, 1, 260, -306}";
}
);
guideLines = (
{
angle = 180;
position = "{-6, 181}";
},
{
angle = 180;
position = "{-3, 538}";
}
);
layerId = "1C9972D2-AAA2-4EE5-9F28-188B121D2056";
paths = (
{
closed = 1;
nodes = (
"611 -12 OFFCURVE",
"774 155 OFFCURVE",
"774 355 CURVE SMOOTH",
"774 560 OFFCURVE",
"611 724 OFFCURVE",
"406 724 CURVE SMOOTH",
"205 724 OFFCURVE",
"40 560 OFFCURVE",
"40 355 CURVE SMOOTH",
"40 155 OFFCURVE",
"205 -12 OFFCURVE",
"406 -12 CURVE SMOOTH"
);
}
);
width = 814;
}
);
leftKerningGroup = at;
note = uni277C;
rightKerningGroup = at;
unicode = 277C;
},
{
glyphname = uni277D;
lastChange = "2020-04-19 16:54:59 +0000";
layers = (
{
components = (
{
name = eightsuperior;
transform = "{1, 0, 0, 1, 244, -302}";
}
);
guideLines = (
{
angle = 180;
position = "{-6, 181}";
},
{
angle = 180;
position = "{-3, 538}";
}
);
layerId = "1C9972D2-AAA2-4EE5-9F28-188B121D2056";
paths = (
{
closed = 1;
nodes = (
"611 724 OFFCURVE",
"774 560 OFFCURVE",
"774 355 CURVE SMOOTH",
"774 155 OFFCURVE",
"611 -12 OFFCURVE",
"406 -12 CURVE SMOOTH",
"205 -12 OFFCURVE",
"40 155 OFFCURVE",
"40 355 CURVE SMOOTH",
"40 560 OFFCURVE",
"205 724 OFFCURVE",
"406 724 CURVE SMOOTH"
);
}
);
width = 814;
}
);
leftKerningGroup = at;
note = uni277D;
rightKerningGroup = at;
unicode = 277D;
},
{
glyphname = uni277E;
lastChange = "2020-04-19 16:54:59 +0000";
layers = (
{
components = (
{
name = sixsuperior;
transform = "{-1, 0, 0, -1, 572, 1018}";
}
);
guideLines = (
{
angle = 180;
position = "{-6, 181}";
},
{
angle = 180;
position = "{-3, 538}";
}
);
layerId = "1C9972D2-AAA2-4EE5-9F28-188B121D2056";
paths = (
{
closed = 1;
nodes = (
"611 724 OFFCURVE",
"774 560 OFFCURVE",
"774 355 CURVE SMOOTH",
"774 155 OFFCURVE",
"611 -12 OFFCURVE",
"406 -12 CURVE SMOOTH",
"205 -12 OFFCURVE",
"40 155 OFFCURVE",
"40 355 CURVE SMOOTH",
"40 560 OFFCURVE",
"205 724 OFFCURVE",
"406 724 CURVE SMOOTH"
);
}
);
width = 814;
}
);
leftKerningGroup = at;
note = uni277E;
rightKerningGroup = at;
unicode = 277E;
},
{
glyphname = uni2460;
lastChange = "2020-04-19 16:54:59 +0000";
layers = (
{
components = (
{
name = onesuperior;
transform = "{1, 0, 0, 1, 270, -303}";
}
);
layerId = "1C9972D2-AAA2-4EE5-9F28-188B121D2056";
paths = (
{
closed = 1;
nodes = (
"40 560 OFFCURVE",
"205 724 OFFCURVE",
"406 724 CURVE SMOOTH",
"611 724 OFFCURVE",
"774 560 OFFCURVE",
"774 355 CURVE SMOOTH",
"774 155 OFFCURVE",
"611 -12 OFFCURVE",
"406 -12 CURVE SMOOTH",
"205 -12 OFFCURVE",
"40 155 OFFCURVE",
"40 355 CURVE SMOOTH"
);
},
{
closed = 1;
nodes = (
"99 188 OFFCURVE",
"237 48 OFFCURVE",
"404 48 CURVE SMOOTH",
"575 48 OFFCURVE",
"712 188 OFFCURVE",
"712 354 CURVE SMOOTH",
"712 525 OFFCURVE",
"575 663 OFFCURVE",
"404 663 CURVE SMOOTH",
"237 663 OFFCURVE",
"99 525 OFFCURVE",
"99 354 CURVE SMOOTH"
);
}
);
width = 781;
}
);
leftKerningGroup = at;
note = uni2460;
rightKerningGroup = at;
unicode = 2460;
},
{
glyphname = uni2461;
lastChange = "2020-04-19 16:54:59 +0000";
layers = (
{
components = (
{
name = twosuperior;
transform = "{1, 0, 0, 1, 240, -301}";
}
);
layerId = "1C9972D2-AAA2-4EE5-9F28-188B121D2056";
paths = (
{
closed = 1;
nodes = (
"40 560 OFFCURVE",
"205 724 OFFCURVE",
"406 724 CURVE SMOOTH",
"611 724 OFFCURVE",
"774 560 OFFCURVE",
"774 355 CURVE SMOOTH",
"774 155 OFFCURVE",
"611 -12 OFFCURVE",
"406 -12 CURVE SMOOTH",
"205 -12 OFFCURVE",
"40 155 OFFCURVE",
"40 355 CURVE SMOOTH"
);
},
{
closed = 1;
nodes = (
"99 188 OFFCURVE",
"237 48 OFFCURVE",
"404 48 CURVE SMOOTH",
"575 48 OFFCURVE",
"712 188 OFFCURVE",
"712 354 CURVE SMOOTH",
"712 525 OFFCURVE",
"575 663 OFFCURVE",
"404 663 CURVE SMOOTH",
"237 663 OFFCURVE",
"99 525 OFFCURVE",
"99 354 CURVE SMOOTH"
);
}
);
width = 814;
}
);
leftKerningGroup = at;
note = uni2461;
rightKerningGroup = at;
unicode = 2461;
},
{
glyphname = uni2462;
lastChange = "2020-04-19 16:54:59 +0000";
layers = (
{
components = (
{
name = threesuperior;
transform = "{1, 0, 0, 1, 235, -308}";
}
);
layerId = "1C9972D2-AAA2-4EE5-9F28-188B121D2056";
paths = (
{
closed = 1;
nodes = (
"40 560 OFFCURVE",
"205 724 OFFCURVE",
"406 724 CURVE SMOOTH",
"611 724 OFFCURVE",
"774 560 OFFCURVE",
"774 355 CURVE SMOOTH",
"774 155 OFFCURVE",
"611 -12 OFFCURVE",
"406 -12 CURVE SMOOTH",
"205 -12 OFFCURVE",
"40 155 OFFCURVE",
"40 355 CURVE SMOOTH"
);
},
{
closed = 1;
nodes = (
"99 188 OFFCURVE",
"237 48 OFFCURVE",
"404 48 CURVE SMOOTH",
"575 48 OFFCURVE",
"712 188 OFFCURVE",
"712 354 CURVE SMOOTH",
"712 525 OFFCURVE",
"575 663 OFFCURVE",
"404 663 CURVE SMOOTH",
"237 663 OFFCURVE",
"99 525 OFFCURVE",
"99 354 CURVE SMOOTH"
);
}
);
width = 814;
}
);
leftKerningGroup = at;
note = uni2462;
rightKerningGroup = at;
unicode = 2462;
},
{
glyphname = uni2463;
lastChange = "2020-04-19 16:54:59 +0000";
layers = (
{
components = (
{
name = foursuperior;
transform = "{1, 0, 0, 1, 201, -301}";
}
);
layerId = "1C9972D2-AAA2-4EE5-9F28-188B121D2056";
paths = (
{
closed = 1;
nodes = (
"40 560 OFFCURVE",
"205 724 OFFCURVE",
"406 724 CURVE SMOOTH",
"611 724 OFFCURVE",
"774 560 OFFCURVE",
"774 355 CURVE SMOOTH",
"774 155 OFFCURVE",
"611 -12 OFFCURVE",
"406 -12 CURVE SMOOTH",
"205 -12 OFFCURVE",
"40 155 OFFCURVE",
"40 355 CURVE SMOOTH"
);
},
{
closed = 1;
nodes = (
"99 188 OFFCURVE",
"237 48 OFFCURVE",
"404 48 CURVE SMOOTH",
"575 48 OFFCURVE",
"712 188 OFFCURVE",
"712 354 CURVE SMOOTH",
"712 525 OFFCURVE",
"575 663 OFFCURVE",
"404 663 CURVE SMOOTH",
"237 663 OFFCURVE",
"99 525 OFFCURVE",
"99 354 CURVE SMOOTH"
);
}
);
width = 814;
}
);
leftKerningGroup = at;
note = uni2463;
rightKerningGroup = at;
unicode = 2463;
},
{
glyphname = uni2464;
lastChange = "2020-04-19 16:54:59 +0000";
layers = (
{
components = (
{
name = fivesuperior;
transform = "{1, 0, 0, 1, 239, -302}";
}
);
layerId = "1C9972D2-AAA2-4EE5-9F28-188B121D2056";
paths = (
{
closed = 1;
nodes = (
"40 560 OFFCURVE",
"205 724 OFFCURVE",
"406 724 CURVE SMOOTH",
"611 724 OFFCURVE",
"774 560 OFFCURVE",
"774 355 CURVE SMOOTH",
"774 155 OFFCURVE",
"611 -12 OFFCURVE",
"406 -12 CURVE SMOOTH",
"205 -12 OFFCURVE",
"40 155 OFFCURVE",
"40 355 CURVE SMOOTH"
);
},
{
closed = 1;
nodes = (
"99 188 OFFCURVE",
"237 48 OFFCURVE",
"404 48 CURVE SMOOTH",
"575 48 OFFCURVE",
"712 188 OFFCURVE",
"712 354 CURVE SMOOTH",
"712 525 OFFCURVE",
"575 663 OFFCURVE",
"404 663 CURVE SMOOTH",
"237 663 OFFCURVE",
"99 525 OFFCURVE",
"99 354 CURVE SMOOTH"
);
}
);
width = 814;
}
);
leftKerningGroup = at;
note = uni2464;
rightKerningGroup = at;
unicode = 2464;
},
{
glyphname = uni2465;
lastChange = "2020-04-19 16:54:59 +0000";
layers = (
{
components = (
{
name = sixsuperior;
transform = "{1, 0, 0, 1, 235, -304}";
}
);
layerId = "1C9972D2-AAA2-4EE5-9F28-188B121D2056";
paths = (
{
closed = 1;
nodes = (
"40 560 OFFCURVE",
"205 724 OFFCURVE",
"406 724 CURVE SMOOTH",
"611 724 OFFCURVE",
"774 560 OFFCURVE",
"774 355 CURVE SMOOTH",
"774 155 OFFCURVE",
"611 -12 OFFCURVE",
"406 -12 CURVE SMOOTH",
"205 -12 OFFCURVE",
"40 155 OFFCURVE",
"40 355 CURVE SMOOTH"
);
},
{
closed = 1;
nodes = (
"99 188 OFFCURVE",
"237 48 OFFCURVE",
"404 48 CURVE SMOOTH",
"575 48 OFFCURVE",
"712 188 OFFCURVE",
"712 354 CURVE SMOOTH",
"712 525 OFFCURVE",
"575 663 OFFCURVE",
"404 663 CURVE SMOOTH",
"237 663 OFFCURVE",
"99 525 OFFCURVE",
"99 354 CURVE SMOOTH"
);
}
);
width = 814;
}
);
leftKerningGroup = at;
note = uni2465;
rightKerningGroup = at;
unicode = 2465;
},
{
glyphname = uni2466;
lastChange = "2020-04-19 16:54:59 +0000";
layers = (
{
components = (
{
name = sevensuperior;
transform = "{1, 0, 0, 1, 259, -306}";
}
);
layerId = "1C9972D2-AAA2-4EE5-9F28-188B121D2056";
paths = (
{
closed = 1;
nodes = (
"40 560 OFFCURVE",
"205 724 OFFCURVE",
"406 724 CURVE SMOOTH",
"611 724 OFFCURVE",
"774 560 OFFCURVE",
"774 355 CURVE SMOOTH",
"774 155 OFFCURVE",
"611 -12 OFFCURVE",
"406 -12 CURVE SMOOTH",
"205 -12 OFFCURVE",
"40 155 OFFCURVE",
"40 355 CURVE SMOOTH"
);
},
{
closed = 1;
nodes = (
"99 188 OFFCURVE",
"237 48 OFFCURVE",
"404 48 CURVE SMOOTH",
"575 48 OFFCURVE",
"712 188 OFFCURVE",
"712 354 CURVE SMOOTH",
"712 525 OFFCURVE",
"575 663 OFFCURVE",
"404 663 CURVE SMOOTH",
"237 663 OFFCURVE",
"99 525 OFFCURVE",
"99 354 CURVE SMOOTH"
);
}
);
width = 814;
}
);
leftKerningGroup = at;
note = uni2466;
rightKerningGroup = at;
unicode = 2466;
},
{
glyphname = uni2467;
lastChange = "2020-04-19 16:54:59 +0000";
layers = (
{
components = (
{
name = eightsuperior;
transform = "{1, 0, 0, 1, 242, -302}";
}
);
layerId = "1C9972D2-AAA2-4EE5-9F28-188B121D2056";
paths = (
{
closed = 1;
nodes = (
"40 560 OFFCURVE",
"205 724 OFFCURVE",
"406 724 CURVE SMOOTH",
"611 724 OFFCURVE",
"774 560 OFFCURVE",
"774 355 CURVE SMOOTH",
"774 155 OFFCURVE",
"611 -12 OFFCURVE",
"406 -12 CURVE SMOOTH",
"205 -12 OFFCURVE",
"40 155 OFFCURVE",
"40 355 CURVE SMOOTH"
);
},
{
closed = 1;
nodes = (
"99 188 OFFCURVE",
"237 48 OFFCURVE",
"404 48 CURVE SMOOTH",
"575 48 OFFCURVE",
"712 188 OFFCURVE",
"712 354 CURVE SMOOTH",
"712 525 OFFCURVE",
"575 663 OFFCURVE",
"404 663 CURVE SMOOTH",
"237 663 OFFCURVE",
"99 525 OFFCURVE",
"99 354 CURVE SMOOTH"
);
}
);
width = 814;
}
);
leftKerningGroup = at;
note = uni2467;
rightKerningGroup = at;
unicode = 2467;
},
{
glyphname = uni2468;
lastChange = "2020-04-19 16:54:59 +0000";
layers = (
{
components = (
{
name = sixsuperior;
transform = "{-1, 0, 0, -1, 580, 1018}";
}
);
layerId = "1C9972D2-AAA2-4EE5-9F28-188B121D2056";
paths = (
{
closed = 1;
nodes = (
"40 560 OFFCURVE",
"205 724 OFFCURVE",
"406 724 CURVE SMOOTH",
"611 724 OFFCURVE",
"774 560 OFFCURVE",
"774 355 CURVE SMOOTH",
"774 155 OFFCURVE",
"611 -12 OFFCURVE",
"406 -12 CURVE SMOOTH",
"205 -12 OFFCURVE",
"40 155 OFFCURVE",
"40 355 CURVE SMOOTH"
);
},
{
closed = 1;
nodes = (
"99 188 OFFCURVE",
"237 48 OFFCURVE",
"404 48 CURVE SMOOTH",
"575 48 OFFCURVE",
"712 188 OFFCURVE",
"712 354 CURVE SMOOTH",
"712 525 OFFCURVE",
"575 663 OFFCURVE",
"404 663 CURVE SMOOTH",
"237 663 OFFCURVE",
"99 525 OFFCURVE",
"99 354 CURVE SMOOTH"
);
}
);
width = 814;
}
);
leftKerningGroup = at;
note = uni2468;
rightKerningGroup = at;
unicode = 2468;
},
{
glyphname = three.ss03;
lastChange = "2020-04-19 16:54:59 +0000";
layers = (
{
layerId = "1C9972D2-AAA2-4EE5-9F28-188B121D2056";
paths = (
{
closed = 1;
nodes = (
"266 350 LINE SMOOTH",
"381 350 OFFCURVE",
"438 298 OFFCURVE",
"438 208 CURVE SMOOTH",
"438 113 OFFCURVE",
"375 62 OFFCURVE",
"270 62 CURVE SMOOTH",
"161 62 OFFCURVE",
"92 141 OFFCURVE",
"93 142 CURVE",
"40 82 LINE",
"40 82 OFFCURVE",
"121 -14 OFFCURVE",
"272 -14 CURVE SMOOTH",
"434 -14 OFFCURVE",
"520 85 OFFCURVE",
"520 208 CURVE SMOOTH",
"520 324 OFFCURVE",
"442 419 OFFCURVE",
"291 421 CURVE",
"511 644 LINE",
"511 712 LINE",
"87 712 LINE",
"87 636 LINE",
"397 636 LINE",
"186 420 LINE",
"186 350 LINE"
);
}
);
width = 580;
}
);
leftMetricsKey = three;
rightMetricsKey = three;
},
{
glyphname = zerosuperior;
lastChange = "2020-04-19 16:54:59 +0000";
layers = (
{
guideLines = (
{
angle = 180;
position = "{-10, 483}";
},
{
angle = 180;
position = "{-8, 840}";
},
{
position = "{-8, 844}";
},
{
angle = 180;
position = "{-8, 479}";
}
);
layerId = "1C9972D2-AAA2-4EE5-9F28-188B121D2056";
paths = (
{
closed = 1;
nodes = (
"277 479 OFFCURVE",
"337 554 OFFCURVE",
"337 662 CURVE SMOOTH",
"337 770 OFFCURVE",
"278 844 OFFCURVE",
"189 844 CURVE SMOOTH",
"101 844 OFFCURVE",
"40 769 OFFCURVE",
"40 662 CURVE SMOOTH",
"40 555 OFFCURVE",
"101 479 OFFCURVE",
"189 479 CURVE SMOOTH"
);
},
{
closed = 1;
nodes = (
"136 538 OFFCURVE",
"101 586 OFFCURVE",
"101 662 CURVE SMOOTH",
"101 738 OFFCURVE",
"136 786 OFFCURVE",
"189 786 CURVE SMOOTH",
"242 786 OFFCURVE",
"277 738 OFFCURVE",
"277 662 CURVE SMOOTH",
"277 586 OFFCURVE",
"242 538 OFFCURVE",
"189 538 CURVE SMOOTH"
);
}
);
width = 377;
}
);
unicode = 2070;
},
{
glyphname = onesuperior;
lastChange = "2020-04-19 16:54:59 +0000";
layers = (
{
guideLines = (
{
angle = 180;
position = "{-48, 483}";
},
{
angle = 180;
position = "{-60, 840}";
}
);
layerId = "1C9972D2-AAA2-4EE5-9F28-188B121D2056";
paths = (
{
closed = 1;
nodes = (
"120 840 LINE",
"40 793 LINE",
"40 735 LINE",
"126 781 LINE",
"126 483 LINE",
"184 483 LINE",
"184 840 LINE"
);
}
);
width = 224;
}
);
leftKerningGroup = uni00B9;
note = uni00B9;
unicode = 00B9;
},
{
glyphname = twosuperior;
lastChange = "2020-04-19 16:54:59 +0000";
layers = (
{
guideLines = (
{
angle = 180;
position = "{30, 483}";
},
{
angle = 180;
position = "{32, 840}";
},
{
position = "{32, 844}";
},
{
angle = 180;
position = "{32, 479}";
}
);
layerId = "1C9972D2-AAA2-4EE5-9F28-188B121D2056";
paths = (
{
closed = 1;
nodes = (
"228 843 OFFCURVE",
"280 798 OFFCURVE",
"280 738 CURVE SMOOTH",
"280 686 OFFCURVE",
"240 645 OFFCURVE",
"227 632 CURVE SMOOTH",
"135 539 LINE",
"285 539 LINE",
"285 484 LINE",
"47 484 LINE",
"47 524 LINE",
"175 658 LINE SMOOTH",
"206 690 OFFCURVE",
"222 705 OFFCURVE",
"222 733 CURVE SMOOTH",
"222 769 OFFCURVE",
"197 789 OFFCURVE",
"163 789 CURVE SMOOTH",
"132 789 OFFCURVE",
"105 772 OFFCURVE",
"95 765 CURVE SMOOTH",
"69 746 LINE",
"40 787 LINE",
"64 807 LINE SMOOTH",
"94 832 OFFCURVE",
"128 844 OFFCURVE",
"165 844 CURVE SMOOTH"
);
}
);
width = 325;
}
);
leftKerningGroup = uni00B2;
note = uni00B2;
unicode = 00B2;
},
{
glyphname = threesuperior;
lastChange = "2020-04-19 16:54:59 +0000";
layers = (
{
guideLines = (
{
angle = 180;
position = "{36, 483}";
},
{
angle = 180;
position = "{38, 840}";
},
{
position = "{38, 844}";
},
{
angle = 180;
position = "{38, 479}";
}
);
layerId = "1C9972D2-AAA2-4EE5-9F28-188B121D2056";
paths = (
{
closed = 1;
nodes = (
"156 649 LINE SMOOTH",
"201 649 OFFCURVE",
"225 631 OFFCURVE",
"225 593 CURVE SMOOTH",
"225 556 OFFCURVE",
"200 535 OFFCURVE",
"158 535 CURVE SMOOTH",
"122 535 OFFCURVE",
"105 539 OFFCURVE",
"73 574 CURVE",
"40 536 LINE",
"62 502 OFFCURVE",
"107 480 OFFCURVE",
"159 480 CURVE SMOOTH",
"235 480 OFFCURVE",
"283 525 OFFCURVE",
"283 593 CURVE SMOOTH",
"283 650 OFFCURVE",
"248 692 OFFCURVE",
"190 702 CURVE",
"279 793 LINE",
"279 839 LINE",
"61 839 LINE",
"61 784 LINE",
"199 784 LINE",
"110 698 LINE",
"110 649 LINE"
);
}
);
width = 323;
}
);
unicode = 00B3;
},
{
glyphname = foursuperior;
lastChange = "2020-04-19 16:54:59 +0000";
layers = (
{
guideLines = (
{
angle = 180;
position = "{30, 483}";
},
{
angle = 180;
position = "{32, 840}";
},
{
position = "{32, 844}";
},
{
angle = 180;
position = "{32, 479}";
}
);
layerId = "1C9972D2-AAA2-4EE5-9F28-188B121D2056";
paths = (
{
closed = 1;
nodes = (
"208 563 LINE",
"208 484 LINE",
"266 484 LINE",
"266 563 LINE",
"328 563 LINE",
"328 619 LINE",
"266 619 LINE",
"266 838 LINE",
"222 838 LINE",
"40 604 LINE",
"40 563 LINE"
);
},
{
closed = 1;
nodes = (
"210 740 LINE",
"209 619 LINE",
"118 619 LINE"
);
}
);
width = 368;
}
);
unicode = 2074;
},
{
glyphname = fivesuperior;
lastChange = "2020-04-19 16:54:59 +0000";
layers = (
{
guideLines = (
{
angle = 180;
position = "{13, 483}";
},
{
angle = 180;
position = "{15, 840}";
},
{
position = "{15, 844}";
},
{
angle = 180;
position = "{15, 479}";
}
);
layerId = "1C9972D2-AAA2-4EE5-9F28-188B121D2056";
paths = (
{
closed = 1;
nodes = (
"62 638 LINE",
"85 646 OFFCURVE",
"113 653 OFFCURVE",
"144 653 CURVE SMOOTH",
"193 653 OFFCURVE",
"227 632 OFFCURVE",
"227 595 CURVE SMOOTH",
"227 561 OFFCURVE",
"202 538 OFFCURVE",
"158 538 CURVE SMOOTH",
"117 538 OFFCURVE",
"95 559 OFFCURVE",
"81 582 CURVE",
"40 544 LINE",
"65 498 OFFCURVE",
"112 479 OFFCURVE",
"162 479 CURVE SMOOTH",
"228 479 OFFCURVE",
"285 524 OFFCURVE",
"285 595 CURVE SMOOTH",
"285 662 OFFCURVE",
"237 709 OFFCURVE",
"162 709 CURVE SMOOTH",
"143 709 OFFCURVE",
"128 706 OFFCURVE",
"117 703 CURVE",
"123 784 LINE",
"269 784 LINE",
"269 839 LINE",
"74 839 LINE"
);
}
);
width = 325;
}
);
unicode = 2075;
},
{
glyphname = sixsuperior;
lastChange = "2020-04-19 16:54:59 +0000";
layers = (
{
guideLines = (
{
angle = 180;
position = "{82, 483}";
},
{
angle = 180;
position = "{84, 840}";
},
{
position = "{84, 844}";
},
{
angle = 180;
position = "{84, 479}";
}
);
layerId = "1C9972D2-AAA2-4EE5-9F28-188B121D2056";
paths = (
{
closed = 1;
nodes = (
"40 547 OFFCURVE",
"90 482 OFFCURVE",
"170 482 CURVE SMOOTH",
"240 482 OFFCURVE",
"293 532 OFFCURVE",
"293 597 CURVE SMOOTH",
"293 663 OFFCURVE",
"239 709 OFFCURVE",
"174 709 CURVE SMOOTH",
"145 709 OFFCURVE",
"122 703 OFFCURVE",
"94 671 CURVE",
"98 742 OFFCURVE",
"128 788 OFFCURVE",
"180 788 CURVE SMOOTH",
"207 788 OFFCURVE",
"236 778 OFFCURVE",
"255 754 CURVE",
"286 786 LINE",
"265 819 OFFCURVE",
"225 841 OFFCURVE",
"180 841 CURVE SMOOTH",
"94 841 OFFCURVE",
"40 772 OFFCURVE",
"40 657 CURVE SMOOTH"
);
},
{
closed = 1;
nodes = (
"108 634 OFFCURVE",
"135 656 OFFCURVE",
"174 656 CURVE SMOOTH",
"211 656 OFFCURVE",
"237 633 OFFCURVE",
"237 598 CURVE SMOOTH",
"237 561 OFFCURVE",
"209 535 OFFCURVE",
"172 535 CURVE SMOOTH",
"137 535 OFFCURVE",
"110 557 OFFCURVE",
"102 597 CURVE"
);
}
);
width = 333;
}
);
unicode = 2076;
},
{
glyphname = sevensuperior;
lastChange = "2020-04-19 16:54:59 +0000";
layers = (
{
guideLines = (
{
angle = 180;
position = "{0, 483}";
},
{
angle = 180;
position = "{2, 840}";
},
{
position = "{2, 844}";
},
{
angle = 180;
position = "{2, 479}";
}
);
layerId = "1C9972D2-AAA2-4EE5-9F28-188B121D2056";
paths = (
{
closed = 1;
nodes = (
"208 785 LINE",
"40 785 LINE",
"40 840 LINE",
"278 840 LINE",
"278 799 LINE",
"116 483 LINE",
"56 483 LINE"
);
}
);
width = 288;
}
);
unicode = 2077;
},
{
glyphname = eightsuperior;
lastChange = "2020-04-19 16:54:59 +0000";
layers = (
{
guideLines = (
{
angle = 180;
position = "{16, 483}";
},
{
angle = 180;
position = "{18, 840}";
},
{
position = "{18, 844}";
},
{
angle = 180;
position = "{18, 479}";
}
);
layerId = "1C9972D2-AAA2-4EE5-9F28-188B121D2056";
paths = (
{
closed = 1;
nodes = (
"40 526 OFFCURVE",
"91 480 OFFCURVE",
"165 480 CURVE SMOOTH",
"237 480 OFFCURVE",
"288 526 OFFCURVE",
"288 589 CURVE SMOOTH",
"288 624 OFFCURVE",
"264 652 OFFCURVE",
"238 670 CURVE",
"238 672 LINE",
"265 692 OFFCURVE",
"279 715 OFFCURVE",
"279 741 CURVE SMOOTH",
"279 802 OFFCURVE",
"236 842 OFFCURVE",
"165 842 CURVE SMOOTH",
"94 842 OFFCURVE",
"49 802 OFFCURVE",
"49 741 CURVE SMOOTH",
"49 712 OFFCURVE",
"70 682 OFFCURVE",
"91 672 CURVE",
"91 670 LINE",
"65 652 OFFCURVE",
"40 622 OFFCURVE",
"40 589 CURVE SMOOTH"
);
},
{
closed = 1;
nodes = (
"98 621 OFFCURVE",
"126 645 OFFCURVE",
"165 645 CURVE SMOOTH",
"202 645 OFFCURVE",
"230 621 OFFCURVE",
"230 589 CURVE SMOOTH",
"230 558 OFFCURVE",
"201 536 OFFCURVE",
"165 536 CURVE SMOOTH",
"127 536 OFFCURVE",
"98 558 OFFCURVE",
"98 589 CURVE SMOOTH"
);
},
{
closed = 1;
nodes = (
"107 770 OFFCURVE",
"131 787 OFFCURVE",
"165 787 CURVE SMOOTH",
"198 787 OFFCURVE",
"221 770 OFFCURVE",
"221 742 CURVE SMOOTH",
"221 713 OFFCURVE",
"199 694 OFFCURVE",
"165 694 CURVE SMOOTH",
"130 694 OFFCURVE",
"107 713 OFFCURVE",
"107 742 CURVE SMOOTH"
);
}
);
width = 328;
}
);
unicode = 2078;
},
{
glyphname = fraction;
lastChange = "2020-04-19 16:54:59 +0000";
layers = (
{
layerId = "1C9972D2-AAA2-4EE5-9F28-188B121D2056";
paths = (
{
closed = 1;
nodes = (
"78 38 LINE",
"126 4 LINE",
"672 681 LINE",
"626 712 LINE"
);
}
);
width = 475.65;
}
);
unicode = 2044;
},
{
glyphname = onehalf;
lastChange = "2020-04-19 16:54:59 +0000";
layers = (
{
components = (
{
name = twosuperior;
transform = "{1, 0, 0, 1, 395, -483}";
},
{
name = onesuperior;
transform = "{1, 0, 0, 1, 16, -127}";
}
);
layerId = "1C9972D2-AAA2-4EE5-9F28-188B121D2056";
paths = (
{
closed = 1;
nodes = (
"50 38 LINE",
"98 4 LINE",
"644 681 LINE",
"598 712 LINE"
);
}
);
width = 740;
}
);
note = onehalf;
rightKerningGroup = one.numr;
unicode = 00BD;
},
{
glyphname = uni2153;
lastChange = "2020-04-19 16:54:59 +0000";
layers = (
{
components = (
{
name = onesuperior;
transform = "{1, 0, 0, 1, 15, -128}";
},
{
name = threesuperior;
transform = "{1, 0, 0, 1, 402, -483}";
}
);
layerId = "1C9972D2-AAA2-4EE5-9F28-188B121D2056";
paths = (
{
closed = 1;
nodes = (
"50 38 LINE",
"98 4 LINE",
"644 681 LINE",
"598 712 LINE"
);
}
);
width = 740;
}
);
note = uni2153;
unicode = 2153;
},
{
glyphname = uni2154;
lastChange = "2020-04-19 16:54:59 +0000";
layers = (
{
components = (
{
name = twosuperior;
transform = "{1, 0, 0, 1, 10, -129}";
},
{
name = threesuperior;
transform = "{1, 0, 0, 1, 459, -487}";
}
);
layerId = "1C9972D2-AAA2-4EE5-9F28-188B121D2056";
paths = (
{
closed = 1;
nodes = (
"123 38 LINE",
"171 4 LINE",
"717 681 LINE",
"671 712 LINE"
);
}
);
width = 813;
}
);
note = uni2154;
unicode = 2154;
},
{
glyphname = onequarter;
lastChange = "2020-04-19 16:54:59 +0000";
layers = (
{
components = (
{
name = onesuperior;
transform = "{1, 0, 0, 1, 37, -123}";
},
{
name = foursuperior;
transform = "{1, 0, 0, 1, 396, -490}";
}
);
layerId = "1C9972D2-AAA2-4EE5-9F28-188B121D2056";
paths = (
{
closed = 1;
nodes = (
"98 38 LINE",
"146 4 LINE",
"692 681 LINE",
"646 712 LINE"
);
}
);
width = 795;
}
);
leftKerningGroup = four.dnom;
note = onequarter;
unicode = 00BC;
},
{
glyphname = threequarters;
lastChange = "2020-04-19 16:54:59 +0000";
layers = (
{
components = (
{
name = foursuperior;
transform = "{1, 0, 0, 1, 409, -481}";
},
{
name = threesuperior;
transform = "{1, 0, 0, 1, -4, -128}";
}
);
layerId = "1C9972D2-AAA2-4EE5-9F28-188B121D2056";
paths = (
{
closed = 1;
nodes = (
"98 38 LINE",
"146 4 LINE",
"692 681 LINE",
"646 712 LINE"
);
}
);
width = 777;
}
);
note = threequarters;
unicode = 00BE;
},
{
glyphname = oneeighth;
lastChange = "2020-04-19 16:54:59 +0000";
layers = (
{
components = (
{
name = onesuperior;
transform = "{1, 0, 0, 1, 0, -127}";
},
{
name = eightsuperior;
transform = "{1, 0, 0, 1, 436, -485}";
}
);
layerId = "1C9972D2-AAA2-4EE5-9F28-188B121D2056";
paths = (
{
closed = 1;
nodes = (
"50 38 LINE",
"98 4 LINE",
"644 681 LINE",
"598 712 LINE"
);
}
);
width = 764;
}
);
leftKerningGroup = eight.dnom;
note = oneeighth;
unicode = 215B;
},
{
glyphname = threeeighths;
lastChange = "2020-04-19 16:54:59 +0000";
layers = (
{
components = (
{
name = eightsuperior;
transform = "{1, 0, 0, 1, 436, -485}";
},
{
name = threesuperior;
transform = "{1, 0, 0, 1, -4, -128}";
}
);
layerId = "1C9972D2-AAA2-4EE5-9F28-188B121D2056";
paths = (
{
closed = 1;
nodes = (
"50 38 LINE",
"98 4 LINE",
"644 681 LINE",
"598 712 LINE"
);
}
);
width = 764;
}
);
note = threeeighths;
unicode = 215C;
},
{
glyphname = fiveeighths;
lastChange = "2020-04-19 16:54:59 +0000";
layers = (
{
components = (
{
name = eightsuperior;
transform = "{1, 0, 0, 1, 467, -485}";
},
{
name = fivesuperior;
transform = "{1, 0, 0, 1, 0, -130}";
}
);
layerId = "1C9972D2-AAA2-4EE5-9F28-188B121D2056";
paths = (
{
closed = 1;
nodes = (
"81 38 LINE",
"129 4 LINE",
"675 681 LINE",
"629 712 LINE"
);
}
);
width = 795;
}
);
note = fiveeighths;
unicode = 215D;
},
{
glyphname = seveneighths;
lastChange = "2020-04-19 16:54:59 +0000";
layers = (
{
components = (
{
name = eightsuperior;
transform = "{1, 0, 0, 1, 464, -485}";
},
{
name = sevensuperior;
transform = "{1, 0, 0, 1, 0, -126}";
}
);
layerId = "1C9972D2-AAA2-4EE5-9F28-188B121D2056";
paths = (
{
closed = 1;
nodes = (
"78 38 LINE",
"126 4 LINE",
"672 681 LINE",
"626 712 LINE"
);
}
);
width = 792;
}
);
note = seveneighths;
rightKerningGroup = seven.numr;
unicode = 215E;
},
{
glyphname = period;
lastChange = "2020-04-19 16:54:59 +0000";
layers = (
{
guideLines = (
{
angle = 180;
position = "{-16, 104}";
}
);
layerId = "1C9972D2-AAA2-4EE5-9F28-188B121D2056";
paths = (
{
closed = 1;
nodes = (
"180 25 OFFCURVE",
"153 -1 OFFCURVE",
"118 -1 CURVE SMOOTH",
"81 -1 OFFCURVE",
"55 25 OFFCURVE",
"55 62 CURVE SMOOTH",
"55 97 OFFCURVE",
"81 124 OFFCURVE",
"118 124 CURVE SMOOTH",
"153 124 OFFCURVE",
"180 97 OFFCURVE",
"180 62 CURVE SMOOTH"
);
}
);
width = 235;
}
);
leftKerningGroup = comma;
note = period;
unicode = 002E;
},
{
glyphname = comma;
lastChange = "2020-04-19 16:54:59 +0000";
layers = (
{
guideLines = (
{
angle = 180;
position = "{-35, 104}";
},
{
position = "{-97, -127}";
},
{
angle = 180;
position = "{-5, -47}";
}
);
layerId = "1C9972D2-AAA2-4EE5-9F28-188B121D2056";
paths = (
{
closed = 1;
nodes = (
"212 88 LINE",
"88 -120 LINE",
"35 -92 LINE",
"131 127 LINE"
);
}
);
width = 267;
}
);
leftKerningGroup = comma;
note = comma;
rightKerningGroup = comma;
unicode = 002C;
},
{
glyphname = exclam;
lastChange = "2020-04-19 16:54:59 +0000";
layers = (
{
components = (
{
name = period;
transform = "{1, 0, 0, 1, 35, 0}";
}
);
layerId = "1C9972D2-AAA2-4EE5-9F28-188B121D2056";
paths = (
{
closed = 1;
nodes = (
"184 203 LINE",
"194 713 LINE",
"105 713 LINE",
"117 203 LINE"
);
}
);
width = 325;
}
);
leftKerningGroup = exclam;
note = exclam;
unicode = 0021;
},
{
glyphname = question;
lastChange = "2020-04-19 16:54:59 +0000";
layers = (
{
components = (
{
name = period;
transform = "{1, 0, 0, 1, 96, 0}";
}
);
layerId = "1C9972D2-AAA2-4EE5-9F28-188B121D2056";
paths = (
{
closed = 1;
nodes = (
"64 590 LINE",
"64 590 OFFCURVE",
"123 644 OFFCURVE",
"216 644 CURVE SMOOTH",
"303 644 OFFCURVE",
"358 596 OFFCURVE",
"358 529 CURVE SMOOTH",
"358 417 OFFCURVE",
"185 374 OFFCURVE",
"185 243 CURVE SMOOTH",
"185 197 LINE",
"249 197 LINE",
"251 229 LINE SMOOTH",
"258 346 OFFCURVE",
"440 367 OFFCURVE",
"440 537 CURVE SMOOTH",
"440 650 OFFCURVE",
"354 720 OFFCURVE",
"216 720 CURVE SMOOTH",
"100 720 OFFCURVE",
"30 657 OFFCURVE",
"30 657 CURVE"
);
}
);
width = 480;
}
);
leftKerningGroup = question;
note = question;
rightKerningGroup = question;
unicode = 003F;
},
{
glyphname = bullet;
lastChange = "2020-04-19 16:54:59 +0000";
layers = (
{
layerId = "1C9972D2-AAA2-4EE5-9F28-188B121D2056";
paths = (
{
closed = 1;
nodes = (
"263 424 OFFCURVE",
"316 372 OFFCURVE",
"316 306 CURVE",
"316 241 OFFCURVE",
"263 188 OFFCURVE",
"198 188 CURVE",
"133 188 OFFCURVE",
"80 241 OFFCURVE",
"80 306 CURVE",
"80 372 OFFCURVE",
"133 424 OFFCURVE",
"198 424 CURVE"
);
}
);
width = 396;
}
);
leftKerningGroup = bullet;
unicode = 2022;
},
{
glyphname = asterisk;
lastChange = "2020-04-19 16:54:59 +0000";
layers = (
{
layerId = "1C9972D2-AAA2-4EE5-9F28-188B121D2056";
paths = (
{
closed = 1;
nodes = (
"233 609 LINE",
"351 657 LINE",
"374 590 LINE",
"249 562 LINE",
"332 452 LINE",
"277 411 LINE",
"202 529 LINE",
"132 411 LINE",
"76 452 LINE",
"158 562 LINE",
"35 590 LINE",
"56 658 LINE",
"176 609 LINE",
"169 743 LINE",
"241 743 LINE"
);
}
);
width = 409;
}
);
leftKerningGroup = asterisk;
note = asterisk;
unicode = 002A;
},
{
glyphname = numbersign;
lastChange = "2020-04-19 16:54:59 +0000";
layers = (
{
layerId = "1C9972D2-AAA2-4EE5-9F28-188B121D2056";
paths = (
{
closed = 1;
nodes = (
"372 708 LINE",
"286 708 LINE",
"234 516 LINE",
"74 516 LINE",
"74 434 LINE",
"211 434 LINE",
"170 275 LINE",
"10 275 LINE",
"10 193 LINE",
"146 193 LINE",
"96 1 LINE",
"182 1 LINE",
"233 193 LINE",
"391 193 LINE",
"341 1 LINE",
"427 1 LINE",
"478 193 LINE",
"640 193 LINE",
"640 275 LINE",
"501 275 LINE",
"542 434 LINE",
"704 434 LINE",
"704 516 LINE",
"566 516 LINE",
"617 708 LINE",
"531 708 LINE",
"479 516 LINE",
"321 516 LINE"
);
},
{
closed = 1;
nodes = (
"256 275 LINE",
"297 434 LINE",
"456 434 LINE",
"415 275 LINE"
);
}
);
width = 714;
}
);
leftKerningGroup = numbersign;
note = numbersign;
rightKerningGroup = numbersign;
unicode = 0023;
},
{
glyphname = slash;
lastChange = "2020-04-19 16:54:59 +0000";
layers = (
{
guideLines = (
{
position = "{-160, 713}";
},
{
position = "{-199, -127}";
}
);
layerId = "1C9972D2-AAA2-4EE5-9F28-188B121D2056";
paths = (
{
closed = 1;
nodes = (
"266 713 LINE",
"5 -127 LINE",
"92 -127 LINE",
"354 713 LINE"
);
}
);
width = 359;
}
);
leftKerningGroup = slash;
note = slash;
rightKerningGroup = slash;
unicode = 002F;
},
{
glyphname = backslash;
lastChange = "2020-04-19 16:54:59 +0000";
layers = (
{
guideLines = (
{
position = "{300, 713}";
},
{
position = "{261, -127}";
}
);
layerId = "1C9972D2-AAA2-4EE5-9F28-188B121D2056";
paths = (
{
closed = 1;
nodes = (
"298 -127 LINE",
"385 -127 LINE",
"124 713 LINE",
"36 713 LINE"
);
}
);
width = 359;
}
);
leftKerningGroup = backslash;
rightKerningGroup = backslash;
unicode = 005C;
},
{
glyphname = parenleft;
lastChange = "2020-04-19 16:54:59 +0000";
layers = (
{
guideLines = (
{
position = "{-26, 713}";
},
{
position = "{-65, -127}";
},
{
position = "{-37, 745}";
}
);
layerId = "1C9972D2-AAA2-4EE5-9F28-188B121D2056";
paths = (
{
closed = 1;
nodes = (
"80 113 OFFCURVE",
"180 -60 OFFCURVE",
"329 -125 CURVE",
"364 -56 LINE",
"241 -3 OFFCURVE",
"162 141 OFFCURVE",
"162 309 CURVE SMOOTH",
"162 478 OFFCURVE",
"241 622 OFFCURVE",
"364 675 CURVE",
"329 743 LINE",
"178 678 OFFCURVE",
"80 507 OFFCURVE",
"80 309 CURVE SMOOTH"
);
}
);
width = 384;
}
);
leftKerningGroup = parenleft;
note = parenleft;
rightKerningGroup = parenleft;
unicode = 0028;
},
{
glyphname = parenright;
lastChange = "2020-04-19 16:54:59 +0000";
layers = (
{
guideLines = (
{
position = "{-55, 713}";
},
{
position = "{-94, -127}";
},
{
position = "{-102, -145}";
},
{
position = "{-63, 745}";
}
);
layerId = "1C9972D2-AAA2-4EE5-9F28-188B121D2056";
paths = (
{
closed = 1;
nodes = (
"304 507 OFFCURVE",
"206 678 OFFCURVE",
"55 743 CURVE",
"20 675 LINE",
"143 622 OFFCURVE",
"222 478 OFFCURVE",
"222 309 CURVE SMOOTH",
"222 141 OFFCURVE",
"143 -3 OFFCURVE",
"20 -56 CURVE",
"55 -125 LINE",
"204 -60 OFFCURVE",
"304 113 OFFCURVE",
"304 309 CURVE SMOOTH"
);
}
);
width = 384;
}
);
leftKerningGroup = parenright;
note = parenright;
rightKerningGroup = parenright;
unicode = 0029;
},
{
glyphname = braceleft;
lastChange = "2020-04-19 16:54:59 +0000";
layers = (
{
guideLines = (
{
position = "{-66, 745}";
},
{
position = "{-105, -145}";
}
);
layerId = "1C9972D2-AAA2-4EE5-9F28-188B121D2056";
paths = (
{
closed = 1;
nodes = (
"361 -144 LINE",
"266 -144 LINE SMOOTH",
"174 -144 OFFCURVE",
"118 -89 OFFCURVE",
"124 -7 CURVE SMOOTH",
"137 189 LINE SMOOTH",
"141 235 OFFCURVE",
"99 266 OFFCURVE",
"40 264 CURVE",
"40 340 LINE",
"95 336 OFFCURVE",
"140 367 OFFCURVE",
"137 408 CURVE SMOOTH",
"124 603 LINE SMOOTH",
"118 688 OFFCURVE",
"175 744 OFFCURVE",
"271 744 CURVE SMOOTH",
"361 744 LINE",
"361 667 LINE",
"270 667 LINE SMOOTH",
"223 667 OFFCURVE",
"202 642 OFFCURVE",
"206 597 CURVE SMOOTH",
"220 417 LINE SMOOTH",
"223 352 OFFCURVE",
"175 294 OFFCURVE",
"106 286 CURVE",
"106 316 LINE",
"173 310 OFFCURVE",
"223 249 OFFCURVE",
"220 185 CURVE SMOOTH",
"206 3 LINE SMOOTH",
"202 -41 OFFCURVE",
"224 -67 OFFCURVE",
"270 -67 CURVE SMOOTH",
"361 -67 LINE"
);
}
);
width = 376;
}
);
leftKerningGroup = braceleft;
rightKerningGroup = braceleft;
unicode = 007B;
},
{
glyphname = braceright;
lastChange = "2020-04-19 16:54:59 +0000";
layers = (
{
guideLines = (
{
position = "{8, 713}";
},
{
position = "{-31, -127}";
},
{
angle = 180;
position = "{61, 633}";
},
{
angle = 180;
position = "{61, -47}";
}
);
layerId = "1C9972D2-AAA2-4EE5-9F28-188B121D2056";
paths = (
{
closed = 1;
nodes = (
"135 -67 LINE SMOOTH",
"181 -67 OFFCURVE",
"202 -41 OFFCURVE",
"199 3 CURVE SMOOTH",
"185 185 LINE SMOOTH",
"180 249 OFFCURVE",
"232 310 OFFCURVE",
"299 316 CURVE",
"299 286 LINE",
"230 294 OFFCURVE",
"180 352 OFFCURVE",
"185 417 CURVE SMOOTH",
"199 597 LINE SMOOTH",
"203 642 OFFCURVE",
"182 667 OFFCURVE",
"135 667 CURVE SMOOTH",
"44 667 LINE",
"44 744 LINE",
"134 744 LINE SMOOTH",
"230 744 OFFCURVE",
"287 688 OFFCURVE",
"281 603 CURVE SMOOTH",
"268 408 LINE SMOOTH",
"265 367 OFFCURVE",
"310 336 OFFCURVE",
"365 340 CURVE",
"365 264 LINE",
"306 266 OFFCURVE",
"265 235 OFFCURVE",
"268 189 CURVE SMOOTH",
"281 -7 LINE SMOOTH",
"286 -89 OFFCURVE",
"231 -144 OFFCURVE",
"139 -144 CURVE SMOOTH",
"44 -144 LINE",
"44 -67 LINE"
);
}
);
width = 411;
}
);
leftKerningGroup = parenright;
rightKerningGroup = parenright;
unicode = 007D;
},
{
glyphname = bracketleft;
lastChange = "2020-04-19 16:54:59 +0000";
layers = (
{
guideLines = (
{
position = "{-41, 745}";
},
{
position = "{-80, -145}";
},
{
angle = 180;
position = "{12, 633}";
},
{
angle = 180;
position = "{12, -47}";
}
);
layerId = "1C9972D2-AAA2-4EE5-9F28-188B121D2056";
paths = (
{
closed = 1;
nodes = (
"100 -145 LINE",
"100 745 LINE",
"314 745 LINE",
"314 669 LINE",
"182 669 LINE",
"182 -69 LINE",
"314 -69 LINE",
"314 -145 LINE"
);
}
);
width = 334;
}
);
leftKerningGroup = parenleft;
rightKerningGroup = parenleft;
unicode = 005B;
},
{
glyphname = bracketright;
lastChange = "2020-04-19 16:54:59 +0000";
layers = (
{
guideLines = (
{
position = "{-144, 713}";
},
{
position = "{-183, -127}";
}
);
layerId = "1C9972D2-AAA2-4EE5-9F28-188B121D2056";
paths = (
{
closed = 1;
nodes = (
"20 -69 LINE",
"152 -69 LINE",
"152 669 LINE",
"20 669 LINE",
"20 745 LINE",
"234 745 LINE",
"234 -145 LINE",
"20 -145 LINE"
);
}
);
width = 334;
}
);
leftKerningGroup = parenright;
rightKerningGroup = parenright;
unicode = 005D;
},
{
glyphname = parenleftsuperior;
lastChange = "2020-04-19 16:54:59 +0000";
layers = (
{
layerId = "1C9972D2-AAA2-4EE5-9F28-188B121D2056";
paths = (
{
closed = 1;
nodes = (
"40 543 OFFCURVE",
"82 433 OFFCURVE",
"155 358 CURVE",
"195 402 LINE",
"133 472 OFFCURVE",
"101 557 OFFCURVE",
"101 650 CURVE SMOOTH",
"101 742 OFFCURVE",
"129 816 OFFCURVE",
"196 892 CURVE",
"155 936 LINE",
"80 859 OFFCURVE",
"40 758 OFFCURVE",
"40 650 CURVE SMOOTH"
);
}
);
width = 245;
}
);
unicode = 207D;
},
{
glyphname = hyphen;
lastChange = "2020-04-19 16:54:59 +0000";
layers = (
{
layerId = "1C9972D2-AAA2-4EE5-9F28-188B121D2056";
paths = (
{
closed = 1;
nodes = (
"289 240 LINE",
"289 316 LINE",
"70 316 LINE",
"70 240 LINE"
);
}
);
width = 359;
}
);
note = hyphen;
unicode = 002D;
},
{
glyphname = endash;
lastChange = "2020-04-19 16:54:59 +0000";
layers = (
{
guideLines = (
{
position = "{-29, 713}";
},
{
position = "{-29, 713}";
},
{
position = "{7, 287}";
},
{
position = "{7, 206}";
}
);
layerId = "1C9972D2-AAA2-4EE5-9F28-188B121D2056";
paths = (
{
closed = 1;
nodes = (
"480 240 LINE",
"480 316 LINE",
"40 316 LINE",
"40 240 LINE"
);
}
);
width = 520;
}
);
rightKerningGroup = hyphen;
unicode = 2013;
},
{
glyphname = emdash;
lastChange = "2020-04-19 16:54:59 +0000";
layers = (
{
guideLines = (
{
position = "{35, 287}";
},
{
position = "{35, 206}";
}
);
layerId = "1C9972D2-AAA2-4EE5-9F28-188B121D2056";
paths = (
{
closed = 1;
nodes = (
"980 240 LINE",
"980 316 LINE",
"40 316 LINE",
"40 240 LINE"
);
}
);
width = 1020;
}
);
leftKerningGroup = hyphen;
rightKerningGroup = hyphen;
unicode = 2014;
},
{
glyphname = guillemetleft;
lastChange = "2020-04-19 16:54:59 +0000";
layers = (
{
layerId = "1C9972D2-AAA2-4EE5-9F28-188B121D2056";
paths = (
{
closed = 1;
nodes = (
"137 262 LINE",
"266 86 LINE",
"173 84 LINE",
"45 263 LINE",
"173 441 LINE",
"267 441 LINE"
);
},
{
closed = 1;
nodes = (
"317 262 LINE",
"446 86 LINE",
"353 84 LINE",
"225 263 LINE",
"353 441 LINE",
"447 441 LINE"
);
}
);
width = 472;
}
);
leftKerningGroup = less;
rightKerningGroup = less;
unicode = 00AB;
},
{
glyphname = guilsinglleft;
lastChange = "2020-04-19 16:54:59 +0000";
layers = (
{
layerId = "1C9972D2-AAA2-4EE5-9F28-188B121D2056";
paths = (
{
closed = 1;
nodes = (
"122 262 LINE",
"251 86 LINE",
"158 84 LINE",
"30 263 LINE",
"158 441 LINE",
"252 441 LINE"
);
}
);
width = 302;
}
);
leftKerningGroup = less;
rightKerningGroup = less;
unicode = 2039;
},
{
glyphname = quotesingle;
lastChange = "2020-04-19 16:54:59 +0000";
layers = (
{
layerId = "1C9972D2-AAA2-4EE5-9F28-188B121D2056";
paths = (
{
closed = 1;
nodes = (
"60 520 LINE",
"142 520 LINE",
"142 713 LINE",
"60 713 LINE"
);
}
);
width = 203;
}
);
leftKerningGroup = quotesingle;
note = quotesingle;
rightKerningGroup = quotesingle;
unicode = 0027;
},
{
glyphname = .notdef;
lastChange = "2020-04-19 16:54:59 +0000";
layers = (
{
layerId = "1C9972D2-AAA2-4EE5-9F28-188B121D2056";
paths = (
{
closed = 1;
nodes = (
"1082.577 216 OFFCURVE",
"1150.158 283.581 OFFCURVE",
"1150.158 366.945 CURVE",
"1150.158 450.309 OFFCURVE",
"1082.577 517.89 OFFCURVE",
"999.213 517.89 CURVE",
"915.85 517.89 OFFCURVE",
"848.268 450.309 OFFCURVE",
"848.268 366.945 CURVE",
"848.268 283.581 OFFCURVE",
"915.85 216 OFFCURVE",
"999.213 216 CURVE"
);
},
{
closed = 1;
nodes = (
"210.945 224.386 LINE",
"210.945 509.504 LINE",
"60 509.504 LINE",
"60 224.29 LINE"
);
},
{
closed = 1;
nodes = (
"523.217 224.386 LINE",
"523.217 509.504 LINE",
"381.01 509.504 LINE",
"381.01 406.56 LINE",
"238.794 516.095 LINE",
"238.794 224.386 LINE"
);
},
{
closed = 1;
nodes = (
"833.492 224.386 LINE",
"833.492 509.504 LINE",
"691.285 509.504 LINE",
"691.285 406.56 LINE",
"549.07 516.095 LINE",
"549.07 224.386 LINE"
);
}
);
width = 1210.16;
}
);
note = .notdef;
},
{
glyphname = cent;
lastChange = "2020-04-19 16:54:59 +0000";
layers = (
{
components = (
{
name = c;
}
);
layerId = "1C9972D2-AAA2-4EE5-9F28-188B121D2056";
paths = (
{
closed = 1;
nodes = (
"317 -111 LINE",
"317 587 LINE",
"247 587 LINE",
"247 -111 LINE"
);
}
);
width = 525;
}
);
leftKerningGroup = c;
leftMetricsKey = c;
rightKerningGroup = c;
rightMetricsKey = c;
unicode = 00A2;
},
{
glyphname = currency;
lastChange = "2020-04-19 16:54:59 +0000";
layers = (
{
layerId = "1C9972D2-AAA2-4EE5-9F28-188B121D2056";
paths = (
{
closed = 1;
nodes = (
"466 193 LINE",
"419 145 LINE",
"330 233 LINE",
"377 281 LINE"
);
},
{
closed = 1;
nodes = (
"386 436 LINE",
"338 484 LINE",
"419 565 LINE",
"466 517 LINE"
);
},
{
closed = 1;
nodes = (
"44 517 LINE",
"92 565 LINE",
"163 494 LINE",
"115 445 LINE"
);
},
{
closed = 1;
nodes = (
"92 144 LINE",
"44 192 LINE",
"134 281 LINE",
"181 234 LINE"
);
},
{
closed = 1;
nodes = (
"149 173 OFFCURVE",
"70 250 OFFCURVE",
"70 357 CURVE SMOOTH",
"70 465 OFFCURVE",
"147 540 OFFCURVE",
"257 540 CURVE SMOOTH",
"368 540 OFFCURVE",
"445 465 OFFCURVE",
"445 357 CURVE SMOOTH",
"445 250 OFFCURVE",
"366 173 OFFCURVE",
"257 173 CURVE SMOOTH"
);
},
{
closed = 1;
nodes = (
"144 291 OFFCURVE",
"192 242 OFFCURVE",
"257 242 CURVE SMOOTH",
"323 242 OFFCURVE",
"371 290 OFFCURVE",
"371 357 CURVE SMOOTH",
"371 426 OFFCURVE",
"326 471 OFFCURVE",
"257 471 CURVE SMOOTH",
"190 471 OFFCURVE",
"144 425 OFFCURVE",
"144 357 CURVE SMOOTH"
);
}
);
width = 529;
}
);
note = currency;
unicode = 00A4;
},
{
glyphname = dollar;
lastChange = "2020-04-19 16:54:59 +0000";
layers = (
{
layerId = "1C9972D2-AAA2-4EE5-9F28-188B121D2056";
paths = (
{
closed = 1;
nodes = (
"40 71 LINE",
"40 71 OFFCURVE",
"108 -3 OFFCURVE",
"256 -11 CURVE",
"256 -121 LINE",
"326 -121 LINE",
"326 -11 LINE",
"469 2 OFFCURVE",
"543 82 OFFCURVE",
"543 186 CURVE SMOOTH",
"543 288 OFFCURVE",
"492 350 OFFCURVE",
"326 400 CURVE",
"326 643 LINE",
"426 633 OFFCURVE",
"477 585 OFFCURVE",
"477 585 CURVE",
"521 653 LINE",
"521 653 OFFCURVE",
"463 712 OFFCURVE",
"326 721 CURVE",
"326 843 LINE",
"256 843 LINE",
"256 721 LINE",
"122 711 OFFCURVE",
"41 639 OFFCURVE",
"41 533 CURVE SMOOTH",
"41 431 OFFCURVE",
"107 380 OFFCURVE",
"256 333 CURVE",
"256 67 LINE",
"145 75 OFFCURVE",
"84 134 OFFCURVE",
"84 134 CURVE"
);
},
{
closed = 1;
nodes = (
"459 123 OFFCURVE",
"419 77 OFFCURVE",
"326 67 CURVE",
"326 310 LINE",
"429 275 OFFCURVE",
"459 242 OFFCURVE",
"459 185 CURVE SMOOTH"
);
},
{
closed = 1;
nodes = (
"125 596 OFFCURVE",
"179 635 OFFCURVE",
"256 643 CURVE",
"256 422 LINE",
"157 455 OFFCURVE",
"125 484 OFFCURVE",
"125 533 CURVE SMOOTH"
);
}
);
width = 573;
}
);
leftKerningGroup = S;
note = dollar;
rightKerningGroup = S;
unicode = 0024;
},
{
glyphname = euro;
lastChange = "2020-04-19 16:54:59 +0000";
layers = (
{
layerId = "1C9972D2-AAA2-4EE5-9F28-188B121D2056";
paths = (
{
closed = 1;
nodes = (
"456 305 LINE",
"206 305 LINE",
"203 322 OFFCURVE",
"203 339 OFFCURVE",
"203 358 CURVE SMOOTH",
"203 378 OFFCURVE",
"204 396 OFFCURVE",
"206 415 CURVE",
"456 415 LINE",
"456 479 LINE",
"216 479 LINE",
"241 578 OFFCURVE",
"301 646 OFFCURVE",
"416 646 CURVE SMOOTH",
"513 646 OFFCURVE",
"565 576 OFFCURVE",
"565 576 CURVE",
"606 638 LINE",
"606 638 OFFCURVE",
"546 723 OFFCURVE",
"414 723 CURVE SMOOTH",
"256 723 OFFCURVE",
"164 617 OFFCURVE",
"130 479 CURVE",
"40 479 LINE",
"40 415 LINE",
"119 415 LINE",
"118 396 OFFCURVE",
"117 376 OFFCURVE",
"117 358 CURVE SMOOTH",
"117 340 OFFCURVE",
"117 323 OFFCURVE",
"119 305 CURVE",
"40 305 LINE",
"40 241 LINE",
"130 241 LINE",
"162 100 OFFCURVE",
"255 -12 OFFCURVE",
"414 -12 CURVE SMOOTH",
"546 -12 OFFCURVE",
"604 72 OFFCURVE",
"604 72 CURVE",
"565 131 LINE",
"565 131 OFFCURVE",
"513 63 OFFCURVE",
"416 63 CURVE SMOOTH",
"299 63 OFFCURVE",
"238 137 OFFCURVE",
"215 241 CURVE",
"456 241 LINE"
);
}
);
width = 646;
}
);
leftKerningGroup = C;
leftMetricsKey = C;
rightKerningGroup = C;
rightMetricsKey = C;
unicode = 20AC;
},
{
glyphname = hryvnia;
lastChange = "2020-04-19 16:54:59 +0000";
layers = (
{
layerId = "1C9972D2-AAA2-4EE5-9F28-188B121D2056";
paths = (
{
closed = 1;
nodes = (
"668 380 LINE",
"668 460 LINE",
"622 460 LINE",
"622 506 LINE",
"622 626 OFFCURVE",
"532 721 OFFCURVE",
"375 724 CURVE",
"227 724 OFFCURVE",
"132 647 OFFCURVE",
"96 540 CURVE",
"189 540 LINE",
"219 602 OFFCURVE",
"272 644 OFFCURVE",
"375 644 CURVE",
"483 643 OFFCURVE",
"536 582 OFFCURVE",
"536 506 CURVE",
"536 460 LINE",
"25 460 LINE",
"25 380 LINE"
);
},
{
closed = 1;
nodes = (
"501 -11 OFFCURVE",
"595 66 OFFCURVE",
"631 173 CURVE",
"539 173 LINE",
"509 111 OFFCURVE",
"456 69 OFFCURVE",
"352 69 CURVE",
"245 70 OFFCURVE",
"192 131 OFFCURVE",
"192 207 CURVE",
"192 253 LINE",
"668 253 LINE",
"668 334 LINE",
"25 334 LINE",
"25 253 LINE",
"105 253 LINE",
"105 207 LINE",
"105 87 OFFCURVE",
"196 -8 OFFCURVE",
"352 -11 CURVE"
);
}
);
width = 698;
}
);
leftKerningGroup = dollar;
rightKerningGroup = dollar;
unicode = 20B4;
},
{
glyphname = ruble;
lastChange = "2020-04-19 16:54:59 +0000";
layers = (
{
layerId = "1C9972D2-AAA2-4EE5-9F28-188B121D2056";
paths = (
{
closed = 1;
nodes = (
"194 0 LINE",
"194 713 LINE",
"276 713 LINE",
"276 0 LINE"
);
},
{
closed = 1;
nodes = (
"235 635 LINE",
"235 713 LINE",
"440 713 LINE SMOOTH",
"577 713 OFFCURVE",
"674 623 OFFCURVE",
"674 498 CURVE SMOOTH",
"674 371 OFFCURVE",
"576 279 OFFCURVE",
"440 279 CURVE SMOOTH",
"65 279 LINE",
"65 357 LINE",
"440 357 LINE SMOOTH",
"532 357 OFFCURVE",
"591 412 OFFCURVE",
"591 498 CURVE SMOOTH",
"591 583 OFFCURVE",
"533 635 OFFCURVE",
"440 635 CURVE SMOOTH"
);
},
{
closed = 1;
nodes = (
"489 195 LINE",
"489 119 LINE",
"65 119 LINE",
"65 195 LINE"
);
}
);
width = 734;
}
);
leftKerningGroup = P;
rightKerningGroup = P;
rightMetricsKey = P;
unicode = 20BD;
},
{
glyphname = sterling;
lastChange = "2020-04-19 16:54:59 +0000";
layers = (
{
layerId = "1C9972D2-AAA2-4EE5-9F28-188B121D2056";
paths = (
{
closed = 1;
nodes = (
"40 0 LINE",
"40 71 LINE",
"140 71 LINE",
"167 71 LINE",
"556 71 LINE",
"556 0 LINE"
);
},
{
closed = 1;
nodes = (
"483 376 LINE",
"483 300 LINE",
"59 300 LINE",
"59 376 LINE"
);
},
{
closed = 1;
nodes = (
"177 467 OFFCURVE",
"206 421 OFFCURVE",
"236 375 CURVE SMOOTH",
"255 346 OFFCURVE",
"273 317 OFFCURVE",
"285 287 CURVE SMOOTH",
"304 240 OFFCURVE",
"303 185 OFFCURVE",
"279 134 CURVE SMOOTH",
"254 80 OFFCURVE",
"199 46 OFFCURVE",
"128 36 CURVE",
"46 56 LINE",
"48 71 LINE",
"98 71 OFFCURVE",
"170 103 OFFCURVE",
"201 145 CURVE SMOOTH",
"223 175 OFFCURVE",
"228 226 OFFCURVE",
"210 272 CURVE SMOOTH",
"200 297 OFFCURVE",
"183 318 OFFCURVE",
"167 343 CURVE SMOOTH",
"134 394 OFFCURVE",
"96 447 OFFCURVE",
"96 520 CURVE SMOOTH",
"96 639 OFFCURVE",
"189 725 OFFCURVE",
"324 725 CURVE SMOOTH",
"454 725 OFFCURVE",
"539 649 OFFCURVE",
"554 528 CURVE",
"479 509 LINE",
"467 602 OFFCURVE",
"415 649 OFFCURVE",
"323 649 CURVE SMOOTH",
"228 649 OFFCURVE",
"177 604 OFFCURVE",
"177 520 CURVE SMOOTH"
);
}
);
width = 596;
}
);
leftKerningGroup = dollar;
rightKerningGroup = dollar;
unicode = 00A3;
},
{
glyphname = yen;
lastChange = "2020-04-19 16:54:59 +0000";
layers = (
{
layerId = "1C9972D2-AAA2-4EE5-9F28-188B121D2056";
paths = (
{
closed = 1;
nodes = (
"27 268 LINE",
"27 341 LINE",
"567 341 LINE",
"567 268 LINE"
);
},
{
closed = 1;
nodes = (
"511 712 LINE",
"605 712 LINE",
"333 310 LINE",
"261 310 LINE",
"-10 712 LINE",
"87 712 LINE",
"300 395 LINE"
);
},
{
closed = 1;
nodes = (
"256 1 LINE",
"256 333 LINE",
"338 333 LINE",
"338 1 LINE"
);
},
{
closed = 1;
nodes = (
"27 108 LINE",
"27 181 LINE",
"567 181 LINE",
"567 108 LINE"
);
}
);
width = 595;
}
);
leftKerningGroup = Y;
leftMetricsKey = Y;
rightKerningGroup = Y;
rightMetricsKey = Y;
unicode = 00A5;
},
{
glyphname = divisionslash;
lastChange = "2020-04-19 16:54:59 +0000";
layers = (
{
layerId = "1C9972D2-AAA2-4EE5-9F28-188B121D2056";
paths = (
{
closed = 1;
nodes = (
"623 686 LINE",
"566 731 LINE",
"-1 8 LINE",
"57 -35 LINE"
);
}
);
width = 614;
}
);
unicode = 2215;
},
{
glyphname = plus;
lastChange = "2020-04-19 16:54:59 +0000";
layers = (
{
guideLines = (
{
position = "{24, 345}";
},
{
position = "{30, 273}";
}
);
layerId = "1C9972D2-AAA2-4EE5-9F28-188B121D2056";
paths = (
{
closed = 1;
nodes = (
"60 274 LINE",
"60 344 LINE",
"510 344 LINE",
"510 274 LINE"
);
},
{
closed = 1;
nodes = (
"245 534 LINE",
"321 534 LINE",
"321 84 LINE",
"245 84 LINE"
);
}
);
width = 570;
}
);
note = plus;
unicode = 002B;
},
{
glyphname = minus;
lastChange = "2020-04-19 16:54:59 +0000";
layers = (
{
associatedMasterId = "1C9972D2-AAA2-4EE5-9F28-188B121D2056";
components = (
{
name = strokeshortcomb;
transform = "{1, 0, 0, 1, 0, 45}";
}
);
layerId = "CAA188E2-8C62-414B-93AE-B576BEB044DB";
width = 540;
},
{
guideLines = (
{
position = "{24, 345}";
},
{
position = "{30, 273}";
}
);
layerId = "1C9972D2-AAA2-4EE5-9F28-188B121D2056";
paths = (
{
closed = 1;
nodes = (
"65 273 LINE",
"65 343 LINE",
"485 343 LINE",
"485 273 LINE"
);
}
);
width = 550;
},
{
associatedMasterId = "1C9972D2-AAA2-4EE5-9F28-188B121D2056";
layerId = "A2873047-0ED6-4C67-9B4D-3870B51BD5C6";
name = "new Layer";
width = 600;
},
{
associatedMasterId = "1C9972D2-AAA2-4EE5-9F28-188B121D2056";
layerId = "55314CA7-5524-4D70-B802-98D4FAE25636";
name = "new Layer";
width = 525;
},
{
associatedMasterId = "1C9972D2-AAA2-4EE5-9F28-188B121D2056";
layerId = "13A3DD5D-E91B-4961-8595-F8141D3FA442";
name = "new Layer";
width = 588;
}
);
leftKerningGroup = strokeshortcomb;
rightKerningGroup = strokeshortcomb;
unicode = 2212;
},
{
glyphname = multiply;
lastChange = "2020-04-19 16:54:59 +0000";
layers = (
{
guideLines = (
{
position = "{23, 345}";
},
{
position = "{29, 273}";
}
);
layerId = "1C9972D2-AAA2-4EE5-9F28-188B121D2056";
paths = (
{
closed = 1;
nodes = (
"63 442 LINE",
"113 492 LINE",
"431 173 LINE",
"381 124 LINE"
);
},
{
closed = 1;
nodes = (
"378 495 LINE",
"432 441 LINE",
"113 123 LINE",
"60 177 LINE"
);
}
);
width = 492;
}
);
leftKerningGroup = plus;
leftMetricsKey = plus;
rightKerningGroup = plus;
rightMetricsKey = plus;
unicode = 00D7;
},
{
glyphname = divide;
lastChange = "2020-04-19 16:54:59 +0000";
layers = (
{
guideLines = (
{
position = "{24, 345}";
},
{
position = "{30, 273}";
}
);
layerId = "1C9972D2-AAA2-4EE5-9F28-188B121D2056";
paths = (
{
closed = 1;
nodes = (
"239 409 OFFCURVE",
"215 433 OFFCURVE",
"215 464 CURVE SMOOTH",
"215 498 OFFCURVE",
"238 519 OFFCURVE",
"270 519 CURVE SMOOTH",
"298 519 OFFCURVE",
"325 500 OFFCURVE",
"325 464 CURVE SMOOTH",
"325 433 OFFCURVE",
"301 409 OFFCURVE",
"270 409 CURVE SMOOTH"
);
},
{
closed = 1;
nodes = (
"244 103 OFFCURVE",
"220 128 OFFCURVE",
"220 157 CURVE SMOOTH",
"220 190 OFFCURVE",
"243 213 OFFCURVE",
"275 213 CURVE SMOOTH",
"303 213 OFFCURVE",
"330 194 OFFCURVE",
"330 157 CURVE SMOOTH",
"330 128 OFFCURVE",
"305 103 OFFCURVE",
"275 103 CURVE SMOOTH"
);
},
{
closed = 1;
nodes = (
"65 273 LINE",
"65 343 LINE",
"485 343 LINE",
"485 273 LINE"
);
}
);
width = 536;
}
);
leftKerningGroup = minus;
note = divide;
rightKerningGroup = minus;
unicode = 00F7;
},
{
glyphname = equal;
lastChange = "2020-04-19 16:54:59 +0000";
layers = (
{
guideLines = (
{
position = "{24, 345}";
},
{
position = "{30, 273}";
}
);
layerId = "1C9972D2-AAA2-4EE5-9F28-188B121D2056";
paths = (
{
closed = 1;
nodes = (
"65 339 LINE",
"65 409 LINE",
"485 409 LINE",
"485 339 LINE"
);
},
{
closed = 1;
nodes = (
"65 158 LINE",
"65 228 LINE",
"485 228 LINE",
"485 158 LINE"
);
}
);
width = 550;
}
);
note = equal;
unicode = 003D;
},
{
glyphname = notequal;
lastChange = "2020-04-19 16:54:59 +0000";
layers = (
{
guideLines = (
{
position = "{-78, 483}";
},
{
position = "{-81, 35}";
},
{
position = "{-80, 300}";
},
{
angle = 180;
position = "{-78, 219}";
}
);
layerId = "1C9972D2-AAA2-4EE5-9F28-188B121D2056";
paths = (
{
closed = 1;
nodes = (
"201 78 LINE",
"129 78 LINE",
"334 492 LINE",
"407 492 LINE"
);
},
{
closed = 1;
nodes = (
"65 339 LINE",
"65 409 LINE",
"485 409 LINE",
"485 339 LINE"
);
},
{
closed = 1;
nodes = (
"65 158 LINE",
"65 228 LINE",
"485 228 LINE",
"485 158 LINE"
);
}
);
width = 550;
}
);
leftMetricsKey = equal;
rightMetricsKey = equal;
unicode = 2260;
},
{
glyphname = greater;
lastChange = "2020-04-19 16:54:59 +0000";
layers = (
{
guideLines = (
{
position = "{-93, 483}";
},
{
position = "{-96, 35}";
},
{
position = "{-95, 300}";
},
{
angle = 180;
position = "{-93, 219}";
}
);
layerId = "1C9972D2-AAA2-4EE5-9F28-188B121D2056";
paths = (
{
closed = 1;
nodes = (
"402 258 LINE",
"402 325 LINE",
"40 511 LINE",
"40 429 LINE",
"366 267 LINE",
"366 318 LINE",
"40 157 LINE",
"40 74 LINE"
);
}
);
width = 442;
}
);
note = greater;
unicode = 003E;
},
{
glyphname = less;
lastChange = "2020-04-19 16:54:59 +0000";
layers = (
{
guideLines = (
{
position = "{-406, 459}";
},
{
position = "{-102, 483}";
},
{
position = "{-105, 35}";
},
{
position = "{-104, 300}";
},
{
angle = 180;
position = "{-102, 219}";
}
);
layerId = "1C9972D2-AAA2-4EE5-9F28-188B121D2056";
paths = (
{
closed = 1;
nodes = (
"402 157 LINE",
"76 318 LINE",
"76 267 LINE",
"402 429 LINE",
"402 511 LINE",
"40 325 LINE",
"40 258 LINE",
"402 74 LINE"
);
}
);
width = 442;
}
);
leftMetricsKey = greater;
note = less;
rightMetricsKey = greater;
unicode = 003C;
},
{
glyphname = greaterequal;
lastChange = "2020-04-19 16:54:59 +0000";
layers = (
{
layerId = "1C9972D2-AAA2-4EE5-9F28-188B121D2056";
paths = (
{
closed = 1;
nodes = (
"422 274 LINE",
"422 347 LINE",
"66 508 LINE",
"66 428 LINE",
"385 289 LINE",
"385 332 LINE",
"66 194 LINE",
"66 115 LINE"
);
},
{
closed = 1;
nodes = (
"65 0 LINE",
"65 70 LINE",
"428 70 LINE",
"428 0 LINE"
);
}
);
width = 493;
}
);
leftMetricsKey = equal;
rightMetricsKey = equal;
unicode = 2265;
},
{
glyphname = lessequal;
lastChange = "2020-04-19 16:54:59 +0000";
layers = (
{
layerId = "1C9972D2-AAA2-4EE5-9F28-188B121D2056";
paths = (
{
closed = 1;
nodes = (
"427 194 LINE",
"108 332 LINE",
"108 289 LINE",
"427 428 LINE",
"427 508 LINE",
"71 347 LINE",
"71 274 LINE",
"427 115 LINE"
);
},
{
closed = 1;
nodes = (
"65 70 LINE",
"428 70 LINE",
"428 0 LINE",
"65 0 LINE"
);
}
);
width = 493;
}
);
leftMetricsKey = equal;
rightMetricsKey = equal;
unicode = 2264;
},
{
glyphname = plusminus;
lastChange = "2020-04-19 16:54:59 +0000";
layers = (
{
layerId = "1C9972D2-AAA2-4EE5-9F28-188B121D2056";
paths = (
{
closed = 1;
nodes = (
"48 258 LINE",
"48 328 LINE",
"481 328 LINE",
"481 258 LINE"
);
},
{
closed = 1;
nodes = (
"301 109 LINE",
"225 109 LINE",
"225 485 LINE",
"301 485 LINE"
);
},
{
closed = 1;
nodes = (
"48 0 LINE",
"48 70 LINE",
"481 70 LINE",
"481 0 LINE"
);
}
);
width = 553;
}
);
unicode = 00B1;
},
{
glyphname = logicalnot;
lastChange = "2020-04-19 16:54:59 +0000";
layers = (
{
layerId = "1C9972D2-AAA2-4EE5-9F28-188B121D2056";
paths = (
{
closed = 1;
nodes = (
"60 335 LINE",
"60 405 LINE",
"540 405 LINE",
"540 335 LINE"
);
},
{
closed = 1;
nodes = (
"540 163 LINE",
"465 163 LINE",
"465 382 LINE",
"540 382 LINE"
);
}
);
width = 600;
}
);
leftKerningGroup = hyphen;
unicode = 00AC;
userData = {
interface.gridadjust.original = "{'width': 1565, 'leftMargin': 176, 'rightMargin': 241}";
"interface.width-adjustments" = (
-16
);
};
},
{
glyphname = asciicircum;
lastChange = "2020-04-19 16:54:59 +0000";
layers = (
{
layerId = "1C9972D2-AAA2-4EE5-9F28-188B121D2056";
paths = (
{
closed = 1;
nodes = (
"288 713 LINE",
"473 338 LINE",
"392 338 LINE",
"229 676 LINE",
"280 676 LINE",
"117 338 LINE",
"36 338 LINE",
"220 713 LINE"
);
}
);
width = 515;
}
);
unicode = 005E;
},
{
glyphname = product;
lastChange = "2020-04-19 16:54:59 +0000";
layers = (
{
layerId = "1C9972D2-AAA2-4EE5-9F28-188B121D2056";
paths = (
{
closed = 1;
nodes = (
"55 -203 LINE",
"55 721 LINE",
"136 721 LINE",
"136 -203 LINE"
);
},
{
closed = 1;
nodes = (
"534 -203 LINE",
"534 721 LINE",
"615 721 LINE",
"615 -203 LINE"
);
},
{
closed = 1;
nodes = (
"88 647 LINE",
"88 721 LINE",
"575 721 LINE",
"575 647 LINE"
);
}
);
width = 670;
}
);
note = product;
unicode = 220F;
},
{
glyphname = summation;
lastChange = "2020-04-19 16:54:59 +0000";
layers = (
{
layerId = "1C9972D2-AAA2-4EE5-9F28-188B121D2056";
paths = (
{
closed = 1;
nodes = (
"56 637 LINE",
"56 713 LINE",
"619 713 LINE",
"619 637 LINE"
);
},
{
closed = 1;
nodes = (
"56 -178 LINE",
"56 -102 LINE",
"619 -102 LINE",
"619 -178 LINE"
);
},
{
closed = 1;
nodes = (
"57 -102 LINE",
"415 318 LINE",
"415 241 LINE",
"56 637 LINE",
"157 637 LINE",
"487 279 LINE",
"163 -102 LINE"
);
}
);
width = 659;
}
);
note = summation;
unicode = 2211;
},
{
glyphname = micro;
lastChange = "2020-04-19 16:54:59 +0000";
layers = (
{
associatedMasterId = "1C9972D2-AAA2-4EE5-9F28-188B121D2056";
guideLines = (
{
position = "{1416, 692}";
},
{
position = "{1416, 304}";
},
{
position = "{1320, 400}";
},
{
alignment = center;
angle = 90;
position = "{872, -184}";
}
);
layerId = "C698F293-3EC0-4A5A-A3A0-0FDB1F5CF265";
name = Regular;
paths = (
{
closed = 1;
nodes = (
"452 -576 LINE",
"452 228 LINE",
"464 228 LINE",
"548 66 OFFCURVE",
"705 -20 OFFCURVE",
"876 -20 CURVE SMOOTH",
"1047 -20 OFFCURVE",
"1205 66 OFFCURVE",
"1288 228 CURVE",
"1300 228 LINE",
"1300 0 LINE",
"1536 0 LINE",
"1536 1536 LINE",
"1300 1536 LINE",
"1300 628 LINE SMOOTH",
"1300 380 OFFCURVE",
"1132 208 OFFCURVE",
"876 208 CURVE SMOOTH",
"620 208 OFFCURVE",
"452 378 OFFCURVE",
"452 628 CURVE SMOOTH",
"452 1536 LINE",
"216 1536 LINE",
"216 -576 LINE"
);
}
);
width = 1752;
},
{
associatedMasterId = "1C9972D2-AAA2-4EE5-9F28-188B121D2056";
background = {
paths = (
{
closed = 1;
nodes = (
"1269 520 OFFCURVE",
"1181 428 OFFCURVE",
"1044 428 CURVE SMOOTH",
"905 428 OFFCURVE",
"825 520 OFFCURVE",
"824 672 CURVE SMOOTH",
"824 1536 LINE",
"272 1536 LINE",
"272 556 LINE SMOOTH",
"273 220 OFFCURVE",
"485 -20 OFFCURVE",
"808 -20 CURVE SMOOTH",
"1037 -20 OFFCURVE",
"1213 96 OFFCURVE",
"1280 292 CURVE",
"1296 292 LINE",
"1296 0 LINE",
"1820 0 LINE",
"1820 1536 LINE",
"1268 1536 LINE",
"1268 672 LINE SMOOTH"
);
}
);
};
guideLines = (
{
alignment = center;
angle = 90;
position = "{1160, 668}";
}
);
layerId = "5C20EF92-B63D-42A8-8878-93C2863E0093";
name = Black;
paths = (
{
closed = 1;
nodes = (
"664 -544 LINE",
"664 212 LINE",
"676 212 LINE",
"723 98 OFFCURVE",
"838 28 OFFCURVE",
"980 28 CURVE SMOOTH",
"1122 28 OFFCURVE",
"1237 98 OFFCURVE",
"1284 212 CURVE",
"1296 212 LINE",
"1296 0 LINE",
"1820 0 LINE",
"1820 1536 LINE",
"1268 1536 LINE",
"1268 672 LINE SMOOTH",
"1269 529 OFFCURVE",
"1150 428 OFFCURVE",
"980 428 CURVE SMOOTH",
"812 428 OFFCURVE",
"693 529 OFFCURVE",
"692 672 CURVE SMOOTH",
"692 1536 LINE",
"140 1536 LINE",
"140 -544 LINE"
);
}
);
width = 1960;
},
{
associatedMasterId = "1C9972D2-AAA2-4EE5-9F28-188B121D2056";
guideLines = (
{
position = "{1240, 692}";
},
{
position = "{916, 304}";
},
{
position = "{900, 400}";
}
);
layerId = "11F4534A-B963-4AB5-820F-DAF9A20CD933";
name = Italic;
paths = (
{
closed = 1;
nodes = (
"228 -576 LINE",
"364 228 LINE",
"376 228 LINE",
"432 68 OFFCURVE",
"576 -20 OFFCURVE",
"744 -20 CURVE SMOOTH",
"916 -20 OFFCURVE",
"1088 68 OFFCURVE",
"1200 228 CURVE",
"1212 228 LINE",
"1172 0 LINE",
"1408 0 LINE",
"1664 1536 LINE",
"1428 1536 LINE",
"1276 628 LINE SMOOTH",
"1236 380 OFFCURVE",
"1040 208 OFFCURVE",
"784 208 CURVE SMOOTH",
"528 208 OFFCURVE",
"388 380 OFFCURVE",
"428 628 CURVE SMOOTH",
"580 1536 LINE",
"344 1536 LINE",
"-8 -576 LINE"
);
}
);
width = 1752;
},
{
associatedMasterId = "1C9972D2-AAA2-4EE5-9F28-188B121D2056";
guideLines = (
{
position = "{-396, 276}";
},
{
position = "{0, 752}";
}
);
layerId = "D0EC06BF-13F9-4C88-A6F5-B8203AF6C77E";
name = "Black Italic";
paths = (
{
closed = 1;
nodes = (
"448 -544 LINE",
"572 212 LINE",
"584 212 LINE",
"613 100 OFFCURVE",
"717 28 OFFCURVE",
"856 28 CURVE SMOOTH",
"1001 28 OFFCURVE",
"1125 100 OFFCURVE",
"1192 212 CURVE",
"1204 212 LINE",
"1168 0 LINE",
"1692 0 LINE",
"1948 1536 LINE",
"1396 1536 LINE",
"1252 672 LINE SMOOTH",
"1229 528 OFFCURVE",
"1093 428 OFFCURVE",
"924 428 CURVE SMOOTH",
"757 428 OFFCURVE",
"653 528 OFFCURVE",
"676 672 CURVE SMOOTH",
"820 1536 LINE",
"268 1536 LINE",
"-76 -544 LINE"
);
}
);
width = 1960;
},
{
components = (
{
name = u;
transform = "{1, 0, 0, 1, 4, 0}";
}
);
layerId = "1C9972D2-AAA2-4EE5-9F28-188B121D2056";
paths = (
{
closed = 1;
nodes = (
"138 -220 LINE",
"138 483 LINE",
"69 483 LINE",
"69 -220 LINE"
);
}
);
width = 548;
}
);
leftKerningGroup = u;
rightKerningGroup = u;
unicode = 00B5;
userData = {
com.typemytype.robofont.guideline.magnetic.8IeEFgbS4T = 5;
com.typemytype.robofont.guideline.magnetic.eXsOmptB9v = 5;
com.typemytype.robofont.guideline.magnetic.s5uJiJNNNn = 5;
interface.gridadjust.original = "{'width': 1796, 'leftMargin': 256, 'rightMargin': 292}";
"interface.width-adjustments" = (
-16
);
};
},
{
glyphname = percent;
lastChange = "2020-04-19 16:54:59 +0000";
layers = (
{
layerId = "1C9972D2-AAA2-4EE5-9F28-188B121D2056";
paths = (
{
closed = 1;
nodes = (
"105 374 OFFCURVE",
"32 447 OFFCURVE",
"32 546 CURVE SMOOTH",
"32 644 OFFCURVE",
"106 718 OFFCURVE",
"205 718 CURVE SMOOTH",
"305 718 OFFCURVE",
"378 646 OFFCURVE",
"378 546 CURVE SMOOTH",
"378 446 OFFCURVE",
"306 374 OFFCURVE",
"205 374 CURVE SMOOTH"
);
},
{
closed = 1;
nodes = (
"311 608 OFFCURVE",
"265 655 OFFCURVE",
"205 655 CURVE SMOOTH",
"145 655 OFFCURVE",
"100 609 OFFCURVE",
"100 546 CURVE SMOOTH",
"100 482 OFFCURVE",
"143 437 OFFCURVE",
"205 437 CURVE SMOOTH",
"266 437 OFFCURVE",
"311 483 OFFCURVE",
"311 546 CURVE SMOOTH"
);
},
{
closed = 1;
nodes = (
"526 -16 OFFCURVE",
"452 57 OFFCURVE",
"452 157 CURVE SMOOTH",
"452 256 OFFCURVE",
"525 328 OFFCURVE",
"625 328 CURVE SMOOTH",
"725 328 OFFCURVE",
"798 257 OFFCURVE",
"798 157 CURVE SMOOTH",
"798 57 OFFCURVE",
"725 -16 OFFCURVE",
"625 -16 CURVE SMOOTH"
);
},
{
closed = 1;
nodes = (
"730 220 OFFCURVE",
"686 265 OFFCURVE",
"625 265 CURVE SMOOTH",
"564 265 OFFCURVE",
"519 219 OFFCURVE",
"519 157 CURVE SMOOTH",
"519 94 OFFCURVE",
"564 47 OFFCURVE",
"625 47 CURVE SMOOTH",
"686 47 OFFCURVE",
"730 93 OFFCURVE",
"730 157 CURVE SMOOTH"
);
},
{
closed = 1;
nodes = (
"161 -29 LINE",
"108 9 LINE",
"675 730 LINE",
"728 692 LINE"
);
}
);
width = 805;
}
);
leftKerningGroup = percent;
note = percent;
rightKerningGroup = percent;
unicode = 0025;
},
{
glyphname = perthousand;
lastChange = "2020-04-19 16:54:59 +0000";
layers = (
{
components = (
{
name = percent;
}
);
layerId = "1C9972D2-AAA2-4EE5-9F28-188B121D2056";
paths = (
{
closed = 1;
nodes = (
"804 -16 OFFCURVE",
"730 57 OFFCURVE",
"730 157 CURVE SMOOTH",
"730 256 OFFCURVE",
"803 328 OFFCURVE",
"903 328 CURVE SMOOTH",
"1003 328 OFFCURVE",
"1076 257 OFFCURVE",
"1076 157 CURVE SMOOTH",
"1076 57 OFFCURVE",
"1003 -16 OFFCURVE",
"903 -16 CURVE SMOOTH"
);
},
{
closed = 1;
nodes = (
"1008 220 OFFCURVE",
"964 265 OFFCURVE",
"903 265 CURVE SMOOTH",
"842 265 OFFCURVE",
"797 219 OFFCURVE",
"797 157 CURVE SMOOTH",
"797 94 OFFCURVE",
"842 47 OFFCURVE",
"903 47 CURVE SMOOTH",
"964 47 OFFCURVE",
"1008 93 OFFCURVE",
"1008 157 CURVE SMOOTH"
);
}
);
width = 1170;
}
);
leftKerningGroup = perthousand;
note = perthousand;
rightKerningGroup = perthousand;
unicode = 2030;
},
{
glyphname = plussuperior;
lastChange = "2020-04-19 16:54:59 +0000";
layers = (
{
layerId = "1C9972D2-AAA2-4EE5-9F28-188B121D2056";
paths = (
{
closed = 1;
nodes = (
"219 816 LINE",
"161 816 LINE",
"161 714 LINE",
"50 713 LINE",
"50 656 LINE",
"161 657 LINE",
"161 542 LINE",
"219 542 LINE",
"219 657 LINE",
"340 656 LINE",
"340 714 LINE",
"219 714 LINE"
);
}
);
width = 390;
}
);
unicode = 207A;
},
{
glyphname = upArrow;
lastChange = "2020-04-19 16:54:59 +0000";
layers = (
{
layerId = "1C9972D2-AAA2-4EE5-9F28-188B121D2056";
paths = (
{
closed = 1;
nodes = (
"425 0 LINE",
"343 0 LINE",
"343 637 LINE",
"425 637 LINE"
);
},
{
closed = 1;
nodes = (
"384 713 LINE",
"707 402 LINE",
"653 348 LINE",
"384 615 LINE",
"113 350 LINE",
"60 402 LINE"
);
}
);
width = 767;
}
);
unicode = 2191;
},
{
glyphname = northEastArrow;
lastChange = "2020-04-19 16:54:59 +0000";
layers = (
{
layerId = "1C9972D2-AAA2-4EE5-9F28-188B121D2056";
paths = (
{
closed = 1;
nodes = (
"118 81 LINE",
"60 139 LINE",
"510 589 LINE",
"568 531 LINE"
);
},
{
closed = 1;
nodes = (
"594 621 LINE",
"594 166 LINE",
"518 166 LINE",
"518 545 LINE",
"145 545 LINE",
"144 621 LINE"
);
}
);
width = 654;
}
);
leftMetricsKey = upArrow;
rightMetricsKey = upArrow;
unicode = 2197;
},
{
glyphname = rightArrow;
lastChange = "2020-04-19 16:54:59 +0000";
layers = (
{
associatedMasterId = "1C9972D2-AAA2-4EE5-9F28-188B121D2056";
components = (
{
alignment = 1;
name = leftArrow;
transform = "{-1, 0, 0, 1, 838, 0}";
}
);
layerId = "CAA188E2-8C62-414B-93AE-B576BEB044DB";
width = 838;
},
{
layerId = "1C9972D2-AAA2-4EE5-9F28-188B121D2056";
paths = (
{
closed = 1;
nodes = (
"60 319 LINE",
"60 401 LINE",
"697 401 LINE",
"697 319 LINE"
);
},
{
closed = 1;
nodes = (
"779 361 LINE",
"457 40 LINE",
"403 93 LINE",
"671 361 LINE",
"407 625 LINE",
"460 680 LINE"
);
}
);
width = 839;
},
{
associatedMasterId = "1C9972D2-AAA2-4EE5-9F28-188B121D2056";
layerId = "A2873047-0ED6-4C67-9B4D-3870B51BD5C6";
name = "new Layer";
width = 600;
},
{
associatedMasterId = "1C9972D2-AAA2-4EE5-9F28-188B121D2056";
layerId = "55314CA7-5524-4D70-B802-98D4FAE25636";
name = "new Layer";
width = 1071;
},
{
associatedMasterId = "1C9972D2-AAA2-4EE5-9F28-188B121D2056";
layerId = "13A3DD5D-E91B-4961-8595-F8141D3FA442";
name = "new Layer";
width = 675;
}
);
leftKerningGroup = emdash;
leftMetricsKey = upArrow;
rightKerningGroup = greater;
rightMetricsKey = upArrow;
unicode = 2192;
},
{
glyphname = southEastArrow;
lastChange = "2020-04-19 16:54:59 +0000";
layers = (
{
layerId = "1C9972D2-AAA2-4EE5-9F28-188B121D2056";
paths = (
{
closed = 1;
nodes = (
"60 557 LINE",
"118 615 LINE",
"568 164 LINE",
"510 106 LINE"
);
},
{
closed = 1;
nodes = (
"598 78 LINE",
"143 79 LINE",
"142 154 LINE",
"521 154 LINE",
"521 528 LINE",
"598 529 LINE"
);
}
);
width = 658;
}
);
leftMetricsKey = upArrow;
rightMetricsKey = upArrow;
unicode = 2198;
},
{
glyphname = downArrow;
lastChange = "2020-04-19 16:54:59 +0000";
layers = (
{
associatedMasterId = "1C9972D2-AAA2-4EE5-9F28-188B121D2056";
components = (
{
name = upArrow;
transform = "{1, 0, 0, -1, 0, 650}";
}
);
layerId = "CAA188E2-8C62-414B-93AE-B576BEB044DB";
width = 702;
},
{
layerId = "1C9972D2-AAA2-4EE5-9F28-188B121D2056";
paths = (
{
closed = 1;
nodes = (
"339 713 LINE",
"421 713 LINE",
"420 76 LINE",
"338 76 LINE"
);
},
{
closed = 1;
nodes = (
"381 -6 LINE",
"60 316 LINE",
"112 370 LINE",
"380 102 LINE",
"644 367 LINE",
"700 313 LINE"
);
}
);
width = 760;
},
{
associatedMasterId = "1C9972D2-AAA2-4EE5-9F28-188B121D2056";
layerId = "A2873047-0ED6-4C67-9B4D-3870B51BD5C6";
name = "new Layer";
width = 600;
},
{
associatedMasterId = "1C9972D2-AAA2-4EE5-9F28-188B121D2056";
layerId = "55314CA7-5524-4D70-B802-98D4FAE25636";
name = "new Layer";
width = 626;
},
{
associatedMasterId = "1C9972D2-AAA2-4EE5-9F28-188B121D2056";
layerId = "13A3DD5D-E91B-4961-8595-F8141D3FA442";
name = "new Layer";
width = 604;
}
);
leftMetricsKey = upArrow;
rightMetricsKey = upArrow;
unicode = 2193;
},
{
glyphname = southWestArrow;
lastChange = "2020-04-19 16:54:59 +0000";
layers = (
{
layerId = "1C9972D2-AAA2-4EE5-9F28-188B121D2056";
paths = (
{
closed = 1;
nodes = (
"538 655 LINE",
"596 597 LINE",
"145 147 LINE",
"87 205 LINE"
);
},
{
closed = 1;
nodes = (
"60 117 LINE",
"60 571 LINE",
"135 573 LINE",
"135 194 LINE",
"509 194 LINE",
"511 117 LINE"
);
}
);
width = 656;
}
);
leftMetricsKey = upArrow;
rightMetricsKey = upArrow;
unicode = 2199;
},
{
glyphname = leftArrow;
lastChange = "2020-04-19 16:54:59 +0000";
layers = (
{
layerId = "1C9972D2-AAA2-4EE5-9F28-188B121D2056";
paths = (
{
closed = 1;
nodes = (
"778 404 LINE",
"778 322 LINE",
"141 323 LINE",
"141 405 LINE"
);
},
{
closed = 1;
nodes = (
"60 362 LINE",
"381 683 LINE",
"435 631 LINE",
"167 363 LINE",
"432 99 LINE",
"378 43 LINE"
);
}
);
width = 838;
}
);
leftKerningGroup = less;
leftMetricsKey = upArrow;
rightKerningGroup = emdash;
rightMetricsKey = upArrow;
unicode = 2190;
},
{
glyphname = northWestArrow;
lastChange = "2020-04-19 16:54:59 +0000";
layers = (
{
layerId = "1C9972D2-AAA2-4EE5-9F28-188B121D2056";
paths = (
{
closed = 1;
nodes = (
"598 155 LINE",
"540 97 LINE",
"91 548 LINE",
"149 606 LINE"
);
},
{
closed = 1;
nodes = (
"61 633 LINE",
"515 633 LINE",
"516 558 LINE",
"137 558 LINE",
"138 184 LINE",
"60 183 LINE"
);
}
);
width = 658;
}
);
leftMetricsKey = upArrow;
rightMetricsKey = upArrow;
unicode = 2196;
},
{
glyphname = leftRightArrow;
lastChange = "2020-04-19 16:54:59 +0000";
layers = (
{
layerId = "1C9972D2-AAA2-4EE5-9F28-188B121D2056";
paths = (
{
closed = 1;
nodes = (
"60 362 LINE",
"381 683 LINE",
"435 631 LINE",
"167 363 LINE",
"432 99 LINE",
"378 43 LINE"
);
},
{
closed = 1;
nodes = (
"909 323 LINE",
"142 322 LINE",
"142 404 LINE",
"909 405 LINE"
);
},
{
closed = 1;
nodes = (
"618 99 LINE",
"883 363 LINE",
"615 631 LINE",
"669 683 LINE",
"990 362 LINE",
"672 43 LINE"
);
}
);
width = 1050;
}
);
leftMetricsKey = upArrow;
rightMetricsKey = upArrow;
unicode = 2194;
},
{
glyphname = upDownArrow;
lastChange = "2020-04-19 16:54:59 +0000";
layers = (
{
layerId = "1C9972D2-AAA2-4EE5-9F28-188B121D2056";
paths = (
{
closed = 1;
nodes = (
"379 792 LINE",
"700 471 LINE",
"648 417 LINE",
"380 685 LINE",
"116 420 LINE",
"60 474 LINE"
);
},
{
closed = 1;
nodes = (
"340 -57 LINE",
"339 710 LINE",
"421 710 LINE",
"422 -57 LINE"
);
},
{
closed = 1;
nodes = (
"116 234 LINE",
"380 -31 LINE",
"648 237 LINE",
"700 183 LINE",
"379 -138 LINE",
"60 180 LINE"
);
}
);
width = 760;
}
);
leftMetricsKey = upArrow;
rightMetricsKey = upArrow;
unicode = 2195;
},
{
glyphname = uni25CF;
lastChange = "2020-04-19 16:54:59 +0000";
layers = (
{
layerId = "1C9972D2-AAA2-4EE5-9F28-188B121D2056";
paths = (
{
closed = 1;
nodes = (
"612 -12 OFFCURVE",
"777 153 OFFCURVE",
"777 357 CURVE",
"777 560 OFFCURVE",
"612 725 OFFCURVE",
"409 725 CURVE",
"205 725 OFFCURVE",
"40 560 OFFCURVE",
"40 357 CURVE",
"40 153 OFFCURVE",
"205 -12 OFFCURVE",
"409 -12 CURVE"
);
}
);
width = 817;
}
);
leftMetricsKey = O;
note = uni25CF;
rightMetricsKey = O;
unicode = 25CF;
},
{
glyphname = circle;
lastChange = "2020-04-19 16:54:59 +0000";
layers = (
{
layerId = "1C9972D2-AAA2-4EE5-9F28-188B121D2056";
paths = (
{
closed = 1;
nodes = (
"612 -12 OFFCURVE",
"777 153 OFFCURVE",
"777 357 CURVE",
"777 560 OFFCURVE",
"612 725 OFFCURVE",
"409 725 CURVE",
"205 725 OFFCURVE",
"40 560 OFFCURVE",
"40 357 CURVE",
"40 153 OFFCURVE",
"205 -12 OFFCURVE",
"409 -12 CURVE"
);
},
{
closed = 1;
nodes = (
"253 69 OFFCURVE",
"126 198 OFFCURVE",
"126 357 CURVE",
"126 516 OFFCURVE",
"253 645 OFFCURVE",
"409 645 CURVE",
"565 645 OFFCURVE",
"691 516 OFFCURVE",
"691 357 CURVE",
"691 198 OFFCURVE",
"565 69 OFFCURVE",
"409 69 CURVE"
);
}
);
width = 817;
}
);
leftKerningGroup = at;
leftMetricsKey = O;
note = circle;
rightKerningGroup = at;
rightMetricsKey = O;
unicode = 25CB;
},
{
glyphname = lozenge;
lastChange = "2020-04-19 16:54:59 +0000";
layers = (
{
layerId = "1C9972D2-AAA2-4EE5-9F28-188B121D2056";
paths = (
{
closed = 1;
nodes = (
"119 347 LINE",
"291 77 LINE",
"464 347 LINE",
"291 617 LINE"
);
},
{
closed = 1;
nodes = (
"27 347 LINE",
"244 679 LINE",
"338 679 LINE",
"555 347 LINE",
"338 15 LINE",
"244 15 LINE"
);
}
);
width = 575;
}
);
note = lozenge;
unicode = 25CA;
},
{
glyphname = at;
lastChange = "2020-04-19 16:54:59 +0000";
layers = (
{
layerId = "1C9972D2-AAA2-4EE5-9F28-188B121D2056";
paths = (
{
closed = 1;
nodes = (
"684 0 LINE",
"667 -14 OFFCURVE",
"640 -30 OFFCURVE",
"618 -41 CURVE SMOOTH",
"579 -60 OFFCURVE",
"531 -66 OFFCURVE",
"466 -66 CURVE SMOOTH",
"316 -66 OFFCURVE",
"165 78 OFFCURVE",
"165 259 CURVE SMOOTH",
"165 459 OFFCURVE",
"333 588 OFFCURVE",
"479 588 CURVE SMOOTH",
"665 588 OFFCURVE",
"810 464 OFFCURVE",
"810 279 CURVE SMOOTH",
"810 163 OFFCURVE",
"761 129 OFFCURVE",
"716 129 CURVE SMOOTH",
"675 129 OFFCURVE",
"659 154 OFFCURVE",
"659 233 CURVE SMOOTH",
"659 442 LINE",
"593 442 LINE",
"593 396 LINE",
"586 404 OFFCURVE",
"581 408 OFFCURVE",
"570 417 CURVE SMOOTH",
"545 436 OFFCURVE",
"518 448 OFFCURVE",
"467 448 CURVE SMOOTH",
"382 448 OFFCURVE",
"295 363 OFFCURVE",
"295 254 CURVE SMOOTH",
"295 140 OFFCURVE",
"386 64 OFFCURVE",
"471 64 CURVE SMOOTH",
"523 64 OFFCURVE",
"550 79 OFFCURVE",
"577 100 CURVE SMOOTH",
"586 107 OFFCURVE",
"603 125 OFFCURVE",
"606 133 CURVE",
"609 126 OFFCURVE",
"618 111 OFFCURVE",
"630 99 CURVE SMOOTH",
"651 78 OFFCURVE",
"677 63 OFFCURVE",
"722 63 CURVE SMOOTH",
"795 63 OFFCURVE",
"879 118 OFFCURVE",
"879 278 CURVE SMOOTH",
"879 498 OFFCURVE",
"704 651 OFFCURVE",
"479 651 CURVE SMOOTH",
"274 651 OFFCURVE",
"96 469 OFFCURVE",
"96 259 CURVE SMOOTH",
"96 40 OFFCURVE",
"294 -133 OFFCURVE",
"466 -133 CURVE SMOOTH",
"537 -133 OFFCURVE",
"601 -121 OFFCURVE",
"640 -101 CURVE SMOOTH",
"663 -89 OFFCURVE",
"703 -66 OFFCURVE",
"721 -51 CURVE"
);
},
{
closed = 1;
nodes = (
"427 130 OFFCURVE",
"365 171 OFFCURVE",
"365 254 CURVE SMOOTH",
"365 354 OFFCURVE",
"439 382 OFFCURVE",
"477 382 CURVE SMOOTH",
"531 382 OFFCURVE",
"592 345 OFFCURVE",
"592 255 CURVE SMOOTH",
"592 155 OFFCURVE",
"524 130 OFFCURVE",
"471 130 CURVE SMOOTH"
);
}
);
width = 952;
}
);
leftKerningGroup = at;
note = at;
rightKerningGroup = at;
unicode = 0040;
},
{
glyphname = ampersand;
lastChange = "2020-04-19 16:54:59 +0000";
layers = (
{
background = {
paths = (
{
closed = 1;
nodes = (
"-8897 300 LINE",
"-8897 427 LINE",
"-9116 427 LINE",
"-9116 365 LINE",
"-9116 283 LINE",
"-9261 417 LINE",
"-9278 434 OFFCURVE",
"-9298 451 OFFCURVE",
"-9309 463 CURVE",
"-9325 480 OFFCURVE",
"-9339 501 OFFCURVE",
"-9339 526 CURVE SMOOTH",
"-9339 562 OFFCURVE",
"-9326 584 OFFCURVE",
"-9295 598 CURVE",
"-9281 603 OFFCURVE",
"-9264 606 OFFCURVE",
"-9245 606 CURVE SMOOTH",
"-9221 606 OFFCURVE",
"-9192 601 OFFCURVE",
"-9171 583 CURVE",
"-9162 574 OFFCURVE",
"-9157 563 OFFCURVE",
"-9154 547 CURVE",
"-9019 574 LINE",
"-9027 607 OFFCURVE",
"-9044 641 OFFCURVE",
"-9070 668 CURVE",
"-9112 714 OFFCURVE",
"-9175 733 OFFCURVE",
"-9241 733 CURVE SMOOTH",
"-9274 733 OFFCURVE",
"-9309 730 OFFCURVE",
"-9343 718 CURVE",
"-9425 689 OFFCURVE",
"-9476 615 OFFCURVE",
"-9476 528 CURVE SMOOTH",
"-9476 475 OFFCURVE",
"-9458 438 OFFCURVE",
"-9422 397 CURVE",
"-9435 387 OFFCURVE",
"-9448 376 OFFCURVE",
"-9459 363 CURVE",
"-9494 322 OFFCURVE",
"-9510 268 OFFCURVE",
"-9510 211 CURVE SMOOTH",
"-9508 153 OFFCURVE",
"-9490 103 OFFCURVE",
"-9452 61 CURVE",
"-9404 9 OFFCURVE",
"-9329 -15 OFFCURVE",
"-9249 -15 CURVE SMOOTH",
"-9225 -15 OFFCURVE",
"-9201 -13 OFFCURVE",
"-9176 -9 CURVE",
"-9133 -2 OFFCURVE",
"-9087 16 OFFCURVE",
"-9049 49 CURVE",
"-8983 -14 LINE",
"-8896 79 LINE",
"-8984 160 LINE",
"-8980 177 OFFCURVE",
"-8978 194 OFFCURVE",
"-8978 210 CURVE",
"-8978 300 LINE"
);
},
{
closed = 1;
nodes = (
"-9214 115 OFFCURVE",
"-9228 114 OFFCURVE",
"-9243 114 CURVE SMOOTH",
"-9280 114 OFFCURVE",
"-9332 125 OFFCURVE",
"-9354 153 CURVE",
"-9367 170 OFFCURVE",
"-9373 190 OFFCURVE",
"-9373 219 CURVE SMOOTH",
"-9373 243 OFFCURVE",
"-9368 262 OFFCURVE",
"-9356 277 CURVE",
"-9349 287 OFFCURVE",
"-9337 296 OFFCURVE",
"-9323 302 CURVE",
"-9147 140 LINE",
"-9161 130 OFFCURVE",
"-9179 122 OFFCURVE",
"-9200 118 CURVE"
);
}
);
};
layerId = "1C9972D2-AAA2-4EE5-9F28-188B121D2056";
paths = (
{
closed = 1;
nodes = (
"508 148 LINE",
"624 370 LINE",
"551 373 LINE",
"461 205 LINE",
"313 388 LINE",
"406 432 OFFCURVE",
"465 485 OFFCURVE",
"465 575 CURVE SMOOTH",
"465 644 OFFCURVE",
"408 720 OFFCURVE",
"307 720 CURVE SMOOTH",
"201 720 OFFCURVE",
"135 642 OFFCURVE",
"135 564 CURVE SMOOTH",
"135 500 OFFCURVE",
"156 467 OFFCURVE",
"197 406 CURVE",
"101 357 OFFCURVE",
"35 302 OFFCURVE",
"35 190 CURVE SMOOTH",
"35 72 OFFCURVE",
"133 -4 OFFCURVE",
"252 -4 CURVE SMOOTH",
"363 -4 OFFCURVE",
"404 37 OFFCURVE",
"457 88 CURVE",
"530 0 LINE",
"632 0 LINE"
);
},
{
closed = 1;
nodes = (
"201 64 OFFCURVE",
"118 94 OFFCURVE",
"118 188 CURVE SMOOTH",
"118 291 OFFCURVE",
"160 316 OFFCURVE",
"236 359 CURVE",
"414 142 LINE",
"367 79 OFFCURVE",
"304 64 OFFCURVE",
"260 64 CURVE SMOOTH"
);
},
{
closed = 1;
nodes = (
"215 635 OFFCURVE",
"272 656 OFFCURVE",
"307 656 CURVE SMOOTH",
"338 656 OFFCURVE",
"388 636 OFFCURVE",
"387 566 CURVE SMOOTH",
"386 488 OFFCURVE",
"331 461 OFFCURVE",
"276 435 CURVE",
"252 466 OFFCURVE",
"215 502 OFFCURVE",
"215 562 CURVE SMOOTH"
);
}
);
width = 632;
}
);
note = ampersand;
unicode = 0026;
},
{
glyphname = paragraph;
lastChange = "2020-04-19 16:54:59 +0000";
layers = (
{
layerId = "1C9972D2-AAA2-4EE5-9F28-188B121D2056";
paths = (
{
closed = 1;
nodes = (
"296 713 LINE",
"296 0 LINE",
"239 0 LINE",
"239 341 LINE",
"200 342 OFFCURVE",
"165 350 OFFCURVE",
"136 366 CURVE SMOOTH",
"107 381 OFFCURVE",
"84 403 OFFCURVE",
"68 430 CURVE SMOOTH",
"52 458 OFFCURVE",
"44 490 OFFCURVE",
"44 527 CURVE SMOOTH",
"44 563 OFFCURVE",
"52 596 OFFCURVE",
"69 624 CURVE SMOOTH",
"86 652 OFFCURVE",
"109 674 OFFCURVE",
"140 690 CURVE SMOOTH",
"170 705 OFFCURVE",
"205 713 OFFCURVE",
"246 713 CURVE SMOOTH"
);
},
{
closed = 1;
nodes = (
"408 0 LINE",
"408 713 LINE",
"465 713 LINE",
"465 0 LINE"
);
},
{
closed = 1;
nodes = (
"266 713 LINE",
"526 713 LINE",
"526 656 LINE",
"266 656 LINE"
);
}
);
width = 562;
}
);
note = paragraph;
unicode = 00B6;
},
{
glyphname = section;
lastChange = "2020-04-19 16:54:59 +0000";
layers = (
{
layerId = "1C9972D2-AAA2-4EE5-9F28-188B121D2056";
paths = (
{
closed = 1;
nodes = (
"365 -120 OFFCURVE",
"462 -68 OFFCURVE",
"466 42 CURVE SMOOTH",
"468 84 OFFCURVE",
"449 118 OFFCURVE",
"395 159 CURVE",
"431 173 OFFCURVE",
"493 220 OFFCURVE",
"493 288 CURVE SMOOTH",
"493 394 OFFCURVE",
"420 427 OFFCURVE",
"310 468 CURVE SMOOTH",
"256 488 OFFCURVE",
"174 514 OFFCURVE",
"174 566 CURVE SMOOTH",
"174 640 OFFCURVE",
"246 655 OFFCURVE",
"281 655 CURVE SMOOTH",
"328 655 OFFCURVE",
"373 632 OFFCURVE",
"396 602 CURVE",
"452 651 LINE",
"425 683 OFFCURVE",
"370 725 OFFCURVE",
"278 725 CURVE SMOOTH",
"173 725 OFFCURVE",
"98 651 OFFCURVE",
"98 575 CURVE SMOOTH",
"98 506 OFFCURVE",
"137 481 OFFCURVE",
"167 462 CURVE",
"117 435 OFFCURVE",
"67 395 OFFCURVE",
"67 320 CURVE SMOOTH",
"67 235 OFFCURVE",
"138 185 OFFCURVE",
"238 152 CURVE SMOOTH",
"322 124 OFFCURVE",
"394 100 OFFCURVE",
"390 42 CURVE SMOOTH",
"386 -18 OFFCURVE",
"334 -49 OFFCURVE",
"264 -49 CURVE SMOOTH",
"210 -49 OFFCURVE",
"161 -21 OFFCURVE",
"132 29 CURVE",
"77 -25 LINE",
"97 -55 OFFCURVE",
"161 -120 OFFCURVE",
"260 -120 CURVE SMOOTH"
);
},
{
closed = 1;
nodes = (
"235 227 LINE SMOOTH",
"176 246 OFFCURVE",
"143 283 OFFCURVE",
"143 323 CURVE SMOOTH",
"143 394 OFFCURVE",
"212 423 OFFCURVE",
"233 423 CURVE",
"301 402 LINE SMOOTH",
"362 383 OFFCURVE",
"420 344 OFFCURVE",
"416 288 CURVE SMOOTH",
"412 229 OFFCURVE",
"358 203 OFFCURVE",
"328 197 CURVE"
);
}
);
width = 544;
}
);
leftKerningGroup = section;
rightKerningGroup = section;
unicode = 00A7;
},
{
glyphname = copyright;
lastChange = "2020-04-19 16:54:59 +0000";
layers = (
{
layerId = "1C9972D2-AAA2-4EE5-9F28-188B121D2056";
paths = (
{
closed = 1;
nodes = (
"40 145 OFFCURVE",
"199 -10 OFFCURVE",
"411 -10 CURVE SMOOTH",
"623 -10 OFFCURVE",
"781 149 OFFCURVE",
"781 357 CURVE SMOOTH",
"781 567 OFFCURVE",
"623 725 OFFCURVE",
"411 725 CURVE SMOOTH",
"199 725 OFFCURVE",
"40 562 OFFCURVE",
"40 357 CURVE SMOOTH"
);
},
{
closed = 1;
nodes = (
"108 525 OFFCURVE",
"238 661 OFFCURVE",
"411 661 CURVE SMOOTH",
"588 661 OFFCURVE",
"714 531 OFFCURVE",
"714 357 CURVE SMOOTH",
"714 187 OFFCURVE",
"586 53 OFFCURVE",
"411 53 CURVE SMOOTH",
"238 53 OFFCURVE",
"108 188 OFFCURVE",
"108 357 CURVE SMOOTH"
);
},
{
closed = 1;
nodes = (
"539 275 LINE",
"507 238 OFFCURVE",
"467 221 OFFCURVE",
"426 221 CURVE SMOOTH",
"360 221 OFFCURVE",
"305 260 OFFCURVE",
"292 326 CURVE SMOOTH",
"289 338 OFFCURVE",
"288 350 OFFCURVE",
"288 362 CURVE SMOOTH",
"288 426 OFFCURVE",
"324 481 OFFCURVE",
"386 496 CURVE SMOOTH",
"397 498 OFFCURVE",
"409 500 OFFCURVE",
"421 500 CURVE SMOOTH",
"460 500 OFFCURVE",
"499 484 OFFCURVE",
"527 457 CURVE",
"570 504 LINE",
"531 547 OFFCURVE",
"472 566 OFFCURVE",
"411 566 CURVE SMOOTH",
"297 566 OFFCURVE",
"210 476 OFFCURVE",
"210 361 CURVE SMOOTH",
"210 236 OFFCURVE",
"298 154 OFFCURVE",
"422 154 CURVE SMOOTH",
"481 154 OFFCURVE",
"544 182 OFFCURVE",
"578 228 CURVE"
);
}
);
width = 821;
}
);
leftMetricsKey = O;
rightMetricsKey = O;
unicode = 00A9;
},
{
glyphname = registered;
lastChange = "2020-04-19 16:54:59 +0000";
layers = (
{
layerId = "1C9972D2-AAA2-4EE5-9F28-188B121D2056";
paths = (
{
closed = 1;
nodes = (
"40 356 OFFCURVE",
"149 249 OFFCURVE",
"285 249 CURVE SMOOTH",
"418 249 OFFCURVE",
"527 356 OFFCURVE",
"527 490 CURVE SMOOTH",
"527 622 OFFCURVE",
"418 730 OFFCURVE",
"285 730 CURVE SMOOTH",
"149 730 OFFCURVE",
"40 622 OFFCURVE",
"40 490 CURVE SMOOTH"
);
},
{
closed = 1;
nodes = (
"83 596 OFFCURVE",
"172 687 OFFCURVE",
"284 687 CURVE SMOOTH",
"391 687 OFFCURVE",
"484 600 OFFCURVE",
"484 489 CURVE SMOOTH",
"484 384 OFFCURVE",
"394 291 OFFCURVE",
"284 291 CURVE SMOOTH",
"173 291 OFFCURVE",
"83 378 OFFCURVE",
"83 489 CURVE SMOOTH"
);
},
{
closed = 1;
nodes = (
"241 350 LINE",
"241 444 LINE",
"280 444 LINE",
"341 350 LINE",
"412 350 LINE",
"336 463 LINE",
"370 475 OFFCURVE",
"394 505 OFFCURVE",
"394 545 CURVE SMOOTH",
"394 593 OFFCURVE",
"367 635 OFFCURVE",
"278 635 CURVE SMOOTH",
"180 635 LINE",
"180 350 LINE"
);
},
{
closed = 1;
nodes = (
"328 513 OFFCURVE",
"303 498 OFFCURVE",
"280 498 CURVE SMOOTH",
"241 498 LINE",
"241 582 LINE",
"277 582 LINE SMOOTH",
"310 582 OFFCURVE",
"328 572 OFFCURVE",
"328 539 CURVE SMOOTH"
);
}
);
width = 567;
}
);
leftMetricsKey = O;
rightMetricsKey = O;
unicode = 00AE;
},
{
glyphname = trademark;
lastChange = "2020-04-19 16:54:59 +0000";
layers = (
{
layerId = "1C9972D2-AAA2-4EE5-9F28-188B121D2056";
paths = (
{
closed = 1;
nodes = (
"153 415 LINE",
"153 681 LINE",
"223 681 LINE",
"223 415 LINE"
);
},
{
closed = 1;
nodes = (
"66 643 LINE",
"66 713 LINE",
"307 713 LINE",
"307 643 LINE"
);
},
{
closed = 1;
nodes = (
"511 526 LINE",
"494 526 LINE",
"356 676 LINE",
"418 705 LINE",
"418 415 LINE",
"348 415 LINE",
"348 713 LINE",
"415 713 LINE",
"539 576 LINE",
"468 576 LINE",
"591 713 LINE",
"657 713 LINE",
"657 415 LINE",
"588 415 LINE",
"588 697 LINE",
"647 675 LINE"
);
}
);
width = 717;
}
);
leftKerningGroup = trademark;
unicode = 2122;
},
{
glyphname = degree;
lastChange = "2020-04-19 16:54:59 +0000";
layers = (
{
layerId = "1C9972D2-AAA2-4EE5-9F28-188B121D2056";
paths = (
{
closed = 1;
nodes = (
"102 400 OFFCURVE",
"32 470 OFFCURVE",
"32 564 CURVE SMOOTH",
"32 657 OFFCURVE",
"103 728 OFFCURVE",
"197 728 CURVE SMOOTH",
"291 728 OFFCURVE",
"362 658 OFFCURVE",
"362 564 CURVE SMOOTH",
"362 471 OFFCURVE",
"296 400 OFFCURVE",
"197 400 CURVE SMOOTH"
);
},
{
closed = 1;
nodes = (
"297 623 OFFCURVE",
"254 667 OFFCURVE",
"197 667 CURVE SMOOTH",
"140 667 OFFCURVE",
"97 623 OFFCURVE",
"97 564 CURVE SMOOTH",
"97 503 OFFCURVE",
"138 461 OFFCURVE",
"197 461 CURVE SMOOTH",
"256 461 OFFCURVE",
"297 503 OFFCURVE",
"297 564 CURVE SMOOTH"
);
}
);
width = 394;
}
);
unicode = 00B0;
},
{
glyphname = bar;
lastChange = "2020-04-19 16:54:59 +0000";
layers = (
{
layerId = "1C9972D2-AAA2-4EE5-9F28-188B121D2056";
paths = (
{
closed = 1;
nodes = (
"202 -330 LINE",
"120 -330 LINE",
"120 830 LINE",
"202 830 LINE"
);
}
);
width = 303;
}
);
unicode = 007C;
},
{
glyphname = brokenbar;
lastChange = "2020-04-19 16:54:59 +0000";
layers = (
{
layerId = "1C9972D2-AAA2-4EE5-9F28-188B121D2056";
paths = (
{
closed = 1;
nodes = (
"202 340 LINE",
"120 340 LINE",
"120 830 LINE",
"202 830 LINE"
);
},
{
closed = 1;
nodes = (
"202 -330 LINE",
"120 -330 LINE",
"120 160 LINE",
"202 160 LINE"
);
}
);
width = 303;
}
);
note = brokenbar;
unicode = 00A6;
},
{
glyphname = dagger;
lastChange = "2020-04-19 16:54:59 +0000";
layers = (
{
layerId = "1C9972D2-AAA2-4EE5-9F28-188B121D2056";
paths = (
{
closed = 1;
nodes = (
"174 163 LINE",
"174 713 LINE",
"256 713 LINE",
"256 163 LINE"
);
},
{
closed = 1;
nodes = (
"389 501 LINE",
"41 501 LINE",
"41 577 LINE",
"389 577 LINE"
);
}
);
width = 409;
}
);
note = dagger;
unicode = 2020;
},
{
glyphname = daggerdbl;
lastChange = "2020-04-19 16:54:59 +0000";
layers = (
{
layerId = "1C9972D2-AAA2-4EE5-9F28-188B121D2056";
paths = (
{
closed = 1;
nodes = (
"147 0 LINE",
"147 715 LINE",
"228 715 LINE",
"228 0 LINE"
);
},
{
closed = 1;
nodes = (
"356 498 LINE",
"24 498 LINE",
"24 575 LINE",
"356 575 LINE"
);
},
{
closed = 1;
nodes = (
"356 181 LINE",
"24 181 LINE",
"24 258 LINE",
"356 258 LINE"
);
}
);
width = 380;
}
);
note = daggerdbl;
unicode = 2021;
},
{
glyphname = circumflexcomb;
lastChange = "2020-04-19 16:54:59 +0000";
layers = (
{
layerId = "1C9972D2-AAA2-4EE5-9F28-188B121D2056";
paths = (
{
closed = 1;
nodes = (
"464 788 LINE",
"376 788 LINE",
"301 876 LINE",
"227 788 LINE",
"138 788 LINE",
"262 939 LINE",
"341 939 LINE"
);
}
);
width = 600;
}
);
unicode = 0302;
},
{
glyphname = ring;
lastChange = "2020-04-19 16:54:59 +0000";
layers = (
{
anchors = (
{
name = _top;
position = "{336, 1792}";
}
);
guideLines = (
{
alignment = center;
position = "{980, 1956}";
}
);
layerId = "1C9972D2-AAA2-4EE5-9F28-188B121D2056";
paths = (
{
closed = 1;
nodes = (
"184 806 OFFCURVE",
"230 763 OFFCURVE",
"287 763 CURVE SMOOTH",
"344 763 OFFCURVE",
"390 806 OFFCURVE",
"390 861 CURVE SMOOTH",
"390 916 OFFCURVE",
"344 959 OFFCURVE",
"287 959 CURVE SMOOTH",
"230 959 OFFCURVE",
"184 916 OFFCURVE",
"184 861 CURVE SMOOTH"
);
},
{
closed = 1;
nodes = (
"252 882 OFFCURVE",
"267 897 OFFCURVE",
"286 897 CURVE SMOOTH",
"306 897 OFFCURVE",
"321 882 OFFCURVE",
"321 862 CURVE SMOOTH",
"321 842 OFFCURVE",
"306 827 OFFCURVE",
"286 827 CURVE SMOOTH",
"267 827 OFFCURVE",
"252 842 OFFCURVE",
"252 862 CURVE SMOOTH"
);
}
);
width = 672;
}
);
note = "recipe: offset curve 30, no auto; then redrawn two circles manually for perfect fit.";
unicode = 02DA;
userData = {
"interface.width-adjustments" = (
-16
);
};
},
{
glyphname = tilde;
lastChange = "2020-04-19 16:54:59 +0000";
layers = (
{
anchors = (
{
name = _top;
position = "{700, 1792}";
},
{
name = top;
position = "{700, 2304}";
}
);
layerId = "1C9972D2-AAA2-4EE5-9F28-188B121D2056";
paths = (
{
closed = 1;
nodes = (
"193 787 LINE",
"193 806 LINE",
"193 826 OFFCURVE",
"203 851 OFFCURVE",
"223 851 CURVE",
"237 851 OFFCURVE",
"253 845 OFFCURVE",
"279 816 CURVE",
"299 796 OFFCURVE",
"329 788 OFFCURVE",
"357 788 CURVE",
"415 788 OFFCURVE",
"449 851 OFFCURVE",
"449 908 CURVE",
"449 926 LINE",
"381 926 LINE",
"381 903 LINE",
"381 885 OFFCURVE",
"369 861 OFFCURVE",
"350 861 CURVE",
"332 861 OFFCURVE",
"320 875 OFFCURVE",
"303 890 CURVE",
"281 911 OFFCURVE",
"251 926 OFFCURVE",
"222 926 CURVE",
"165 926 OFFCURVE",
"125 870 OFFCURVE",
"125 813 CURVE",
"125 788 LINE"
);
}
);
width = 1400;
}
);
unicode = 02DC;
userData = {
interface.gridadjust.original = "{'width': 1352, 'leftMargin': 175, 'rightMargin': 194}";
"interface.width-adjustments" = (
-16
);
};
},
{
glyphname = macron;
lastChange = "2020-04-19 16:54:59 +0000";
layers = (
{
anchors = (
{
name = _top;
position = "{412, 1792}";
}
);
guideLines = (
{
position = "{752, 1880}";
}
);
layerId = "1C9972D2-AAA2-4EE5-9F28-188B121D2056";
paths = (
{
closed = 1;
nodes = (
"419 819 LINE",
"419 891 LINE",
"108 891 LINE",
"108 819 LINE"
);
}
);
width = 824;
}
);
unicode = 00AF;
userData = {
interface.gridadjust.original = "{'width': 1310, 'leftMargin': 198, 'rightMargin': 173}";
"interface.width-adjustments" = (
-16
);
};
},
{
glyphname = cedilla;
lastChange = "2020-04-19 16:54:59 +0000";
layers = (
{
layerId = "1C9972D2-AAA2-4EE5-9F28-188B121D2056";
paths = (
{
closed = 1;
nodes = (
"326 -200 OFFCURVE",
"367 -166 OFFCURVE",
"370 -123 CURVE SMOOTH",
"373 -86 OFFCURVE",
"351 -34 OFFCURVE",
"290 -34 CURVE",
"310 9 LINE",
"243 2 LINE",
"211 -66 LINE",
"244 -98 LINE",
"284 -71 OFFCURVE",
"308 -94 OFFCURVE",
"306 -115 CURVE SMOOTH",
"305 -128 OFFCURVE",
"295 -143 OFFCURVE",
"262 -143 CURVE SMOOTH",
"254 -143 OFFCURVE",
"219 -138 OFFCURVE",
"201 -111 CURVE",
"173 -159 LINE",
"183 -175 OFFCURVE",
"218 -200 OFFCURVE",
"272 -200 CURVE SMOOTH"
);
}
);
width = 600;
}
);
unicode = 00B8;
},
